<svg width="484" height="32" viewBox="0 0 484 32" fill="none" xmlns="http://www.w3.org/2000/svg">
<path d="M454.673 16.5997C454.012 16.6254 453.344 16.6434 452.696 16.6814C452.276 16.7052 452.095 16.6379 451.814 16.6031C451.72 16.591 451.619 16.5665 451.532 16.5698C450.878 16.5955 450.224 16.6243 449.569 16.6531C449.37 16.7133 449.244 16.7934 448.937 16.8232C448.637 16.8513 448.282 16.852 447.949 16.8664C447.508 16.884 447.067 16.9017 446.626 16.9178C446.406 16.9259 446.226 16.9554 446.153 17.0108C446.14 17.0201 446.287 17.0429 446.368 17.0565C446.635 17.1022 446.896 17.1539 447.191 17.1888C447.472 17.2221 447.819 17.1662 448.12 17.2087C448.796 17.3043 448.802 17.3027 449.317 17.2834C449.757 17.2657 450.198 17.2465 450.639 17.2335C450.726 17.2303 450.826 17.2531 450.92 17.2653C451.201 17.2986 451.382 17.3751 451.796 17.3452C452.11 17.3216 452.457 17.3164 452.784 17.3035C453.058 17.3476 453.313 17.3978 453.607 17.4327C453.882 17.466 453.962 17.492 453.816 17.5368C453.683 17.5785 453.496 17.5957 453.249 17.5992C453.028 17.6011 452.808 17.6153 452.588 17.6234C452.474 17.6282 452.367 17.6315 452.26 17.6363C451.84 17.6539 451.84 17.6539 451.07 17.5569C450.769 17.519 450.429 17.5734 450.141 17.537C449.947 17.5128 449.78 17.4762 449.592 17.4504C449.512 17.4398 449.385 17.4385 449.285 17.4417C448.951 17.453 448.617 17.4613 448.297 17.4818C448.07 17.4961 447.937 17.5393 447.964 17.5823C447.971 17.5992 448.131 17.6235 448.225 17.6248C448.439 17.6275 448.666 17.6056 448.873 17.616C449.073 17.6264 449.281 17.6568 449.428 17.6903C449.73 17.7605 450.07 17.6969 450.357 17.7149C450.658 17.7343 450.906 17.7953 451.194 17.8317C451.267 17.8408 451.407 17.8252 451.521 17.8204C451.848 17.809 452.176 17.7993 452.503 17.7879C452.777 17.832 453.072 17.8715 453.319 17.9217C453.768 18.0131 454.25 18.0476 454.83 18.002C455.157 17.9769 455.478 17.9856 455.739 18.045C456.007 18.106 456.314 18.0993 456.655 18.0865C456.969 18.0736 457.289 18.0393 457.61 18.0817C458.306 18.1758 458.313 18.1804 459.134 18.1421C459.381 18.1309 459.568 18.1275 459.756 18.1625C459.93 18.1945 460.117 18.2218 460.298 18.2522C460.625 18.2409 460.959 18.2295 461.286 18.2167C461.707 18.1991 461.941 18.2202 462.042 18.306C462.103 18.3581 462.13 18.4057 462.278 18.4408C462.452 18.4835 462.639 18.4816 462.893 18.4689C463.133 18.4577 463.307 18.4406 463.406 18.3851C463.446 18.362 463.526 18.3403 463.599 18.3217C463.659 18.3078 463.752 18.2862 463.806 18.2891C463.906 18.2951 464.04 18.3118 464.074 18.3317C464.403 18.517 464.403 18.5185 464.738 18.5717C465.106 18.631 465.488 18.6841 465.822 18.7511C466.124 18.8105 466.424 18.7839 466.751 18.7833C466.998 18.7829 467.159 18.8226 467.14 18.8625C467.127 18.8856 467.034 18.9196 466.953 18.9228C466.299 18.9546 465.638 18.9819 464.977 19.0046C464.897 19.0078 464.796 18.9803 464.703 18.9666C464.515 18.9393 464.348 18.8966 464.147 18.8877C463.947 18.8788 463.713 18.9023 463.493 18.9103C463.272 18.9184 463.039 18.9388 462.838 18.9269C462.638 18.9149 462.477 18.8706 462.289 18.8418C462.202 18.8281 462.082 18.8083 462.008 18.8131C461.521 18.8508 461.16 18.8007 460.812 18.7337C460.738 18.72 460.611 18.711 460.517 18.7143C459.743 18.7417 458.975 18.7738 458.2 18.8043C457.887 18.8171 457.632 18.7638 457.564 18.6733C457.53 18.6227 457.463 18.5721 457.462 18.5214C457.461 18.4292 457.093 18.3791 456.826 18.3904C456.385 18.4065 455.938 18.4195 455.504 18.4433C455.15 18.4624 454.849 18.4445 454.608 18.3896C454.326 18.3271 454.006 18.3399 453.685 18.3574C453.445 18.3701 453.379 18.4209 453.394 18.5484C453.408 18.6513 453.295 18.6838 452.861 18.7014C452.314 18.7239 451.759 18.7464 451.205 18.7642C451.118 18.7674 451.018 18.7415 450.931 18.7278C450.743 18.7005 450.576 18.6562 450.375 18.6474C450.175 18.637 449.941 18.6604 449.721 18.67C449.5 18.6781 449.267 18.7 449.066 18.6896C448.866 18.6792 448.698 18.6334 448.517 18.6045C448.43 18.5908 448.323 18.571 448.237 18.5743C447.796 18.5873 447.355 18.6065 446.914 18.6242C446.42 18.6435 446.42 18.6435 445.718 18.5495C445.396 18.507 445.076 18.5414 444.762 18.5542C444.429 18.5671 444.115 18.5737 443.853 18.5127C443.679 18.4731 443.485 18.4489 443.278 18.4569C442.724 18.4763 442.176 18.5003 441.622 18.5197C441.529 18.5229 441.402 18.5155 441.328 18.5018C440.973 18.4379 440.625 18.3878 440.131 18.4209C439.704 18.4493 439.243 18.4516 438.816 18.4785C438.582 18.4927 438.476 18.5421 438.523 18.5804C438.55 18.6003 438.69 18.6231 438.784 18.623C438.998 18.6241 439.231 18.6007 439.432 18.6095C439.846 18.6272 440.055 18.7559 440.596 18.7197C440.916 18.6976 441.25 18.6893 441.584 18.6826C441.671 18.6809 441.765 18.71 441.858 18.7252C442.126 18.7662 442.361 18.8195 442.748 18.7912C443.068 18.7691 443.409 18.7624 443.736 18.7496C444.257 18.7287 444.257 18.7302 444.933 18.8228C445.254 18.8668 445.574 18.8309 445.888 18.8196C446.122 18.8115 446.342 18.7957 446.529 18.8169C446.817 18.8487 447.025 18.922 447.379 18.9168C447.713 18.9116 448.04 18.8896 448.374 18.8813C448.581 18.8763 448.775 18.9006 448.943 18.9418C449.117 18.9829 449.304 19.001 449.531 18.9914C449.858 18.9786 450.192 18.9626 450.526 18.9544C450.619 18.9527 450.727 18.9663 450.814 18.9785C451.001 19.0058 451.182 19.0377 451.362 19.0666C451.69 19.0568 452.024 19.0532 452.344 19.0342C452.591 19.0199 452.765 19.0258 452.966 19.0562C453.22 19.0972 453.428 19.1706 453.842 19.1345C454.049 19.1173 454.289 19.1214 454.496 19.1057C454.75 19.0853 454.924 19.0927 455.105 19.1385C455.446 19.2254 455.874 19.2262 456.314 19.1917C456.795 19.154 457.156 19.1964 457.518 19.2633C457.899 19.3333 457.899 19.3318 458.195 19.5018C458.283 19.5508 458.53 19.5734 458.737 19.5639C459.084 19.5479 459.385 19.5551 459.64 19.613C459.908 19.6755 460.228 19.6673 460.555 19.6498C460.989 19.626 461.423 19.6053 461.779 19.6938C461.953 19.7365 462.14 19.7469 462.374 19.7358C463.035 19.707 463.703 19.6889 464.35 19.654C464.744 19.6318 464.972 19.6806 465.24 19.7216C465.601 19.7778 465.996 19.8278 465.997 19.9492C465.998 19.9691 466.091 19.992 466.172 20.0072C466.346 20.0392 466.533 20.0665 466.714 20.0969C466.982 20.1426 467.243 20.1805 467.61 20.1553C467.93 20.1348 468.271 20.128 468.598 20.1136C468.925 20.0992 469.226 20.091 469.52 20.1489C469.862 20.2144 470.223 20.2767 470.611 20.3252C470.886 20.3601 471.246 20.2996 471.54 20.3467C471.721 20.3755 471.895 20.409 472.089 20.4333C472.169 20.4439 472.296 20.436 472.403 20.4327C472.624 20.4262 472.851 20.4212 473.064 20.4055C473.311 20.3882 473.498 20.3909 473.686 20.4259C473.86 20.4579 474.034 20.5021 474.235 20.511C474.536 20.5243 474.869 20.4623 475.17 20.5324C475.324 20.5675 475.519 20.6009 475.719 20.6113C475.92 20.6218 476.153 20.5983 476.367 20.5995C476.46 20.5993 476.574 20.6237 476.628 20.6436C476.662 20.6543 476.615 20.6835 476.569 20.699C476.509 20.7175 476.422 20.7423 476.335 20.7455C475.674 20.7743 475.013 20.7985 474.352 20.8257C473.958 20.8418 473.958 20.8418 473.162 20.7464C472.975 20.7237 472.768 20.7286 472.534 20.7398C472.22 20.7541 471.9 20.7808 471.572 20.7537C471.143 20.65 470.615 20.6417 470.055 20.6826C469.821 20.6999 469.607 20.7003 469.433 20.6714C469.065 20.6137 468.677 20.5606 468.349 20.492C468.094 20.4387 467.974 20.4343 467.868 20.5082C467.835 20.5313 467.802 20.556 467.809 20.5775C467.85 20.6542 467.924 20.7293 467.965 20.8061C467.979 20.8276 467.926 20.8523 467.893 20.8754C467.786 20.9401 467.646 20.9357 467.412 20.8823C467.177 20.829 466.896 20.7941 466.522 20.8194C466.202 20.8414 465.854 20.839 465.534 20.8626C465.04 20.8972 464.692 20.8487 464.337 20.7832C464.264 20.7695 464.137 20.7621 464.043 20.7653C463.048 20.8023 462.06 20.844 461.065 20.8811C460.851 20.8891 460.657 20.8664 460.49 20.8252C460.315 20.784 460.121 20.7629 459.908 20.7709C459.026 20.8047 458.145 20.8354 457.263 20.8769C456.903 20.8945 456.616 20.875 456.368 20.8216C456.18 20.782 456.006 20.77 455.772 20.775C455.519 20.7801 455.339 20.7958 455.212 20.8405C455.092 20.8838 455.18 20.9097 455.447 20.9431C455.735 20.9794 456.003 21.0266 456.277 21.0691C456.497 21.0626 456.718 21.0499 456.932 21.0511C457.025 21.0509 457.112 21.0784 457.206 21.0936C457.474 21.1377 457.721 21.1819 458.102 21.1566C458.422 21.1345 458.763 21.1293 459.09 21.1149C459.544 21.0973 459.544 21.0973 460.28 21.1928C460.468 21.217 460.668 21.2151 460.908 21.2009C461.115 21.1898 461.329 21.2109 461.477 21.2567C461.537 21.2751 461.518 21.3059 461.392 21.4075C461.393 21.4827 461.533 21.4487 461.579 21.3995C461.651 21.3287 461.511 21.3059 461.244 21.3447C461.057 21.3727 460.964 21.4128 461.012 21.445C461.039 21.4619 461.166 21.4831 461.392 21.4075C461.979 21.3143 462.426 21.3027 462.853 21.2774C463.107 21.2631 463.268 21.269 463.468 21.3086C463.71 21.3558 463.951 21.4061 464.345 21.3808C464.772 21.3524 465.226 21.3486 465.66 21.3248C466.061 21.3026 466.268 21.3698 466.523 21.4093C466.831 21.4564 467.171 21.402 467.452 21.4292C467.746 21.4563 467.954 21.5236 468.295 21.5353C468.788 21.4929 469.103 21.5692 469.478 21.6193C469.773 21.6572 470.12 21.6227 470.433 21.6053C470.787 21.5863 471.081 21.6027 471.329 21.6575C471.611 21.72 471.924 21.7057 472.245 21.6913C472.993 21.6593 473.019 21.6546 473.455 21.7383C473.769 21.7992 474.07 21.7711 474.384 21.7628C474.658 21.8038 474.926 21.8479 475.213 21.8843C475.287 21.8934 475.427 21.8778 475.541 21.873C475.868 21.8601 476.202 21.8473 476.529 21.8344C476.749 21.8263 476.983 21.8029 477.183 21.8117C477.384 21.8222 477.552 21.8664 477.732 21.8953C477.913 21.9242 478.1 21.953 478.274 21.9835C478.542 22.0291 478.797 22.0671 479.17 22.0434C479.491 22.0228 479.825 22.0161 480.159 22.0017C480.579 21.9841 480.566 21.9887 481.349 22.0795C481.77 22.1295 482.204 22.0673 482.631 22.0604C482.845 22.057 483.052 22.0735 483.2 22.1178C483.26 22.1361 483.24 22.1669 483.261 22.193C482.159 22.2364 481.05 22.2736 479.962 22.3262C479.541 22.3469 479.32 22.292 479.093 22.2463C478.718 22.1732 478.225 22.2816 477.869 22.1869C477.655 22.1305 477.347 22.0988 476.98 22.1271C476.766 22.1428 476.539 22.1416 476.319 22.1558C475.758 22.1906 475.244 22.1931 474.795 22.0878C474.641 22.0512 474.42 22.0316 474.26 21.9966C474.072 21.9585 473.891 21.9373 473.671 21.9454C472.676 21.984 471.688 22.0225 470.7 22.0642C470.613 22.0674 470.526 22.0906 470.453 22.1077C470.266 22.151 470.327 22.1847 470.628 22.2118C470.728 22.2209 470.809 22.2407 470.902 22.2559C471.083 22.2848 471.25 22.3306 471.451 22.341C471.652 22.3514 471.885 22.3295 472.106 22.3214C472.326 22.3133 472.56 22.2899 472.76 22.2988C472.961 22.3092 473.128 22.3534 473.315 22.3808C473.402 22.3944 473.51 22.4173 473.597 22.4156C474.037 22.4056 474.471 22.388 474.912 22.3734C475.187 22.4144 475.421 22.4739 475.749 22.4872C475.956 22.496 476.176 22.4787 476.39 22.4814C476.483 22.4828 476.604 22.5056 476.651 22.5255C476.678 22.5378 476.591 22.5687 476.525 22.5841C476.272 22.643 475.924 22.6328 475.61 22.6518C475.27 22.6723 474.962 22.6667 474.701 22.6073C474.527 22.5676 474.333 22.5465 474.119 22.5545C473.565 22.5754 473.017 22.5994 472.463 22.6173C472.37 22.6205 472.256 22.6069 472.169 22.5963C471.466 22.5038 471.466 22.5007 470.972 22.5216C470.244 22.552 470.245 22.552 469.756 22.4714C469.662 22.4562 469.561 22.4272 469.481 22.4289C468.707 22.4548 467.939 22.4807 467.171 22.5174C466.917 22.5286 466.744 22.5289 466.556 22.4893C466.395 22.4558 466.208 22.4177 466.007 22.4088C465.8 22.4 465.573 22.4234 465.353 22.4315C465.132 22.4395 464.899 22.4599 464.705 22.4479C464.504 22.436 464.33 22.3933 464.156 22.3629C463.975 22.3309 463.782 22.3328 463.535 22.3455C462.773 22.3822 462.767 22.3776 462.011 22.2836C461.924 22.273 461.81 22.2609 461.716 22.2642C461.162 22.2836 460.615 22.3076 460.06 22.327C459.847 22.335 459.639 22.3154 459.492 22.2711C459.431 22.2528 459.451 22.222 459.41 22.1622C459.363 22.1484 459.417 22.1729 459.431 22.1959C459.531 22.1927 459.651 22.1955 459.725 22.1831C459.911 22.1536 460.004 22.115 459.957 22.0829C459.93 22.066 459.803 22.0447 459.723 22.0449C459.576 22.0451 459.449 22.0791 459.41 22.1622C458.99 22.2136 458.543 22.2251 458.109 22.2505C457.855 22.2663 457.695 22.2589 457.494 22.2193C457.253 22.1705 457.005 22.1233 456.611 22.1486C456.184 22.177 455.729 22.1824 455.289 22.2047C454.781 22.2301 454.559 22.0922 454.132 22.0961C453.691 22.0999 453.25 22.1268 452.81 22.146C452.422 22.162 452.422 22.162 451.619 22.0635C451.325 22.0272 450.978 22.0816 450.691 22.0436C450.497 22.0194 450.329 21.9828 450.142 21.957C450.061 21.9464 449.934 21.9466 449.834 21.9499C449.28 21.9693 448.719 21.9826 448.185 22.0173C447.578 22.0583 447.116 22.0161 446.681 21.9262C446.133 21.944 445.579 21.9542 445.038 21.9843C444.644 22.0065 444.416 21.9562 444.149 21.9152C444.055 21.9015 443.975 21.8786 443.874 21.8727C443.774 21.8667 443.654 21.8792 443.547 21.884C443.106 21.9016 442.652 21.9101 442.225 21.9385C441.697 21.9748 441.495 21.8491 441.088 21.8345C440.815 21.9102 440.669 22.0134 440.128 22.022C439.687 22.029 439.247 22.0543 438.806 22.072C438.586 22.08 438.365 22.0896 438.145 22.0977C437.791 22.1121 437.625 22.1723 437.699 22.2644C437.74 22.315 437.774 22.3657 437.808 22.4163C437.876 22.5068 437.71 22.5839 437.429 22.5952C436.655 22.6257 435.887 22.6578 435.112 22.6852C434.905 22.6933 434.704 22.6675 434.537 22.6263C434.363 22.5851 434.169 22.567 433.955 22.5751C433.181 22.6056 432.413 22.6377 431.638 22.6652C431.551 22.6684 431.438 22.6532 431.351 22.6411C431.163 22.6137 430.982 22.5818 430.802 22.5529C430.361 22.5675 429.927 22.5775 429.493 22.5967C428.792 22.6255 428.792 22.6271 428.276 22.5435C428.182 22.5283 428.089 22.4993 428.002 22.5009C427.668 22.5077 427.341 22.5236 427.007 22.538C426.025 22.5797 426.025 22.5796 425.737 22.5341C425.476 22.4915 425.242 22.4397 424.848 22.4649C424.421 22.4933 423.967 22.5033 423.526 22.5195C423.199 22.5308 422.871 22.5437 422.544 22.5473C422.457 22.549 422.363 22.5199 422.27 22.5047C422.002 22.4576 421.741 22.4196 421.374 22.4464C421.16 22.4621 420.933 22.4656 420.713 22.4737C420.138 22.4962 420.138 22.4962 419.195 22.4056C419.102 22.3966 418.988 22.386 418.895 22.3908C418.12 22.4198 417.352 22.4518 416.577 22.4793C416.484 22.4825 416.37 22.4735 416.277 22.466C415.22 22.3787 415.22 22.3787 414.098 22.4237C413.671 22.4398 413.658 22.446 413.209 22.3653C413.008 22.3303 412.841 22.3137 412.607 22.3249C411.726 22.3633 410.838 22.3894 409.963 22.4339C409.569 22.4531 409.341 22.4074 409.074 22.3663C408.98 22.3527 408.879 22.3221 408.799 22.3238C407.918 22.3545 407.036 22.3914 406.155 22.4221C406.075 22.4253 405.974 22.3948 405.88 22.3811C405.7 22.3538 405.526 22.3126 405.325 22.3037C405.118 22.2949 404.891 22.3183 404.664 22.3264C404.11 22.3473 404.11 22.3458 403.467 22.2563C403.38 22.2441 403.266 22.2274 403.18 22.2306C402.298 22.2629 401.41 22.2906 400.535 22.3366C400.035 22.3621 399.693 22.3181 399.339 22.2542C399.265 22.2405 399.138 22.2346 399.044 22.2378C398.049 22.2749 397.061 22.3165 396.066 22.3536C395.859 22.3616 395.658 22.3359 395.491 22.2962C395.223 22.2337 394.909 22.2419 394.575 22.2563C393.807 22.2899 393.801 22.2884 393.345 22.2155C393.252 22.2003 393.171 22.1804 393.071 22.1729C392.977 22.1654 392.857 22.1702 392.757 22.1735C392.316 22.1896 391.876 22.2072 391.435 22.2249C390.994 22.2426 390.547 22.2526 390.113 22.2795C389.579 22.3126 389.324 22.2132 388.949 22.1678C388.401 22.1887 387.84 22.202 387.3 22.2352C386.886 22.2605 386.691 22.1932 386.417 22.1583C386.323 22.1462 386.223 22.1203 386.136 22.1235C385.141 22.159 384.146 22.1976 383.158 22.2408C382.917 22.2505 382.757 22.2384 382.556 22.2019C382.107 22.1197 382.087 22.1229 381.34 22.1549C381.012 22.1693 380.698 22.1821 380.417 22.1196C380.169 22.0632 379.868 22.0499 379.515 22.0689C379.081 22.0927 378.633 22.1058 378.193 22.1219C377.752 22.1396 377.311 22.1634 376.87 22.1718C376.516 22.1801 376.302 22.1083 376.021 22.0719C375.934 22.0613 375.813 22.06 375.713 22.0632C375.273 22.0778 374.818 22.0894 374.391 22.1162C373.871 22.1494 373.582 22.0654 373.214 22.0169C373.134 22.0063 373 22.0127 372.9 22.0174C372.125 22.0464 371.358 22.0785 370.583 22.109C370.309 22.068 370.027 22.0286 369.753 21.9876C369.312 22.0037 368.872 22.0214 368.431 22.0375C368.097 22.0504 367.756 22.0556 367.443 22.0791C367.036 22.1106 366.834 22.0387 366.56 22.0039C366.466 21.9917 366.366 21.9658 366.279 21.969C365.725 21.9869 365.17 22.0063 364.623 22.0334C364.102 22.0604 363.893 21.9225 363.466 21.9247C363.025 21.927 362.571 21.9478 362.144 21.9762C361.65 22.0093 361.302 21.9608 360.947 21.8953C360.873 21.8816 360.746 21.8742 360.653 21.8774C360.098 21.8968 359.551 21.9208 358.997 21.9402C358.903 21.9434 358.79 21.9359 358.696 21.9269C357.639 21.8381 357.639 21.8365 357.179 21.8558C356.851 21.8686 356.517 21.8846 356.184 21.8928C356.09 21.8961 355.976 21.8824 355.889 21.8703C355.193 21.7778 355.193 21.7763 354.692 21.7956C354.252 21.8132 353.811 21.8309 353.37 21.8486C353.096 21.8075 352.815 21.7681 352.54 21.7271C351.993 21.748 351.432 21.7643 350.891 21.7929C350.637 21.8057 350.47 21.8014 350.276 21.7633C350.035 21.7176 349.794 21.6643 349.393 21.6911C348.966 21.7195 348.512 21.7233 348.078 21.7471C347.557 21.7757 347.342 21.6363 346.921 21.6385C346.48 21.6408 346.026 21.6616 345.599 21.69C345.105 21.7231 344.757 21.6746 344.402 21.6091C344.328 21.5954 344.201 21.5879 344.108 21.5912C342.892 21.6378 341.684 21.6845 340.469 21.7342C339.721 21.7647 339.721 21.7663 338.297 21.6842C338.196 21.6783 338.089 21.6723 337.989 21.6756C337.548 21.6901 337.094 21.7017 336.667 21.7285C336.146 21.7617 335.858 21.6792 335.49 21.6292C335.41 21.6186 335.283 21.6249 335.176 21.6282C334.842 21.6395 334.515 21.6539 334.181 21.6668C333.74 21.6845 333.3 21.7021 332.859 21.7198C332.585 21.6803 332.304 21.6393 332.029 21.5999C331.482 21.6208 330.921 21.6325 330.38 21.6657C329.966 21.691 329.771 21.6268 329.497 21.5904C329.403 21.5783 329.303 21.5524 329.216 21.5541C328.221 21.5896 327.226 21.6266 326.238 21.6714C325.831 21.6905 325.643 21.6217 325.368 21.5868C325.275 21.5762 325.168 21.5565 325.081 21.5597C324.42 21.5824 323.759 21.6096 323.098 21.6369C322.724 21.6529 322.724 21.6529 321.907 21.5591C321.814 21.5485 321.707 21.5379 321.613 21.5411C319.517 21.6216 317.426 21.7066 315.33 21.7871C315.116 21.7952 314.922 21.7725 314.755 21.7313C314.58 21.6901 314.386 21.6689 314.173 21.677C313.291 21.7108 312.403 21.7415 311.528 21.783C311.168 21.8005 310.88 21.781 310.632 21.7277C310.445 21.688 310.271 21.673 310.037 21.6826C309.597 21.7018 309.156 21.7179 308.715 21.7356C308.274 21.7533 307.834 21.7709 307.393 21.7886C306.952 21.8063 306.505 21.8163 306.071 21.8431C305.537 21.8763 305.275 21.7815 304.907 21.7345C304.246 21.7587 303.585 21.7829 302.93 21.8086C302.049 21.8424 301.168 21.8793 300.286 21.9116C300.206 21.9148 300.106 21.8873 300.012 21.8736C299.738 21.8357 299.536 21.7823 299.129 21.7999C297.153 21.8847 295.163 21.9573 293.18 22.0407C292.766 22.0583 292.584 21.9925 292.303 21.9577C292.21 21.9471 292.103 21.9258 292.016 21.929C290.914 21.9693 289.812 22.0142 288.71 22.0576C288.263 22.0753 288.263 22.0753 287.514 21.9814C287.427 21.9708 287.313 21.9571 287.219 21.9604C285.784 22.0151 284.355 22.0729 282.919 22.1291C282.705 22.1372 282.511 22.116 282.337 22.0749C282.17 22.0337 281.969 22.011 281.762 22.019C280.44 22.0705 279.111 22.1204 277.796 22.1765C277.442 22.1924 277.148 22.1791 276.893 22.1243C276.712 22.0846 276.532 22.068 276.305 22.0776C274.321 22.1564 272.338 22.232 270.355 22.3154C269.974 22.3314 269.707 22.3027 269.466 22.2524C269.271 22.2128 269.104 22.2054 268.864 22.2119C268.61 22.2201 268.457 22.2372 268.317 22.2836C268.137 22.3438 268.025 22.4193 267.597 22.4246C267.156 22.43 266.709 22.4492 266.275 22.4761C265.861 22.5029 265.667 22.4341 265.405 22.3931C265.211 22.3642 265.031 22.3599 264.784 22.3742C264.557 22.3869 264.417 22.4132 264.284 22.4626C263.991 22.5676 263.965 22.5677 263.603 22.5022C263.409 22.4672 263.235 22.4399 263.021 22.4464C262.14 22.4786 261.258 22.514 260.377 22.5508C259.869 22.5717 259.863 22.5748 259.481 22.4986C259.294 22.4605 259.113 22.4424 258.892 22.452C256.469 22.5484 254.045 22.6417 251.621 22.7427C251.247 22.7587 250.993 22.7269 250.725 22.6813C250.638 22.6661 250.551 22.6447 250.45 22.6387C250.35 22.6328 250.237 22.6391 250.13 22.6424C248.367 22.7115 246.597 22.7776 244.841 22.8544C244.441 22.872 244.226 22.8232 243.952 22.7837C243.858 22.77 243.778 22.7487 243.677 22.7427C243.577 22.7383 243.457 22.7492 243.35 22.754C241.587 22.8231 239.818 22.8892 238.062 22.966C237.641 22.9836 237.46 22.9194 237.185 22.8861C237.092 22.874 236.991 22.8511 236.905 22.8543C236.35 22.8722 235.803 22.8962 235.249 22.9171C233.926 22.9701 232.604 23.02 231.282 23.0746C230.775 23.0954 230.552 22.9591 230.125 22.966C229.571 22.9746 229.023 23.0063 228.469 23.0287C228.028 23.0464 227.587 23.0626 227.147 23.0818C226.713 23.0994 226.713 23.0994 225.629 23.0122C225.536 23.0046 225.422 22.9941 225.329 22.9973C223.786 23.0569 222.237 23.1164 220.701 23.1805C220.347 23.195 220.053 23.1878 219.799 23.1314C219.618 23.0918 219.431 23.0721 219.21 23.0817C216.893 23.1733 214.583 23.2649 212.265 23.3549C212.179 23.3582 212.065 23.343 211.978 23.3309C211.791 23.3035 211.61 23.2716 211.429 23.2427C211.296 23.2783 211.123 23.3108 211.036 23.3509C210.917 23.4049 210.756 23.4206 210.503 23.4302C210.249 23.4399 210.089 23.4371 209.888 23.3975C209.647 23.3487 209.399 23.3107 209.005 23.3268C206.581 23.4278 204.157 23.5196 201.733 23.619C201.333 23.6351 201.145 23.5678 200.864 23.533C200.77 23.5224 200.663 23.5057 200.576 23.5089C199.581 23.546 198.593 23.5861 197.598 23.6247C194.84 23.734 192.082 23.8386 189.331 23.954C188.831 23.9748 188.489 23.937 188.134 23.8716C188.061 23.8579 187.934 23.8504 187.84 23.8537C183.981 24.0048 180.121 24.1574 176.268 24.3101C176.061 24.3181 175.86 24.2939 175.693 24.2542C175.519 24.213 175.325 24.1934 175.111 24.2015C173.348 24.2706 171.585 24.3397 169.823 24.4104C169.382 24.428 169.375 24.4296 168.92 24.3566C168.826 24.3414 168.726 24.3124 168.652 24.3156C168.499 24.3236 168.352 24.3622 168.246 24.4146C168.14 24.4701 167.973 24.4858 167.726 24.497C167.472 24.5082 167.305 24.5038 167.111 24.4673C166.863 24.4217 166.635 24.3775 166.235 24.3936C161.167 24.599 156.098 24.7968 151.03 25.0007C150.623 25.0168 150.435 24.9526 150.154 24.9177C150.06 24.9071 149.967 24.8919 149.866 24.889C149.759 24.8861 149.646 24.8956 149.539 24.9003C141.272 25.2266 133.006 25.5543 124.739 25.8806C124.245 25.8999 124.252 25.8999 123.712 26.0421C123.646 26.0592 123.559 26.0823 123.465 26.0856C120.935 26.1883 118.397 26.288 115.86 26.3876C114.758 26.431 113.656 26.4759 112.554 26.5178C112.161 26.5323 112.161 26.5323 111.221 26.6999C111.141 26.7138 111.047 26.7324 110.954 26.7357C106.547 26.9108 102.139 27.0859 97.7255 27.258C97.3783 27.2709 97.0981 27.299 96.9386 27.373C96.8257 27.4254 96.6791 27.4564 96.4588 27.466C93.3738 27.5881 90.2889 27.7118 87.1972 27.8309C86.8299 27.8453 86.6099 27.8887 86.4303 27.9536C86.3704 27.9752 86.3172 27.9998 86.2306 28.0154C86.1506 28.0293 86.0304 28.0341 85.9303 28.0389C83.286 28.1434 80.6418 28.2509 77.9908 28.3508C77.5968 28.3653 77.4371 28.4224 77.2441 28.4826C77.1775 28.5027 77.131 28.5305 77.0444 28.5445C76.9577 28.5569 76.8308 28.5571 76.7239 28.5604C74.5203 28.6472 72.3168 28.7355 70.1133 28.8223C69.6856 28.8153 69.5931 28.9046 69.3867 28.9587C69.3134 28.9773 69.2604 29.002 69.1737 29.0144C69.0803 29.0269 68.9599 29.0255 68.8463 29.0288C67.0835 29.0979 65.3207 29.1717 63.5511 29.2362C63.1438 29.2507 63.0645 29.3292 62.8447 29.3834C62.7714 29.4004 62.6984 29.4266 62.6116 29.4314C61.5098 29.4779 60.4081 29.5212 59.3063 29.5631C58.939 29.5776 58.939 29.576 58.2928 29.7293C58.2195 29.7463 58.1328 29.7649 58.0393 29.7697C56.39 29.837 54.734 29.9014 53.078 29.9672C52.8643 29.9753 52.7179 30.0124 52.6116 30.0648C52.5054 30.1173 52.3521 30.1513 52.1385 30.1594C50.8163 30.2124 49.4941 30.2669 48.1719 30.3153C47.8046 30.3282 47.5646 30.367 47.4051 30.4364C47.2855 30.4889 47.1389 30.5153 46.9052 30.5249C45.583 30.5763 44.261 30.6324 42.932 30.6777C42.5447 30.6907 42.3449 30.7433 42.1853 30.8081C42.059 30.8605 41.9123 30.8792 41.6652 30.8889C39.2412 30.9822 36.8107 31.0755 34.3935 31.178C33.9862 31.1956 33.7784 31.1422 33.5107 31.1043C33.1292 31.0512 32.7746 30.9934 32.7731 30.8736C32.7729 30.8552 32.659 30.8338 32.5787 30.8186C31.9827 30.7044 31.9827 30.7044 31.8877 30.5817C31.8333 30.5065 31.7722 30.4298 31.7245 30.3531C31.6362 30.2272 31.4219 30.1954 30.8076 30.2195C30.5872 30.2275 30.3669 30.2387 30.1465 30.2452C29.8193 30.2565 29.5715 30.2062 29.5103 30.1142C29.4763 30.0635 29.4356 30.0129 29.4016 29.9623C29.7355 29.9494 29.7287 29.9479 30.3143 29.761C30.5605 29.6822 30.5607 29.6822 30.0854 29.6046C29.9046 29.5758 29.7305 29.5438 29.5364 29.5165C29.4494 29.5043 29.3358 29.4969 29.2423 29.5001C28.6881 29.5195 28.1405 29.542 27.593 29.5644C26.7116 29.5997 26.7115 29.5997 25.8144 29.4446C25.7407 29.4324 25.6269 29.4096 25.6401 29.3973C25.7129 29.3403 25.8929 29.3154 26.12 29.3089C26.4539 29.2991 26.7811 29.2831 27.1083 29.2703C27.3286 29.2622 27.549 29.2526 27.7693 29.2446C27.9757 29.1858 28.1889 29.1286 28.3819 29.0684C28.6881 28.9756 28.688 28.9726 28.2663 28.9088C27.9986 28.8662 27.7108 28.8283 27.4364 28.7888C27.1092 28.8017 26.7754 28.8161 26.4482 28.8274C26.0341 28.842 25.8668 28.8131 25.7587 28.7134C25.6641 28.626 25.7767 28.5505 26.0972 28.5315C26.4243 28.5125 26.7316 28.4997 26.8976 28.4211C27.0571 28.3455 27.3372 28.3158 27.6845 28.3091C27.9049 28.3041 28.1253 28.293 28.3456 28.2834C28.6327 28.2706 28.7855 28.1919 28.7243 28.1045C28.6902 28.0477 28.6228 28.0002 28.3621 27.9883C27.2057 27.9366 27.1923 27.9381 26.6165 27.8347C26.5629 27.8255 26.5226 27.798 26.5425 27.7841C26.5756 27.761 26.6487 27.7271 26.7288 27.7223C27.4967 27.6872 28.2645 27.6551 29.0325 27.6308C29.2863 27.6226 29.4732 27.6115 29.5594 27.5545C29.6787 27.476 29.6243 27.4039 29.3899 27.3505C29.3162 27.3337 29.1956 27.3124 29.1154 27.3141C28.2339 27.3433 27.3592 27.3802 26.4777 27.4093C26.3976 27.4126 26.2504 27.3867 26.2167 27.3668C26.1495 27.33 26.249 27.2807 26.4826 27.2634C26.7897 27.2398 27.1036 27.2377 27.3098 27.1605C27.5957 27.051 27.9485 26.9505 28.2679 26.8455C28.3211 26.827 28.4077 26.7915 28.3876 26.7884C28.2202 26.7549 28.0261 26.7291 27.852 26.6972C27.5574 26.6439 27.5564 26.5686 27.6224 26.4963C27.6751 26.4378 27.8752 26.4144 28.1224 26.414C28.2293 26.4138 28.3629 26.4136 28.4496 26.3996C28.6763 26.3654 28.7493 26.3223 28.6353 26.2902C28.5683 26.2719 28.4478 26.246 28.3677 26.2492C26.9386 26.3024 25.5028 26.354 24.0806 26.4195C23.66 26.4387 23.4656 26.3806 23.2113 26.3396C23.0172 26.3077 22.8365 26.2957 22.5963 26.3191C22.3694 26.341 22.1489 26.3291 22.008 26.2787C21.8939 26.2374 22.0939 26.2017 22.6345 26.1608C22.7346 26.153 22.8481 26.1482 22.9214 26.1327C23.6943 25.9654 23.6943 25.9639 24.2284 25.9414C24.7493 25.9206 24.7494 25.919 25.0222 25.8295C25.1486 25.7878 25.2883 25.746 25.408 25.7028C25.4546 25.6858 25.5345 25.655 25.5076 25.6458C25.3601 25.5984 25.1595 25.588 24.9258 25.5992C24.405 25.6262 23.7902 25.6058 23.5181 25.7522C23.4119 25.8077 23.245 25.8233 23.0047 25.833C20.5874 25.9263 18.1701 26.0257 15.7461 26.116C15.3521 26.1305 15.1725 26.1876 15.0197 26.2509C14.8867 26.3033 14.7399 26.319 14.4861 26.3286C14.2324 26.3383 14.0319 26.3432 13.8843 26.2928C13.7971 26.2622 13.8701 26.2191 14.07 26.1757C14.3565 26.1138 14.3021 26.037 14.2077 25.965C14.1403 25.9175 13.9328 25.8841 13.7124 25.8875C13.3851 25.8942 13.0714 25.9117 12.7967 25.8507C12.636 25.8156 12.4352 25.7914 12.2545 25.761C11.9063 25.6986 11.5581 25.6347 11.071 25.677C10.7367 25.6622 10.5022 25.6073 10.2345 25.5648C9.78604 25.4949 9.74583 25.4842 10.0656 25.4084C10.4253 25.3232 10.1433 25.2131 10.3427 25.1298C10.5554 25.0403 10.8485 24.9615 11.108 24.8781C11.1746 24.8564 11.2345 24.8363 11.301 24.8147C11.147 24.7843 11.0063 24.7461 10.8256 24.7249C10.5915 24.6977 10.4708 24.6641 10.483 24.5688C10.4361 24.5551 10.4564 24.5903 10.51 24.5995C10.5702 24.6086 10.7172 24.6007 10.7906 24.5898C10.9773 24.5603 11.0702 24.5217 11.0231 24.4895C10.9961 24.4727 10.869 24.4514 10.7889 24.4515C10.6419 24.4518 10.5154 24.4858 10.4763 24.5688C9.72887 24.6331 8.95418 24.6652 8.17953 24.6911C8.0994 24.6943 7.99888 24.6638 7.90516 24.6486C7.59722 24.5969 7.5972 24.5984 6.69514 24.5846C6.60159 24.5832 6.47446 24.5619 6.42744 24.5405C6.23256 24.4471 6.23804 24.3442 6.1433 24.2445C6.3162 24.1797 6.489 24.1164 6.6686 24.0531C7.0278 23.9249 7.49418 23.812 7.77306 23.6717C7.71202 23.5965 7.63092 23.5214 7.92412 23.4594C8.75826 23.3811 8.75163 23.3811 8.97787 23.307C9.62334 23.097 10.2621 22.8854 10.9343 22.6783C11.114 22.6242 11.1137 22.5951 10.7927 22.5726C10.6925 22.5666 10.5854 22.5652 10.4786 22.5685C10.1447 22.5798 9.81098 22.6081 9.48356 22.6025C9.15615 22.5984 8.91483 22.5313 8.6471 22.4902C8.37268 22.4477 8.09824 22.4036 7.8238 22.3596C7.50987 22.3647 7.19646 22.4083 6.88164 22.3397C6.64048 22.2863 6.33941 22.2484 6.06496 22.2044C6.27064 22.0872 6.65709 21.9975 6.95646 21.894C7.22922 21.7998 7.23577 21.8014 7.96975 21.7279C8.31673 21.6935 8.43487 21.5197 8.14031 21.4695C7.78549 21.4086 7.41077 21.3524 7.04931 21.2947C6.73538 21.2998 6.41528 21.3419 6.11381 21.2733C5.87936 21.2214 5.61165 21.1866 5.22442 21.2072C4.57014 21.2421 3.90231 21.2602 3.24127 21.289C3.01424 21.2986 2.76692 21.2929 2.66607 21.2409C2.59882 21.2041 2.79195 21.1531 3.01228 21.1419C3.34612 21.126 3.64649 21.107 3.81256 21.0299C3.97196 20.9528 4.26559 20.9293 4.61285 20.9179C4.70634 20.9147 4.81309 20.896 4.85963 20.8775C5.09904 20.788 5.36535 20.7107 5.87979 20.7129C6.09319 20.6818 6.20622 20.6432 6.13897 20.6064C6.09864 20.5865 5.9581 20.5607 5.87797 20.5639C5.32368 20.5802 4.7694 20.5966 4.22861 20.6251C3.97489 20.6379 3.78109 20.6413 3.6202 20.5955C3.50625 20.5649 3.56587 20.5233 3.7791 20.4784C3.96569 20.4397 4.01865 20.395 4.00465 20.3428C3.96977 20.2215 3.76889 20.1865 3.12765 20.1953C2.66676 20.2023 2.55294 20.1825 2.45146 20.0782C2.42444 20.0537 2.35734 20.02 2.4039 20.003C2.68989 19.898 2.87539 19.7687 3.41592 19.7186C3.62947 19.6998 3.85652 19.6994 3.98964 19.6592C4.12277 19.619 4.24252 19.5727 4.38234 19.5341C4.55548 19.4877 4.67508 19.4445 4.59456 19.4154C4.46032 19.3634 4.24655 19.3592 3.9996 19.378C3.78601 19.3938 3.55889 19.3957 3.33855 19.4053C2.9446 19.4229 2.62352 19.3835 2.57593 19.316C2.44683 19.138 2.31103 18.9616 2.19529 18.7835C2.18167 18.7621 2.21464 18.7343 2.26786 18.7158C2.45413 18.651 2.65388 18.5892 2.84685 18.5258C3.07311 18.4532 3.43409 18.4664 3.74122 18.4521C4.17522 18.4314 4.17509 18.4329 4.7545 18.2844C4.98093 18.2256 5.37538 18.248 5.60856 18.1953C5.68184 18.1783 5.79508 18.1505 5.77485 18.1351C5.74788 18.1152 5.61416 18.1001 5.51384 18.091C5.4202 18.082 5.3066 18.0776 5.20644 18.0823C3.99112 18.129 2.78256 18.1787 1.56722 18.2239C1.36021 18.2319 1.13266 18.1985 1.05859 18.151C0.984561 18.1066 1.00388 18.0528 0.989904 18.0021C1.18287 17.9388 1.40254 17.88 1.56873 17.8121C1.69502 17.7597 1.84174 17.7364 2.09556 17.7328C2.42954 17.7277 2.75669 17.7087 3.13064 17.6942C3.82268 17.4687 4.50119 17.2324 5.24669 17.0068C5.54621 16.9157 5.47172 16.8236 5.53066 16.7267C5.5897 16.6375 6.03744 16.6506 6.33775 16.6239C6.57799 16.602 6.65745 16.5527 6.56351 16.5191C6.50983 16.4992 6.38936 16.4764 6.29583 16.4765C6.07538 16.4769 5.85509 16.4911 5.63473 16.4992C5.41436 16.5072 5.16046 16.5031 4.9804 16.5295C4.807 16.5544 4.69401 16.6068 4.58098 16.6516C4.45465 16.7009 4.28796 16.7181 4.03413 16.7217C3.70682 16.7253 3.37966 16.7397 3.05244 16.751C2.69097 16.6917 2.31606 16.634 1.96791 16.5716C1.90095 16.5594 1.88709 16.5241 1.89349 16.5011C1.90612 16.4411 1.80549 16.4044 1.58468 16.3756C1.39732 16.3514 1.24323 16.3163 1.06916 16.2859C1.20226 16.2442 1.3488 16.204 1.45515 16.1592C1.68783 16.0651 1.98098 15.997 2.48874 15.9992C2.68843 15.9389 2.84782 15.8649 3.10786 15.823C3.35455 15.7826 3.77593 15.8218 3.96188 15.7308C4.05487 15.6861 4.19462 15.6352 4.37477 15.6164C4.66168 15.5867 5.03597 15.6015 5.20194 15.5152C5.30155 15.4658 5.44792 15.421 5.64151 15.4084C5.8618 15.3942 6.08884 15.3907 6.24882 15.3612C6.33548 15.3457 6.42872 15.321 6.42846 15.2995C6.42829 15.2856 6.29452 15.2644 6.20088 15.2553C6.11391 15.2447 6.00011 15.2372 5.89994 15.2405C5.56603 15.2503 5.23889 15.2677 4.90497 15.2775C4.81148 15.2808 4.7045 15.2702 4.60418 15.2612C4.30993 15.2371 4.32956 15.2063 4.56271 15.1506C4.79587 15.0964 4.96214 15.027 5.1551 14.9637C5.36875 14.9526 5.63599 14.9567 5.78261 14.9273C6.02921 14.8792 6.20202 14.8098 6.4017 14.7495C6.62205 14.7399 6.84914 14.7364 7.05603 14.7192C7.1428 14.7129 7.18251 14.679 7.25575 14.6589C7.3889 14.6203 7.50188 14.5648 7.68203 14.546C7.97564 14.5179 8.33652 14.528 8.50918 14.4432C8.60879 14.3938 8.76175 14.3414 8.94877 14.338C9.46978 14.3309 9.68921 14.246 9.95546 14.1657C10.1552 14.1054 10.5831 14.1354 10.8028 14.0751C10.9493 14.0364 11.0557 13.9886 11.2022 13.9515C11.2622 13.936 11.389 13.9281 11.4891 13.9233C12.0366 13.8993 12.5909 13.8815 13.1384 13.8559C13.2252 13.8512 13.3051 13.828 13.3717 13.8095C13.5115 13.7693 13.5976 13.7138 13.771 13.6874C13.9444 13.661 14.1915 13.6605 14.4052 13.6525C15.093 13.6283 15.1466 13.6343 15.459 13.5032C15.7116 13.3967 16.3338 13.4709 16.5395 13.3538C16.6589 13.286 16.8786 13.2303 17.2727 13.2219C17.827 13.2102 18.3745 13.1801 18.9287 13.1592C19.4229 13.1399 19.4162 13.1399 19.9489 12.9961C20.1886 12.9311 20.5429 12.9397 20.8567 12.9269C21.1906 12.914 21.4976 12.8951 21.657 12.818C21.8165 12.7424 22.1101 12.7173 22.4506 12.706C22.7645 12.6947 23.1187 12.7017 23.3652 12.6399C23.9646 12.4913 23.9579 12.4898 24.3786 12.4737C25.0397 12.448 25.7008 12.4222 26.3618 12.395C26.8025 12.3773 27.2634 12.3734 27.6772 12.3389C27.9775 12.3138 28.1101 12.2276 28.3031 12.1673C28.8506 12.1433 29.3981 12.1193 29.9456 12.0968C30.7135 12.0648 31.4881 12.0358 32.2627 12.0053C32.596 11.9463 32.6413 11.8172 33.2024 11.81C33.5364 11.8064 33.8635 11.7859 34.1974 11.773C34.7516 11.7505 35.2991 11.7219 35.8534 11.7102C36.2742 11.7018 36.3466 11.6187 36.5664 11.5661C36.6396 11.5475 36.7062 11.5213 36.793 11.5165C37.6609 11.472 38.556 11.4612 39.4036 11.3968C39.4904 11.3905 39.5702 11.3581 39.59 11.335C39.6032 11.3227 39.4893 11.2998 39.4157 11.2892C39.3287 11.2771 39.215 11.265 39.1215 11.2682C36.3637 11.3759 33.606 11.4852 30.8482 11.5929C30.4609 11.6089 30.4609 11.6074 29.521 11.778C29.441 11.792 29.3475 11.8075 29.2474 11.8123C28.8067 11.8315 28.3592 11.843 27.9253 11.8668C27.5714 11.8859 27.2773 11.868 27.0228 11.8131C26.8419 11.7735 26.6546 11.7615 26.4275 11.765C26.1737 11.77 26.007 11.7872 25.8606 11.8289C25.6675 11.8861 25.5682 11.96 25.1608 11.9761C23.2844 12.0454 21.408 12.1224 19.5383 12.1963C19.2775 12.1753 19.1502 12.1433 19.2165 12.1047C19.2563 12.0816 19.3361 12.0508 19.4162 12.0475C20.1841 12.0139 20.9587 11.985 21.7266 11.9529C21.8334 11.9481 21.9804 11.9509 22.0404 11.9354C22.3335 11.8658 22.4391 11.7535 22.9935 11.7448C23.3141 11.7396 23.6411 11.716 23.9482 11.694C24.0349 11.6877 24.1147 11.6553 24.1345 11.6322C24.141 11.6199 24.0338 11.597 23.9535 11.5864C23.6591 11.5424 23.3191 11.5968 23.0248 11.5666C22.9244 11.556 22.7838 11.5408 22.7636 11.5224C22.75 11.5056 22.8633 11.4777 22.9432 11.4607C23.0165 11.4452 23.1165 11.4312 23.2167 11.4264C24.0981 11.3895 24.9796 11.3511 25.8611 11.322C26.2217 11.3106 26.475 11.2717 26.6345 11.2008C26.7541 11.1483 26.9007 11.1204 27.1278 11.1124C28.6703 11.0528 30.2127 10.9872 31.762 10.9322C32.1493 10.9193 32.3492 10.8682 32.5087 10.8019C32.635 10.7494 32.7818 10.7307 33.0288 10.7211C35.2391 10.6374 37.4359 10.5444 39.6462 10.4638C40.0536 10.4493 40.1731 10.383 40.3795 10.3258C40.4527 10.3057 40.4991 10.281 40.5924 10.2686C40.6858 10.2561 40.8061 10.2574 40.9196 10.2542C42.6825 10.185 44.4454 10.1113 46.215 10.0468C46.629 10.0322 46.7081 9.95528 46.9213 9.90114C46.9946 9.88411 47.0611 9.85635 47.1479 9.85159C48.47 9.79706 49.7921 9.7456 51.1142 9.69261C51.9957 9.65728 52.8771 9.62194 53.7585 9.58815C54.1925 9.57203 54.1925 9.57049 54.7787 9.42352C54.8453 9.4065 54.9386 9.38637 55.0254 9.38161C57.5628 9.27887 60.0935 9.18078 62.631 9.07959C62.8447 9.07153 62.9979 9.03591 63.1041 8.98349C63.2104 8.93107 63.3637 8.89547 63.5707 8.88743C65.5539 8.80717 67.5371 8.72845 69.527 8.65279C69.8876 8.63987 70.141 8.60256 70.3005 8.53315C70.4201 8.4807 70.5667 8.4528 70.7937 8.44473C72.777 8.36754 74.7603 8.28573 76.7502 8.2116C77.1308 8.19711 77.3172 8.14456 77.5035 8.08278C77.57 8.06116 77.6231 8.02573 77.7032 8.02252C78.6914 7.97779 79.6729 7.93153 80.6679 7.90061C81.082 7.8876 81.2215 7.82283 81.3878 7.76108C81.5208 7.71169 81.6743 7.69453 81.9281 7.68794C82.4824 7.67315 83.0298 7.64609 83.5707 7.61904C83.6508 7.61429 83.7506 7.58031 83.757 7.55879C83.7699 7.51883 83.6158 7.49144 83.3618 7.47805C80.7175 7.58251 78.0666 7.68696 75.4223 7.79142C74.9883 7.80907 74.9883 7.80908 74.4022 7.95605C74.3356 7.97306 74.2422 7.9932 74.1487 7.99797C71.6113 8.09917 69.0806 8.19882 66.5431 8.30001C66.3295 8.30807 66.1763 8.34367 66.07 8.39609C65.9638 8.44851 65.8104 8.48411 65.6034 8.49215C63.1795 8.58854 60.7556 8.68647 58.325 8.77826C57.9644 8.79118 57.711 8.82694 57.5515 8.89788C57.4319 8.95033 57.2853 8.97825 57.0582 8.98632C54.7411 9.07638 52.4307 9.17103 50.1068 9.25803C49.8731 9.26611 49.699 9.22186 49.7118 9.18036C49.7183 9.15884 49.8179 9.12335 49.898 9.12013C51.1066 9.06734 52.3086 9.01301 53.524 8.97249C53.9313 8.95949 54.0507 8.89168 54.2571 8.83448C54.3236 8.81439 54.3768 8.78818 54.4635 8.77728C54.5569 8.76482 54.6771 8.76616 54.7907 8.76289C57.6553 8.64883 60.52 8.53324 63.3914 8.42532C63.8054 8.40924 63.8845 8.33381 64.0977 8.27967C64.1709 8.26111 64.2374 8.23335 64.3243 8.23012C65.2056 8.19172 66.0871 8.15792 66.9685 8.12413C68.511 8.06307 70.0535 8.00201 71.6026 7.94094C72.05 7.92326 72.05 7.92325 72.6228 7.77784C72.6894 7.76083 72.7828 7.73917 72.8696 7.73595C76.9495 7.57369 81.0295 7.41144 85.1095 7.25072C85.3231 7.24267 85.4763 7.20706 85.5826 7.15464C85.6889 7.10376 85.842 7.06662 86.049 7.05704C91.5646 6.83852 97.0735 6.62001 102.589 6.40456C102.95 6.39011 103.203 6.3574 103.363 6.28492C103.476 6.23248 103.629 6.20457 103.856 6.19496C109.919 5.95552 115.982 5.71608 122.052 5.47508C126.132 5.31437 130.212 5.15057 134.292 4.99293C134.666 4.97845 134.866 4.93047 135.052 4.86716C135.112 4.84554 135.172 4.8101 135.252 4.80689C136.126 4.76696 137.001 4.73011 137.876 4.69326C138.15 4.73426 138.425 4.77374 138.699 4.81474C138.905 4.756 139.105 4.69574 139.312 4.637C140.634 4.59015 141.936 4.51875 143.271 4.49492C143.358 4.49324 143.452 4.52227 143.546 4.53747C144.168 4.63318 144.522 4.62488 144.915 4.49514C145.055 4.44881 145.174 4.40712 145.388 4.39907C146.049 4.37027 146.717 4.35067 147.371 4.31727C147.725 4.29976 148.019 4.31461 148.274 4.36947C148.455 4.4091 148.642 4.42569 148.862 4.41609C150.078 4.36789 151.286 4.32123 152.501 4.26995C152.588 4.26673 152.668 4.24047 152.735 4.22191C152.874 4.18173 152.994 4.13851 153.127 4.0968C153.308 4.1226 153.509 4.14223 153.656 4.17577C153.844 4.21539 154.017 4.21508 154.271 4.20389C159.119 4.00957 163.973 3.81986 168.821 3.624C169.235 3.60792 169.416 3.67214 169.697 3.70545C169.791 3.71758 169.885 3.73277 169.985 3.73567C170.092 3.73856 170.205 3.72915 170.312 3.72436C173.951 3.57977 177.591 3.4367 181.23 3.29211C181.711 3.27284 181.711 3.27284 182.427 3.36685C182.514 3.37899 182.627 3.39262 182.721 3.38785C184.377 3.32506 186.033 3.25766 187.682 3.19334C187.896 3.18529 188.077 3.20955 188.271 3.24455C188.652 3.31302 188.679 3.31298 188.958 3.2111C189.091 3.16324 189.231 3.1338 189.452 3.11959C189.692 3.10381 189.886 3.10809 190.073 3.13542C190.341 3.17337 190.536 3.23755 190.943 3.21994C192.706 3.14467 194.475 3.08168 196.231 3.00489C196.632 2.9873 196.846 3.03915 197.114 3.0771C197.208 3.09076 197.295 3.11212 197.395 3.11656C197.495 3.12099 197.615 3.11002 197.722 3.10522C199.926 3.01843 202.136 2.93319 204.333 2.84026C204.747 2.82264 204.928 2.88838 205.209 2.92169C205.303 2.93382 205.41 2.95515 205.497 2.95193C206.819 2.90201 208.148 2.84899 209.47 2.79599C209.944 2.77673 209.944 2.77827 210.667 2.87073C210.754 2.88287 210.867 2.89496 210.961 2.89173C212.503 2.83221 214.053 2.77113 215.595 2.71007C216.069 2.69081 216.069 2.69082 217.44 2.76833C217.54 2.7743 217.647 2.78334 217.747 2.7801C219.51 2.71097 221.279 2.64336 223.042 2.56963C223.396 2.55519 223.69 2.56697 223.945 2.62183C224.126 2.66146 224.313 2.67805 224.533 2.66845C226.516 2.58972 228.507 2.51406 230.483 2.43074C230.864 2.41471 231.111 2.44807 231.379 2.49216C231.466 2.50737 231.553 2.52873 231.653 2.5347C231.754 2.54068 231.867 2.53433 231.974 2.52953C233.957 2.45081 235.947 2.37669 237.924 2.29183C238.324 2.27423 238.539 2.32609 238.806 2.36403C238.9 2.3777 239 2.40518 239.081 2.4035C239.855 2.37604 240.63 2.35166 241.398 2.31192C241.812 2.28969 241.993 2.36003 242.274 2.39335C242.368 2.40394 242.475 2.42681 242.561 2.42358C244.218 2.36079 245.874 2.29493 247.523 2.22754C247.757 2.21792 247.93 2.23143 248.118 2.27105C248.366 2.32439 248.653 2.3454 249.014 2.32787C249.782 2.2912 250.556 2.26528 251.331 2.23475C251.785 2.21706 251.785 2.21706 253.176 2.29454C253.276 2.30051 253.383 2.30954 253.483 2.30629C254.805 2.25483 256.134 2.2049 257.449 2.14884C257.803 2.13287 258.098 2.14618 258.352 2.20104C258.533 2.24067 258.713 2.25727 258.94 2.24766C260.156 2.19946 261.365 2.15126 262.58 2.10306C263.021 2.0854 263.461 2.05544 263.902 2.05467C264.223 2.05565 264.457 2.12898 264.745 2.16535C264.825 2.17597 264.959 2.16346 265.066 2.1602C266.608 2.09914 268.157 2.04268 269.693 1.97395C270.094 1.95635 270.308 2.00821 270.576 2.04615C270.67 2.05982 270.77 2.0873 270.85 2.08562C271.405 2.06776 271.952 2.04376 272.506 2.02283C273.167 1.9971 273.835 1.9775 274.489 1.94257C275.024 1.91399 275.226 2.04729 275.653 2.05116C275.981 2.0552 276.314 2.02851 276.641 2.01565C277.303 1.98992 277.964 1.96112 278.625 1.93846C278.858 1.93037 279.039 1.90547 279.111 1.85004C279.125 1.83926 279.011 1.81642 278.937 1.80272C278.047 1.64756 278.047 1.64755 277.152 1.68291C276.598 1.70538 276.05 1.72784 275.496 1.74724C275.402 1.75048 275.295 1.73837 275.202 1.72932C274.934 1.70366 274.961 1.67289 275.187 1.61719C275.413 1.56149 275.586 1.4936 275.779 1.43027C276.054 1.46974 276.321 1.50921 276.596 1.54868C276.816 1.54061 277.037 1.53102 277.257 1.52296C278.359 1.4811 279.46 1.4377 280.562 1.39892C280.642 1.39571 280.743 1.42626 280.837 1.44146C281.104 1.48555 281.345 1.52353 281.733 1.50596C282.721 1.45969 283.716 1.4257 284.704 1.38557C285.138 1.36792 285.138 1.36792 285.901 1.46185C285.988 1.47245 286.102 1.48455 286.195 1.48131C287.19 1.44425 288.178 1.40413 289.173 1.36553C289.387 1.35748 289.594 1.37709 289.749 1.42137C289.809 1.4397 289.796 1.47045 290.053 1.72196C290.844 1.92492 291.385 1.90248 291.932 1.88309C292.166 1.87501 292.373 1.86696 292.526 1.83597C292.606 1.81893 292.706 1.79417 292.706 1.7742C292.705 1.75883 292.558 1.7345 292.465 1.73159C291.803 1.70202 291.176 1.76764 290.528 1.78259C290.227 1.78926 289.966 1.73594 289.912 1.64846C289.898 1.62391 289.878 1.59783 289.857 1.57328C289.837 1.54873 289.823 1.52264 289.803 1.4981C289.542 1.49087 289.389 1.51878 289.276 1.57121C289.183 1.61439 289.05 1.66379 288.87 1.68714C288.69 1.71204 288.443 1.70787 288.222 1.71593C288.009 1.72398 287.775 1.74436 287.574 1.73395C287.374 1.72201 287.213 1.67773 287.026 1.6504C286.939 1.63673 286.831 1.61695 286.745 1.62017C285.977 1.64762 285.215 1.67505 284.454 1.71017C284.054 1.7293 283.852 1.66514 283.598 1.62563C283.397 1.59526 283.197 1.60328 283.164 1.674C283.08 1.84315 283.388 1.91328 284.069 1.87983C284.63 1.85121 285.137 1.84573 285.58 1.94943C285.64 1.96315 285.78 1.96905 285.867 1.96583C286.415 1.94644 286.955 1.92246 287.503 1.90307C287.603 1.89982 287.71 1.90577 287.804 1.91176C289.168 1.99235 289.168 1.99389 289.628 1.97466C289.849 1.96506 290.062 1.957 290.039 1.72352C290.457 1.47237 291.125 1.45432 291.773 1.41632C292.193 1.39254 292.374 1.45983 292.649 1.49469C292.742 1.50682 292.843 1.53122 292.93 1.528C294.366 1.47481 295.795 1.41854 297.223 1.35922C297.464 1.34958 297.638 1.3585 297.825 1.39812C298.066 1.4484 298.334 1.48021 298.714 1.46111C299.476 1.42291 300.25 1.39853 301.025 1.36646C301.419 1.35041 301.419 1.35039 302.215 1.44426C302.302 1.45487 302.416 1.46696 302.509 1.46373C303.284 1.43626 304.052 1.40268 304.82 1.37369C305.033 1.36564 305.227 1.38681 305.395 1.428C305.562 1.46919 305.763 1.49034 305.97 1.4823C306.745 1.4533 307.513 1.42125 308.28 1.39227C308.374 1.38903 308.488 1.39959 308.575 1.41019C309.391 1.50402 309.391 1.50401 309.765 1.488C310.312 1.464 310.873 1.45228 311.414 1.42062C311.941 1.38898 312.216 1.4776 312.578 1.52613C313.566 1.48908 314.561 1.45817 315.543 1.41345C315.943 1.39432 316.158 1.44464 316.425 1.48412C316.519 1.49778 316.613 1.52681 316.7 1.52513C317.034 1.5184 317.361 1.50094 317.688 1.48808C318.015 1.47522 318.349 1.46235 318.676 1.44949C319.051 1.49339 319.299 1.59743 319.833 1.56117C320.154 1.5391 320.495 1.5339 320.822 1.52104C321.149 1.50818 321.483 1.49531 321.81 1.48246C322.03 1.47439 322.257 1.46938 322.471 1.45518C322.865 1.43145 323.06 1.50641 323.341 1.53972C323.434 1.55031 323.541 1.56855 323.628 1.56532C324.289 1.54267 324.957 1.52307 325.605 1.48661C326.105 1.45809 326.447 1.50359 326.802 1.5675C326.875 1.5812 327.002 1.58866 327.096 1.58543C327.87 1.55796 328.638 1.52436 329.406 1.49537C329.613 1.48733 329.814 1.51156 329.981 1.55121C330.156 1.59239 330.349 1.61204 330.563 1.60399C331.331 1.575 332.106 1.54292 332.874 1.51393C332.967 1.5107 333.081 1.52279 333.168 1.53493C333.917 1.62888 333.917 1.63042 334.358 1.61122C334.465 1.60643 334.578 1.60314 334.685 1.59835C335.233 1.57589 335.8 1.56723 336.334 1.52943C336.949 1.48689 337.397 1.53835 337.832 1.62516C338.38 1.60577 338.941 1.59404 339.475 1.56239C339.875 1.53865 340.09 1.59665 340.357 1.6346C340.451 1.64826 340.552 1.67574 340.632 1.67253C341.406 1.64507 342.181 1.62068 342.942 1.58095C343.356 1.55873 343.537 1.62753 343.818 1.66238C343.912 1.67451 344.012 1.69585 344.099 1.69263C344.54 1.67957 344.981 1.66036 345.422 1.6427C345.936 1.62183 345.936 1.62337 346.618 1.7159C346.939 1.7599 347.26 1.724 347.574 1.7127C347.908 1.69983 348.221 1.69007 348.489 1.7526C348.657 1.79225 348.858 1.81648 349.065 1.80998C349.505 1.79539 349.953 1.78079 350.387 1.75699C350.734 1.73795 351.035 1.74971 351.289 1.80612C351.47 1.84575 351.657 1.8654 351.878 1.8558C352.866 1.81722 353.861 1.77707 354.849 1.74001C354.936 1.73679 355.056 1.75041 355.137 1.7641C355.324 1.79143 355.505 1.82184 355.686 1.85225C356.12 1.83767 356.567 1.83076 356.994 1.80851C357.448 1.78621 357.863 1.77781 358.218 1.86169C358.291 1.88 358.399 1.90592 358.485 1.90423C358.819 1.8975 359.147 1.88158 359.474 1.86872C359.801 1.85586 360.135 1.84299 360.462 1.83013C360.843 1.86788 361.085 1.97807 361.619 1.94181C361.94 1.91974 362.28 1.91454 362.608 1.90168C362.935 1.88882 363.269 1.87442 363.596 1.8631C363.703 1.85984 363.823 1.85194 363.916 1.85793C364.017 1.8639 364.104 1.88526 364.191 1.90047C364.458 1.94456 364.706 1.98869 365.087 1.96191C365.407 1.93985 365.748 1.93464 366.075 1.92025C366.522 1.90257 366.522 1.90257 367.265 1.99807C367.566 2.0375 367.906 1.98467 368.194 2.01797C368.388 2.04068 368.555 2.07879 368.743 2.10458C368.823 2.1152 368.95 2.11958 369.044 2.11634C369.484 2.10175 369.932 2.08715 370.366 2.06335C370.72 2.0443 371.014 2.06223 371.262 2.1171C371.442 2.15673 371.623 2.17333 371.85 2.16372C372.952 2.11879 374.054 2.07999 375.149 2.03046C375.523 2.01291 375.823 2.03851 376.031 2.09346C376.387 2.1881 376.886 2.07508 377.255 2.15126C377.482 2.19849 377.71 2.2534 378.124 2.22964C378.885 2.18837 379.66 2.16551 380.428 2.13652C380.702 2.17752 380.977 2.21854 381.258 2.25953C381.698 2.24186 382.139 2.22419 382.58 2.20806C382.907 2.1952 383.241 2.1808 383.568 2.16947C383.675 2.16621 383.788 2.15987 383.889 2.16738C383.989 2.17489 384.07 2.19472 384.163 2.20992C384.625 2.2844 384.625 2.28594 385.386 2.2539C385.713 2.2395 386.027 2.22974 386.302 2.29071C386.557 2.34712 386.857 2.35734 387.204 2.33984C387.859 2.30798 388.52 2.28378 389.188 2.26112C389.395 2.25307 389.589 2.27886 389.763 2.3185C390.024 2.38103 390.345 2.37433 390.672 2.35687C391.106 2.3346 391.533 2.31236 391.902 2.39775C391.975 2.41606 392.089 2.44197 392.17 2.44029C392.717 2.42705 393.271 2.41687 393.806 2.38676C394.34 2.35664 394.601 2.45143 394.969 2.49688C395.517 2.47596 396.071 2.45502 396.619 2.4341C396.726 2.42931 396.852 2.41527 396.946 2.42279C397.34 2.45436 397.569 2.56919 398.11 2.53291C398.423 2.5124 398.764 2.50567 399.091 2.50049C399.178 2.4988 399.292 2.52471 399.353 2.54458C399.386 2.55527 399.353 2.58452 399.313 2.59995C399.193 2.64318 399.047 2.68339 398.94 2.72813C398.927 2.7343 399.054 2.76172 399.128 2.77388C399.309 2.80122 399.516 2.79626 399.756 2.78355C399.963 2.77244 400.177 2.79358 400.325 2.83941C400.385 2.85774 400.365 2.8885 400.24 2.99011C400.241 3.06539 400.381 3.03134 400.427 2.9821C400.499 2.9113 400.359 2.88851 400.092 2.92738C399.905 2.95535 399.812 2.99546 399.859 3.02765C399.886 3.0445 400.013 3.06579 400.24 2.99011C400.826 2.89692 401.267 2.87926 401.708 2.86159C401.822 2.85679 401.955 2.84118 402.035 2.85026C402.323 2.88663 402.591 2.93073 402.872 2.97172C403.192 2.96195 403.493 2.93837 403.807 2.99774C404.249 3.08147 404.269 3.07376 404.697 3.05612C404.917 3.04651 405.137 3.03846 405.358 3.0304C405.578 3.02234 405.752 3.04507 405.946 3.08007C406.341 3.15159 406.375 3.15153 406.634 3.05275C406.787 2.99257 406.893 2.97242 407.088 2.99973C407.73 3.09233 407.737 3.09846 408.284 3.06986C408.738 3.04602 409.166 3.03914 409.501 3.12613C409.729 3.18718 409.802 3.17323 409.982 3.10839C410.461 2.93703 410.681 2.93971 411.584 3.06105C412.006 3.1187 412.44 3.05496 412.867 3.04654C413.228 3.03977 413.482 3.07619 413.51 3.17293C413.531 3.23281 413.591 3.27573 413.832 3.29529C413.926 3.30281 414.039 3.31336 414.133 3.31012C414.687 3.29073 415.235 3.26826 415.789 3.24579C416.069 3.23455 416.222 3.16209 416.167 3.06693C416.106 2.96564 416.212 2.92857 416.613 2.89868C416.853 2.88137 417.047 2.88412 417.241 2.91143C417.455 2.94179 417.396 2.96955 417.209 3.02518C416.763 3.16115 416.818 3.244 417.393 3.33672C417.594 3.36863 417.755 3.39756 417.802 3.4451C417.829 3.46963 417.803 3.50194 417.863 3.52027C418.192 3.62264 418.647 3.68792 419.155 3.73619C419.642 3.69387 419.977 3.76241 420.352 3.81707C420.647 3.85957 420.993 3.82211 421.307 3.8062C421.661 3.78868 421.955 3.80046 422.21 3.85686C422.391 3.89649 422.578 3.9146 422.798 3.90653C423.239 3.88887 423.686 3.87734 424.12 3.85201C424.494 3.82985 424.775 3.86009 425.01 3.91192C425.304 3.97747 425.631 3.93234 425.939 3.94102C426.353 3.95106 426.562 4.08742 427.102 4.04961C427.423 4.02755 427.757 4.01929 428.091 4.01256C428.178 4.01088 428.285 4.03681 428.358 4.05512C428.714 4.139 429.128 4.13367 429.582 4.1083C429.895 4.09086 430.202 4.07497 430.511 4.13281C431.019 4.23026 431.582 4.31532 432.117 4.40503C432.192 4.47558 432.139 4.55861 432.52 4.59943C432.721 4.62059 432.909 4.65254 433.063 4.68761C433.25 4.72876 433.424 4.73922 433.664 4.72805C434.098 4.70579 434.553 4.70037 434.98 4.67198C435.374 4.64671 435.621 4.697 435.863 4.7442C436.057 4.78227 436.237 4.80039 436.471 4.77233C436.711 4.74579 436.885 4.76239 437.079 4.80353C437.354 4.8599 437.374 4.85373 438.283 4.86905C438.376 4.87042 438.49 4.89326 438.544 4.91313C438.57 4.92384 438.511 4.95469 438.464 4.97014C438.404 4.98867 438.311 5.01033 438.224 5.01509C437.236 5.05675 436.241 5.09382 435.253 5.13548C435.153 5.14026 435.046 5.15121 434.973 5.1667C434.893 5.18374 434.793 5.20694 434.793 5.22845C434.793 5.24382 434.927 5.26203 435.021 5.27262C435.315 5.30744 435.662 5.25307 435.949 5.29251C436.143 5.3183 436.304 5.35488 436.498 5.37912C436.579 5.38974 436.706 5.38799 436.806 5.38474C437.14 5.37341 437.467 5.35748 437.801 5.34768C437.894 5.34598 438.001 5.36117 438.088 5.37331C438.731 5.46437 438.731 5.46437 439.285 5.44343C439.505 5.43537 439.739 5.41191 439.946 5.42077C440.147 5.42964 440.321 5.47082 440.502 5.49662C440.876 5.55128 441.231 5.60443 441.259 5.72422C441.273 5.77029 441.494 5.80984 441.714 5.81253C441.928 5.81523 442.155 5.79795 442.376 5.78835C442.896 5.76901 442.896 5.76901 443.572 5.86155C443.76 5.88734 443.96 5.89006 444.2 5.87428C444.294 5.86797 444.408 5.87393 444.508 5.88144C444.836 5.90391 444.836 5.9331 444.623 5.98877C444.323 6.07072 444.35 6.07836 445.192 6.14603C445.513 6.17159 445.761 6.22033 446.029 6.26288C446.464 6.33126 446.457 6.33126 446.171 6.4224C446.105 6.44249 446.045 6.4641 445.978 6.48573C445.785 6.54598 445.632 6.61077 445.232 6.61761C444.791 6.62452 444.35 6.64988 443.909 6.66754C443.482 6.68518 443.369 6.72224 443.41 6.82663C443.459 6.95253 443.546 6.96621 444.314 6.96334C444.534 6.96296 444.728 6.97491 444.896 7.0161C444.816 7.0654 444.67 7.10406 444.456 7.11365C443.909 7.13765 443.354 7.15859 442.807 7.17951C442.366 7.19717 441.925 7.21483 441.485 7.2325C441.211 7.24373 441.038 7.32392 441.113 7.4129C441.153 7.46353 441.187 7.51417 441.221 7.56481C441.296 7.66608 441.437 7.69196 441.884 7.68657C441.998 7.68484 442.105 7.67235 442.211 7.67524C442.646 7.68524 442.854 7.81239 443.375 7.78537C443.809 7.7631 444.264 7.75771 444.691 7.72931C445.085 7.70405 445.306 7.75899 445.58 7.79999C445.674 7.81365 445.774 7.84265 445.855 7.84098C446.409 7.82312 446.963 7.80527 447.504 7.77514C447.758 7.76241 447.911 7.77135 448.112 7.80788C448.594 7.89615 448.608 7.89151 449.322 7.86262C449.843 7.84021 449.85 7.84327 450.519 7.93582C450.706 7.96161 450.907 7.96126 451.147 7.94855C451.461 7.93264 451.788 7.90749 452.115 7.92997C452.216 7.93594 452.343 7.95416 452.377 7.97408C452.397 7.98787 452.304 8.02183 452.224 8.03272C451.637 8.11363 450.948 8.101 450.307 8.13438C450.107 8.14394 449.906 8.1151 449.739 8.07391C449.565 8.03273 449.377 8.01616 449.15 8.02424C448.71 8.0419 448.262 8.05343 447.828 8.07877C447.454 8.10092 447.193 8.06604 446.932 8.01886C446.845 8.00365 446.745 7.97463 446.658 7.97632C445.67 8.00876 444.675 8.04123 443.693 8.08595C443.299 8.10507 443.071 8.0563 442.804 8.01529C442.71 8.00162 442.616 7.97259 442.529 7.97428C442.195 7.98101 441.868 7.99847 441.534 8.01134C440.319 8.05954 439.11 8.10773 437.895 8.15286C437.815 8.15607 437.714 8.12398 437.621 8.11031C437.44 8.08297 437.252 8.05718 437.065 8.03139C436.731 8.04426 436.404 8.06019 436.07 8.06999C435.83 8.07655 435.616 8.09844 435.583 8.15687C435.564 8.19532 435.785 8.23026 436.019 8.22678C436.246 8.22332 436.473 8.20448 436.66 8.22413C437.59 8.32084 437.59 8.32238 438.171 8.3014C438.678 8.28208 438.624 8.26681 439.073 8.35053C439.267 8.38706 439.441 8.40828 439.662 8.39868C440.209 8.37622 440.763 8.35374 441.318 8.33434C441.404 8.33112 441.518 8.34629 441.605 8.35843C442.261 8.44947 442.261 8.45254 442.802 8.42856C443.51 8.39967 443.536 8.39195 444.012 8.48484C444.34 8.54879 444.64 8.50372 444.954 8.5001C445.315 8.55939 445.71 8.61248 446.038 8.67951C446.427 8.75872 446.834 8.74418 447.275 8.72036C447.602 8.7029 447.923 8.6962 448.191 8.75872C448.445 8.81666 448.752 8.82228 449.1 8.80631C449.414 8.79194 449.734 8.76219 450.062 8.79542C450.149 8.80448 450.282 8.8273 450.276 8.84114C450.269 8.86266 450.183 8.89354 450.096 8.90291C449.482 8.96697 448.808 8.9666 448.16 8.99691C448.073 9.00167 447.96 8.98496 447.873 8.97283C447.685 8.9455 447.504 8.91355 447.324 8.88468C446.996 8.89446 446.662 8.89811 446.342 8.9171C446.095 8.93136 445.908 8.93016 445.727 8.8936C445.56 8.86009 445.379 8.81892 445.178 8.80851C444.978 8.79811 444.744 8.82156 444.524 8.83116C444.303 8.84076 444.05 8.83658 443.876 8.86147C443.703 8.88635 443.596 8.94031 443.483 8.98352C443.357 9.03137 443.184 9.04704 442.93 9.05209C442.696 9.05711 442.509 9.05128 442.335 9.00857C442.261 8.99026 442.16 8.9766 442.06 8.96448C441.966 8.95389 441.859 8.93717 441.773 8.9404C440.778 8.97746 439.789 9.0176 438.794 9.0562C438.3 9.07549 438.307 9.07547 437.277 8.98661C437.183 8.97909 437.07 8.96854 436.976 8.97178C436.422 8.99117 435.875 9.01364 435.32 9.03611C434.759 9.05859 434.766 9.05551 433.81 8.96038C433.636 8.94224 433.382 8.96727 433.175 8.96456C432.741 8.95763 432.525 8.82895 432.018 8.85442C431.584 8.87668 431.129 8.88207 430.696 8.91048C430.302 8.93575 430.074 8.88237 429.806 8.84136C429.713 8.8277 429.612 8.79714 429.532 8.80035C428.537 8.83588 427.549 8.876 426.226 8.88291C425.899 8.88348 426.046 8.91549 426.26 8.92587C426.567 8.94224 426.667 8.9098 426.5 8.84864C426.379 8.80583 426.205 8.78461 426.064 8.79561C425.991 8.80188 425.898 8.83124 426.226 8.88291C426.574 8.94069 426.554 8.97298 426.615 8.99131C426.762 9.03561 426.97 9.05368 427.183 9.04716C427.517 9.03583 427.844 9.0199 428.178 9.0101C428.272 9.00687 428.385 9.01743 428.472 9.02957C429.208 9.12354 429.215 9.12968 429.996 9.09145C430.243 9.08027 430.424 9.07995 430.618 9.10881C430.886 9.14829 431.08 9.21554 431.487 9.19332C432.028 9.16319 432.583 9.14534 433.137 9.12748C433.224 9.12426 433.317 9.15175 433.418 9.16386C433.692 9.20026 433.893 9.26904 434.301 9.23915C434.614 9.21556 434.955 9.20881 435.289 9.20362C435.376 9.20193 435.51 9.22628 435.55 9.24619C435.63 9.28138 435.531 9.32305 435.304 9.35263C435.211 9.36508 435.084 9.36223 434.977 9.36702C434.536 9.38469 434.095 9.40388 433.655 9.41847C433.421 9.42656 433.201 9.45 433.175 9.50689C433.155 9.54533 433.396 9.5787 433.623 9.57523C433.957 9.57004 434.291 9.55718 434.611 9.53665C435.179 9.50186 435.673 9.51022 436.136 9.6062C436.464 9.67323 436.443 9.6487 436.793 9.84781C436.881 9.89836 437.141 9.90251 437.368 9.89904C437.916 9.89041 438.17 9.91302 438.124 9.96073C438.065 10.0192 437.871 10.038 437.624 10.0461C437.183 10.0591 436.743 10.0799 436.302 10.0976C436.195 10.1023 436.075 10.1118 435.975 10.1089C435.874 10.106 435.781 10.0877 435.694 10.074C435.506 10.0452 435.345 10.0009 435.145 9.99047C434.944 9.98006 434.711 10.0035 434.49 10.0131C434.27 10.0212 434.036 10.0446 433.836 10.0342C433.635 10.0238 433.468 9.97803 433.287 9.95069C433.2 9.93702 433.093 9.91568 433.006 9.91737C432.565 9.93042 432.125 9.95117 431.684 9.9673C431.143 9.98821 431.143 9.98821 430.487 9.8941C430.3 9.86677 430.106 9.86865 429.859 9.88137C429.325 9.90688 429.318 9.90227 428.342 9.81486C428.248 9.8058 428.134 9.79525 428.041 9.80002C427.046 9.83708 426.058 9.8772 425.069 9.91579C424.221 9.94953 424.221 9.94954 423.756 10.104C423.41 10.2183 423.403 10.2183 423.744 10.2699C424.019 10.3125 424.267 10.375 424.567 10.3975C424.848 10.4186 425.195 10.3488 425.503 10.419C425.657 10.454 425.858 10.4921 426.052 10.4979C426.359 10.505 426.686 10.4599 426.981 10.527C427.128 10.5605 427.349 10.5955 427.536 10.5967C427.864 10.5992 428.197 10.5741 428.525 10.5627C428.625 10.5595 428.738 10.5593 428.832 10.5668C428.932 10.5759 429.019 10.5941 429.106 10.6094C429.374 10.6611 429.662 10.6852 430.009 10.6585C430.576 10.6145 431.084 10.6351 431.526 10.7327C431.587 10.7464 431.734 10.7477 431.827 10.7414C432.067 10.7256 432.274 10.7237 432.455 10.7526C432.529 10.7647 432.636 10.786 432.623 10.7999C432.603 10.823 432.523 10.8538 432.436 10.8617C431.809 10.915 431.134 10.9223 430.487 10.9511C430.4 10.9543 430.293 10.9345 430.206 10.9208C430.018 10.8935 429.857 10.8477 429.657 10.8373C429.456 10.8269 429.223 10.8473 429.002 10.8553C428.782 10.8634 428.549 10.8869 428.348 10.878C428.147 10.8676 427.96 10.8295 427.799 10.796C427.612 10.7579 427.431 10.7536 427.184 10.7694C426.864 10.7899 426.53 10.7936 426.203 10.8049C426.022 10.776 425.841 10.7441 425.654 10.7167C425.567 10.7031 425.46 10.6864 425.366 10.6881C424.925 10.7011 424.485 10.7203 424.044 10.738C423.603 10.7556 423.603 10.7556 422.854 10.6617C422.767 10.6511 422.653 10.639 422.56 10.6422C422.005 10.6616 421.458 10.6856 420.904 10.705C420.69 10.7131 420.496 10.6919 420.322 10.6507C420.154 10.6095 419.953 10.5868 419.746 10.5949C418.865 10.6287 417.984 10.6609 417.102 10.7009C416.748 10.7168 416.447 10.7035 416.206 10.6487C415.925 10.5862 415.611 10.6021 415.284 10.6149C414.543 10.6469 414.536 10.6454 414.061 10.5679C413.967 10.5527 413.873 10.5236 413.786 10.5253C413.018 10.5497 412.244 10.5726 411.483 10.6108C411.082 10.6314 410.868 10.578 410.6 10.5386C410.506 10.5249 410.406 10.4959 410.326 10.4991C409.771 10.5169 409.217 10.5333 408.676 10.5649C408.135 10.5966 407.927 10.4541 407.519 10.4563C406.965 10.4588 406.417 10.4951 405.87 10.5176C405.429 10.5353 404.988 10.5529 404.548 10.5706C404.107 10.5882 403.666 10.6028 403.225 10.6236C402.992 10.6347 402.818 10.6212 402.624 10.5831C402.376 10.5329 402.081 10.4934 401.814 10.4478C401.405 10.3825 401.405 10.3825 400.911 10.4017C400.804 10.4065 400.691 10.4098 400.584 10.4146C399.776 10.4498 399.776 10.4467 398.746 10.3517C398.699 10.3472 398.579 10.3643 398.533 10.3767C398.393 10.4169 398.266 10.4601 398.14 10.5018C397.959 10.4775 397.739 10.4641 397.618 10.429C397.276 10.3297 396.743 10.4674 396.395 10.3696C396.267 10.333 396.046 10.3011 395.846 10.2922C395.639 10.2834 395.405 10.3053 395.191 10.3149C394.637 10.3389 394.637 10.3374 394.165 10.4749C393.925 10.5429 393.577 10.5312 393.264 10.5472C392.936 10.5646 392.623 10.5744 392.348 10.5119C392.1 10.4555 391.799 10.4422 391.445 10.4612C391.011 10.485 390.564 10.4996 390.123 10.5142C390.03 10.5174 389.916 10.51 389.822 10.5009C388.799 10.412 388.799 10.4105 388.305 10.4313C388.085 10.4409 387.858 10.4444 387.644 10.4586C387.284 10.4838 387.009 10.452 386.748 10.4033C386.661 10.3881 386.56 10.3591 386.474 10.3608C386.033 10.3692 385.599 10.3838 385.165 10.3984C384.831 10.4097 384.497 10.4164 384.176 10.4385C383.642 10.4748 383.381 10.3753 383.013 10.3299C382.465 10.3508 381.911 10.3656 381.363 10.3942C381.11 10.4069 380.943 10.4026 380.748 10.3661C380.501 10.3204 380.273 10.2686 379.872 10.2923C379.338 10.324 378.777 10.3357 378.23 10.3551C377.862 10.3081 377.593 10.2118 377.066 10.248C376.746 10.2701 376.405 10.2753 376.078 10.2882C375.637 10.3058 375.196 10.322 374.756 10.3412C374.281 10.3604 374.288 10.3558 373.559 10.2664C373.137 10.2134 372.704 10.2741 372.276 10.284C371.942 10.2923 371.776 10.3632 371.857 10.4537C371.939 10.5442 371.759 10.6152 371.452 10.6281C370.684 10.6586 369.91 10.6906 369.142 10.7181C369.048 10.7213 368.934 10.7108 368.847 10.7002C368.025 10.6048 368.025 10.6064 367.657 10.6208C367.11 10.6448 366.549 10.6581 366.008 10.6882C365.634 10.7088 365.36 10.677 365.119 10.6252C364.931 10.5856 364.757 10.5767 364.517 10.5863C361.873 10.6939 359.228 10.7937 356.591 10.9043C356.197 10.9203 355.969 10.8762 355.702 10.8352C355.608 10.8215 355.521 10.7925 355.427 10.7926C355.207 10.793 354.986 10.8072 354.766 10.8168C353.778 10.8554 352.789 10.9017 351.794 10.9311C351.374 10.9441 351.261 11.0149 351.081 11.0736C350.942 11.1184 350.782 11.1371 350.534 11.1437C350.294 11.1503 350.12 11.1429 349.933 11.1033C349.691 11.0515 349.417 11.0197 349.043 11.0418C348.609 11.0672 348.169 11.0787 347.721 11.0964C347.494 11.1044 347.321 11.1324 347.248 11.1878C347.235 11.1971 347.375 11.2199 347.456 11.2336C347.723 11.2792 347.978 11.3325 348.279 11.3643C348.587 11.396 348.92 11.3585 349.241 11.3487C349.354 11.3455 349.461 11.3361 349.568 11.3374C349.668 11.3388 349.789 11.3463 349.862 11.36C350.211 11.4285 350.578 11.4755 351.059 11.4332C351.473 11.4524 351.689 11.5796 352.216 11.5449C352.537 11.5243 352.87 11.5145 353.204 11.5063C353.291 11.5046 353.385 11.5321 353.479 11.5457C353.746 11.5837 353.961 11.6448 354.362 11.6179C354.789 11.5895 355.243 11.5842 355.677 11.5619C355.917 11.5492 356.091 11.5596 356.279 11.5993C356.52 11.6495 356.794 11.6875 357.168 11.6622C357.488 11.6402 357.829 11.635 358.156 11.6206C358.584 11.6029 358.584 11.6045 359.346 11.6984C359.433 11.709 359.547 11.7211 359.64 11.7178C360.195 11.6984 360.742 11.6744 361.296 11.6551C361.51 11.647 361.718 11.6666 361.865 11.7109C361.925 11.7292 361.906 11.76 361.926 11.7861C360.824 11.8295 359.722 11.8667 358.627 11.9193C358.213 11.94 358.026 11.8774 357.751 11.8425C357.658 11.8304 357.557 11.8044 357.47 11.8077C356.696 11.8351 355.928 11.8641 355.16 11.8992C354.92 11.9104 354.739 11.9046 354.558 11.8603C354.096 11.7428 353.535 11.8083 353.015 11.8261C352.614 11.8391 352.488 11.887 352.536 11.9883C352.597 12.108 352.838 12.1445 353.452 12.1219C353.673 12.1138 353.893 12.1027 354.113 12.0962C354.327 12.0897 354.521 12.1093 354.695 12.1505C354.863 12.1917 355.063 12.2128 355.271 12.2063C355.711 12.1917 356.159 12.1771 356.586 12.1533C356.94 12.1343 357.234 12.1491 357.482 12.2055C357.757 12.2681 358.077 12.2537 358.398 12.2393C359.145 12.2073 359.152 12.2088 359.621 12.2848C359.714 12.3 359.808 12.329 359.895 12.3273C360.663 12.303 361.438 12.2816 362.192 12.2435C362.586 12.2243 362.814 12.2731 363.075 12.3126C363.169 12.3263 363.263 12.3568 363.349 12.3536C363.904 12.3357 364.458 12.3179 364.999 12.2877C365.252 12.2735 365.406 12.2824 365.614 12.3189C366.109 12.4087 366.122 12.4056 366.824 12.3752C367.037 12.3656 367.271 12.3483 367.471 12.3603C367.672 12.3722 367.833 12.4165 368.02 12.4438C368.107 12.456 368.214 12.4727 368.308 12.4694C368.749 12.4564 369.189 12.4372 369.63 12.4195C370.044 12.4019 370.044 12.4034 370.82 12.4973C371.135 12.5367 371.462 12.5024 371.775 12.4895C372.116 12.4751 372.423 12.4746 372.684 12.534C372.946 12.5935 373.26 12.5899 373.594 12.577C373.907 12.5642 374.228 12.5298 374.549 12.5708C375.285 12.6647 375.285 12.6662 375.739 12.647C376.4 12.6198 377.054 12.594 377.722 12.5698C377.809 12.5666 377.923 12.5849 378.01 12.597C378.197 12.6243 378.358 12.6701 378.559 12.6805C378.759 12.6925 378.993 12.6736 379.206 12.664C379.894 12.6337 379.941 12.6228 380.403 12.7234C380.791 12.8057 381.271 12.685 381.633 12.7797C381.841 12.8331 382.122 12.8756 382.509 12.8488C382.829 12.8267 383.163 12.82 383.497 12.8072C384.025 12.7863 384.025 12.7878 384.694 12.8788C384.781 12.891 384.895 12.9061 384.981 12.9029C385.422 12.8898 385.87 12.8783 386.297 12.8499C386.798 12.8168 387.119 12.8746 387.494 12.9308C387.788 12.9749 388.135 12.9374 388.449 12.9215C388.79 12.9055 389.097 12.9096 389.351 12.9691C389.619 13.03 389.933 13.0218 390.267 13.0089C390.581 12.9976 390.901 12.9618 391.222 13.0042C391.912 13.0983 391.912 13.0983 392.413 13.079C392.853 13.0613 393.294 13.0421 393.735 13.0291C393.822 13.0258 393.929 13.0456 394.016 13.0593C394.203 13.0866 394.364 13.1324 394.564 13.1428C394.765 13.1532 394.999 13.1329 395.219 13.1248C395.439 13.1167 395.673 13.0933 395.873 13.1022C396.074 13.111 396.261 13.1491 396.422 13.1826C396.61 13.2222 396.783 13.2265 397.037 13.2107C397.358 13.1902 397.691 13.185 398.019 13.1737C398.199 13.2026 398.387 13.2314 398.561 13.2634C398.742 13.2969 398.935 13.2935 399.182 13.2823C400.004 13.244 400.01 13.2486 400.7 13.3427C401.014 13.3851 401.341 13.3492 401.655 13.3379C401.989 13.325 402.303 13.3184 402.564 13.3794C402.819 13.4373 403.133 13.4444 403.467 13.4254C403.68 13.4128 403.907 13.4047 404.128 13.3997C404.228 13.398 404.348 13.4039 404.422 13.4161C404.777 13.48 405.125 13.5378 405.612 13.4954C406.04 13.507 406.255 13.6326 406.769 13.6071C407.203 13.5849 407.657 13.5794 408.084 13.5511C408.478 13.5258 408.76 13.5683 408.961 13.6218C409.322 13.7164 409.829 13.5864 410.191 13.6795C410.398 13.7329 410.666 13.7755 411.067 13.7518C411.507 13.7264 411.648 13.7584 411.776 13.855C411.85 13.9102 411.837 13.9547 411.704 13.998C411.571 14.0428 411.424 14.0354 411.21 13.985C410.962 13.9286 410.668 13.9184 410.314 13.9313C409.967 13.9442 409.752 13.8647 409.464 13.8344C409.177 13.8027 408.837 13.857 408.535 13.8161C407.826 13.7205 407.826 13.7205 407.345 13.7398C407.018 13.7526 406.678 13.7594 406.357 13.7814C405.977 13.8082 405.729 13.761 405.468 13.7185C405.374 13.7033 405.28 13.6742 405.2 13.6759C404.432 13.7003 403.657 13.7231 402.896 13.7629C402.496 13.7835 402.281 13.7286 402.014 13.6907C401.92 13.677 401.819 13.6495 401.739 13.6527C401.078 13.6754 400.424 13.7042 399.763 13.7314C399.636 13.7731 399.496 13.8133 399.377 13.8581C399.25 13.9044 399.077 13.9247 398.823 13.9236C398.402 13.9243 397.989 13.9896 397.567 13.9089C397.132 13.8267 397.098 13.8313 396.678 13.852C396.144 13.8791 395.575 13.8739 395.075 13.9347C394.988 13.9456 394.895 13.9749 394.896 13.9964C394.889 14.0103 395.03 14.03 395.117 14.0422C395.411 14.0785 395.751 14.0242 396.045 14.0621C396.239 14.0863 396.4 14.1229 396.594 14.1487C396.675 14.1593 396.795 14.1575 396.902 14.1558C397.015 14.1541 397.122 14.1432 397.229 14.1445C397.329 14.1459 397.436 14.1549 397.517 14.1686C397.885 14.2263 398.273 14.2794 398.601 14.348C398.922 14.415 399.222 14.3684 399.543 14.3648C400.827 14.4701 400.827 14.4716 401.689 14.4363C401.902 14.4283 402.123 14.4187 402.343 14.4198C402.437 14.4197 402.524 14.4472 402.617 14.4624C402.885 14.508 403.14 14.549 403.513 14.5238C403.834 14.5017 404.174 14.4965 404.502 14.4821C404.942 14.4645 404.942 14.4645 405.692 14.56C405.879 14.5842 406.08 14.5808 406.32 14.5681C406.527 14.557 406.741 14.5797 406.888 14.624C406.949 14.6423 406.929 14.6731 406.949 14.6991C406.288 14.7249 405.621 14.7429 404.98 14.7809C404.566 14.8047 404.378 14.7389 404.103 14.7041C404.01 14.692 403.909 14.666 403.823 14.6692C403.168 14.6934 402.514 14.7207 401.859 14.7525C401.779 14.7557 401.68 14.7912 401.673 14.8128C401.66 14.8527 401.828 14.8908 402.068 14.8889C402.389 14.8868 402.702 14.8601 402.991 14.9226C403.232 14.9775 403.532 15.0016 403.886 14.9764C404.1 14.9622 404.327 14.9618 404.541 14.9491C405.108 14.9113 405.623 14.9181 406.051 15.0218C406.379 15.0489 406.7 15.0222 407.013 15.0078C407.247 14.9967 407.474 14.9855 407.641 15.0144C407.996 15.0752 408.344 15.1361 408.832 15.0938C409.36 15.1359 409.762 15.2258 410.204 15.2988C410.411 15.3338 410.572 15.3535 410.812 15.33C410.912 15.3206 411.032 15.3204 411.139 15.3156C411.359 15.3075 411.593 15.2841 411.793 15.293C411.994 15.3034 412.162 15.3476 412.342 15.375C412.429 15.3886 412.53 15.4115 412.617 15.4098C412.951 15.4016 413.278 15.3856 413.605 15.3728C413.932 15.3615 414.259 15.3501 414.586 15.3388C414.861 15.3783 415.142 15.4177 415.416 15.4572C415.857 15.4396 416.298 15.4219 416.732 15.4058C417.219 15.3865 417.219 15.388 417.922 15.482C418.236 15.5245 418.57 15.4963 418.871 15.4758C419.371 15.4427 419.706 15.5005 420.061 15.5613C420.134 15.5735 420.268 15.5809 420.355 15.5746C420.702 15.5525 421.003 15.5689 421.257 15.6253C421.438 15.6649 421.619 15.683 421.839 15.675C422.607 15.6444 423.375 15.6124 424.143 15.5849C424.236 15.5817 424.343 15.5953 424.43 15.6075C425.113 15.7 425.12 15.7046 425.621 15.6792C426.068 15.6569 426.482 15.6469 426.837 15.7308C426.911 15.7491 427.025 15.775 427.105 15.7734C427.652 15.757 428.207 15.7392 428.748 15.7121C428.995 15.6994 429.168 15.7037 429.362 15.7387C429.61 15.7828 429.831 15.8362 430.239 15.8156C431.367 15.7568 431.374 15.7659 432.711 15.8696C432.805 15.8771 432.931 15.8646 433.038 15.8583C433.265 15.8426 433.432 15.8638 433.633 15.8988C434.082 15.9779 434.095 15.9732 434.523 15.9556C434.85 15.9412 435.19 15.9375 435.511 15.9139C436.005 15.8793 436.333 15.9386 436.701 15.9948C436.995 16.0389 437.336 16.0014 437.65 15.987C437.99 15.9711 438.297 15.9751 438.552 16.0331C438.726 16.0727 438.913 16.0939 439.134 16.0859C439.902 16.0569 440.67 16.0248 441.438 15.9958C441.531 15.9926 441.645 16.0047 441.732 16.0153C442.495 16.1092 442.495 16.1138 443.249 16.0772C443.489 16.066 443.69 16.0626 443.871 16.0945C444.045 16.125 444.232 16.1538 444.413 16.1827C444.74 16.1714 445.074 16.1677 445.394 16.1487C445.641 16.1345 445.815 16.1403 446.009 16.1723C446.264 16.2133 446.478 16.2851 446.879 16.2491C447.086 16.2318 447.326 16.236 447.533 16.2203C447.78 16.1999 447.947 16.2119 448.142 16.2515C448.383 16.2987 448.63 16.3474 449.017 16.3222C449.445 16.2938 449.899 16.2884 450.333 16.2661C450.573 16.2534 450.74 16.2654 450.935 16.305C451.176 16.3553 451.45 16.3871 451.824 16.3665C452.585 16.3267 452.592 16.3344 453.334 16.4299C453.522 16.4542 453.722 16.4507 453.963 16.438C454.17 16.4269 454.384 16.4496 454.531 16.4939C454.672 16.5428 454.659 16.5736 454.673 16.5997ZM394.974 2.84717C394.753 2.85523 394.533 2.86483 394.211 2.73173C394.19 2.70872 394.203 2.68105 394.156 2.66116C394.049 2.61986 393.882 2.59096 393.681 2.5867C393.32 2.58118 392.887 2.63416 392.894 2.6741C392.901 2.70788 393.015 2.73687 393.236 2.76414C393.329 2.77473 393.403 2.79304 393.49 2.80518C393.744 2.84008 393.946 2.90887 394.313 2.8729C394.279 2.82533 394.245 2.77777 394.313 2.8729C394.28 2.93134 394.381 2.97264 394.621 2.98913C394.688 2.99362 394.788 2.99036 394.842 2.98105C395.048 2.9469 395.081 2.90076 394.926 2.77966C394.9 2.79968 394.92 2.83496 394.98 2.84408C395.041 2.85319 395.187 2.84526 395.261 2.83438C395.447 2.80487 395.541 2.76629 395.493 2.73411C395.466 2.71726 395.339 2.69597 395.259 2.69611C395.119 2.69636 394.992 2.73037 394.974 2.84717ZM449.209 20.5698C448.722 20.5998 448.161 20.5901 447.674 20.6508C447.587 20.6617 447.501 20.6895 447.494 20.7111C447.488 20.7249 447.622 20.7446 447.702 20.7553C447.883 20.7795 448.083 20.7715 448.317 20.7634C448.671 20.752 448.879 20.8223 449.153 20.8572C449.24 20.8678 449.354 20.8753 449.447 20.872C449.988 20.8527 450.522 20.8318 451.063 20.8093C451.156 20.8046 451.257 20.7936 451.337 20.7797C451.603 20.7346 451.576 20.7055 451.315 20.6722C451.028 20.6358 450.8 20.5747 450.505 20.546C450.084 20.5053 449.657 20.5613 449.209 20.5698ZM411.284 21.7572C410.957 21.7701 410.636 21.7829 410.309 21.7958C410.202 21.8006 410.089 21.8023 409.989 21.8086C409.782 21.8197 409.629 21.8522 409.529 21.9031C409.683 21.9428 409.871 21.9655 410.078 21.9605C410.405 21.9508 410.725 21.9302 411.052 21.9251C411.406 21.9183 411.614 21.9871 411.889 22.0219C411.976 22.0325 412.083 22.0339 412.183 22.0352C412.677 22.0405 412.977 21.9601 412.882 21.8481C412.814 21.7607 412.56 21.7089 412.253 21.7202C411.932 21.7315 411.605 21.7444 411.284 21.7572ZM451.467 18.2952C451.547 18.2689 451.633 18.2503 451.673 18.2272C451.792 18.1487 451.745 18.0904 451.523 18.0293C451.255 17.9545 450.929 18.0058 450.628 18.014C450.555 18.0156 450.475 18.048 450.435 18.0681C450.408 18.0819 450.409 18.1111 450.449 18.1187C450.777 18.1796 451.125 18.2359 451.467 18.2952ZM393.458 13.8576C393.137 13.8705 392.81 13.8802 392.489 13.8977C392.409 13.9025 392.336 13.9318 392.29 13.9518C392.203 13.9888 392.297 14.0394 392.571 14.0435C392.885 14.0491 393.212 14.0224 393.539 14.0096C393.953 13.9935 394.2 13.9362 394.046 13.8873C393.898 13.8399 393.698 13.8311 393.458 13.8576ZM41.7594 11.1853C41.973 11.1772 42.1934 11.1707 42.4071 11.1596C42.6073 11.1485 42.7607 11.1144 42.8603 11.0635C42.6928 11.0239 42.5054 11.0027 42.2984 11.0076C41.9711 11.0174 41.6507 11.0303 41.3302 11.0462C41.1299 11.0558 40.9366 11.0899 40.8905 11.1422C40.8442 11.1822 41.2919 11.2045 41.7594 11.1853ZM365.163 10.387C365.25 10.4007 365.337 10.4282 365.424 10.428C365.637 10.4277 365.858 10.4181 366.058 10.4024C366.145 10.3961 366.211 10.3683 366.251 10.3467C366.278 10.3328 366.271 10.3083 366.23 10.2961C366.036 10.2227 365.261 10.2501 365.135 10.3348C365.122 10.3502 365.156 10.3701 365.163 10.387ZM343.983 2.01085C344.003 2.03539 344.01 2.05996 344.037 2.08449C344.091 2.13049 344.239 2.16404 344.453 2.18671C344.619 2.14801 344.706 2.10485 344.698 2.05878C344.691 2.03421 344.671 2.00965 344.644 1.98511C344.59 1.93911 344.443 1.90558 344.229 1.88291C344.062 1.92007 343.982 1.96322 343.983 2.01085ZM466.95 21.9278C466.89 21.9479 466.83 21.968 466.764 21.9866C466.944 22.0308 467.112 22.0443 467.238 22.0195C467.318 22.004 467.365 21.9809 467.425 21.9608C467.244 21.9166 467.083 21.9046 466.95 21.9278ZM462.797 22.144C462.884 22.1577 462.965 22.176 463.058 22.185C463.212 22.2001 463.352 22.1738 463.458 22.1183C463.371 22.1046 463.291 22.0863 463.197 22.0772C463.043 22.0621 462.903 22.0885 462.797 22.144ZM465.426 21.8583C465.38 21.8952 465.474 21.9258 465.721 21.9515C465.781 21.9314 465.861 21.9128 465.901 21.8913C465.967 21.8558 465.853 21.8237 465.612 21.7996C465.546 21.8181 465.486 21.8382 465.426 21.8583ZM451.303 20.2266C451.257 20.2636 451.351 20.2942 451.598 20.3198C451.658 20.2998 451.738 20.2812 451.778 20.2596C451.844 20.2242 451.73 20.1921 451.489 20.1679C451.423 20.1865 451.363 20.2066 451.303 20.2266ZM431.957 9.38916C431.898 9.40924 431.838 9.42931 431.771 9.44787C431.952 9.49211 432.119 9.50564 432.246 9.48084C432.326 9.46533 432.372 9.44221 432.432 9.42213C432.251 9.37789 432.091 9.36588 431.957 9.38916ZM413.482 3.65385C413.643 3.66433 413.776 3.6426 413.889 3.58556C413.802 3.57188 413.722 3.55358 413.628 3.54453C413.474 3.52943 413.334 3.5558 413.228 3.61129C413.315 3.6265 413.402 3.64016 413.482 3.65385ZM403.704 3.3098C403.644 3.32988 403.585 3.34995 403.518 3.3685C403.699 3.41274 403.866 3.42628 403.993 3.40147C404.073 3.38597 404.119 3.36285 404.179 3.34277C403.998 3.29853 403.838 3.28806 403.704 3.3098ZM337.409 2.02072C337.349 2.0408 337.29 2.06088 337.223 2.07943C337.404 2.12367 337.571 2.1372 337.698 2.1124C337.778 2.0969 337.824 2.07377 337.884 2.05369C337.703 2.00945 337.543 1.99898 337.409 2.02072ZM7.54826 15.0932C7.46125 15.0795 7.37431 15.0658 7.29396 15.0506C7.10072 15.0924 7.04109 15.1309 7.14833 15.1599C7.21536 15.1783 7.31562 15.1888 7.40264 15.2025C7.60255 15.1607 7.64884 15.1237 7.54826 15.0932Z" fill="#FFE492"/>
</svg>
