<svg width="341" height="59" viewBox="0 0 341 59" fill="none" xmlns="http://www.w3.org/2000/svg">
<g filter="url(#filter0_d_1_136)">
<path d="M317.305 10.5406C316.849 10.5565 316.387 10.5674 315.94 10.5912C315.649 10.6061 315.525 10.5624 315.331 10.5396C315.266 10.5316 315.197 10.5157 315.137 10.5177C314.685 10.5336 314.233 10.5515 313.781 10.5694C313.642 10.6081 313.555 10.6598 313.342 10.6787C313.135 10.6966 312.89 10.6966 312.66 10.7055C312.355 10.7165 312.051 10.7274 311.746 10.7373C311.594 10.7423 311.469 10.7612 311.419 10.7969C311.409 10.8029 311.511 10.8178 311.566 10.8268C311.751 10.8566 311.931 10.8903 312.134 10.9132C312.327 10.9351 312.567 10.8993 312.775 10.9271C313.241 10.9897 313.246 10.9887 313.601 10.9768C313.905 10.9659 314.21 10.954 314.514 10.946C314.574 10.944 314.643 10.9589 314.708 10.9669C314.902 10.9887 315.026 11.0384 315.312 11.0195C315.529 11.0046 315.769 11.0017 315.995 10.9937C316.184 11.0225 316.36 11.0553 316.563 11.0782C316.752 11.1 316.807 11.1169 316.706 11.1457C316.613 11.1726 316.484 11.1835 316.313 11.1855C316.161 11.1865 316.009 11.1954 315.857 11.2004C315.778 11.2034 315.705 11.2054 315.631 11.2083C315.34 11.2193 315.34 11.2193 314.81 11.1557C314.602 11.1308 314.367 11.1656 314.168 11.1418C314.034 11.1259 313.919 11.102 313.79 11.0851C313.735 11.0782 313.647 11.0772 313.578 11.0792C313.347 11.0861 313.116 11.0911 312.895 11.104C312.738 11.1129 312.646 11.1408 312.664 11.1686C312.669 11.1795 312.78 11.1954 312.844 11.1964C312.992 11.1984 313.149 11.1845 313.292 11.1915C313.43 11.1984 313.573 11.2183 313.675 11.2401C313.882 11.2859 314.117 11.2451 314.316 11.257C314.523 11.27 314.694 11.3097 314.893 11.3336C314.943 11.3395 315.04 11.3296 315.119 11.3266C315.345 11.3196 315.571 11.3137 315.797 11.3067C315.986 11.3355 316.189 11.3614 316.36 11.3942C316.669 11.4538 317.001 11.4766 317.402 11.4478C317.628 11.4319 317.85 11.4379 318.03 11.4766C318.214 11.5164 318.426 11.5124 318.662 11.5045C318.879 11.4965 319.1 11.4747 319.321 11.5025C319.801 11.5641 319.806 11.5671 320.373 11.5432C320.544 11.5363 320.673 11.5343 320.802 11.5571C320.922 11.578 321.051 11.5959 321.176 11.6158C321.402 11.6088 321.633 11.6019 321.859 11.5939C322.149 11.583 322.311 11.5969 322.38 11.6525C322.422 11.6863 322.44 11.7171 322.542 11.74C322.662 11.7678 322.791 11.7668 322.966 11.7589C323.132 11.7519 323.252 11.741 323.321 11.7052C323.349 11.6903 323.404 11.6764 323.455 11.6645C323.497 11.6555 323.561 11.6416 323.598 11.6436C323.667 11.6476 323.759 11.6585 323.783 11.6714C324.009 11.7917 324.009 11.7927 324.239 11.8274C324.493 11.8662 324.756 11.901 324.987 11.9447C325.194 11.9834 325.402 11.9666 325.628 11.9666C325.799 11.9666 325.909 11.9924 325.896 12.0182C325.886 12.0331 325.822 12.055 325.766 12.057C325.314 12.0768 324.858 12.0937 324.401 12.1077C324.345 12.1096 324.276 12.0918 324.212 12.0828C324.082 12.0649 323.967 12.0371 323.829 12.0311C323.69 12.0252 323.529 12.0401 323.377 12.045C323.224 12.05 323.063 12.0629 322.925 12.055C322.786 12.047 322.675 12.0182 322.546 11.9993C322.486 11.9904 322.403 11.9775 322.352 11.9805C322.016 12.0043 321.767 11.9715 321.527 11.9278C321.476 11.9189 321.388 11.9129 321.324 11.9149C320.789 11.9318 320.258 11.9516 319.723 11.9705C319.506 11.9785 319.331 11.9437 319.284 11.8851C319.261 11.8523 319.215 11.8195 319.215 11.7867C319.215 11.7271 318.962 11.6943 318.777 11.7012C318.473 11.7112 318.164 11.7191 317.864 11.734C317.619 11.7459 317.411 11.734 317.245 11.6982C317.052 11.6575 316.83 11.6655 316.609 11.6764C316.443 11.6843 316.396 11.7171 316.406 11.7996C316.415 11.8662 316.336 11.8871 316.037 11.898C315.658 11.9119 315.275 11.9258 314.893 11.9367C314.833 11.9387 314.763 11.9218 314.703 11.9129C314.574 11.895 314.459 11.8662 314.32 11.8602C314.182 11.8533 314.021 11.8682 313.868 11.8741C313.716 11.8791 313.555 11.893 313.416 11.8861C313.278 11.8791 313.162 11.8493 313.038 11.8304C312.978 11.8215 312.904 11.8085 312.844 11.8105C312.54 11.8185 312.235 11.8304 311.931 11.8413C311.589 11.8533 311.589 11.8533 311.105 11.7917C310.883 11.7638 310.662 11.7857 310.445 11.7936C310.215 11.8016 309.998 11.8056 309.818 11.7658C309.698 11.74 309.564 11.7241 309.421 11.7291C309.038 11.741 308.66 11.7559 308.277 11.7678C308.212 11.7698 308.125 11.7648 308.074 11.7559C307.829 11.7142 307.59 11.6814 307.248 11.7022C306.953 11.7201 306.635 11.7211 306.339 11.738C306.178 11.7469 306.104 11.7787 306.136 11.8036C306.155 11.8165 306.252 11.8314 306.316 11.8314C306.464 11.8324 306.625 11.8175 306.764 11.8235C307.05 11.8354 307.193 11.9188 307.566 11.896C307.788 11.8821 308.019 11.8771 308.249 11.8731C308.309 11.8721 308.374 11.891 308.438 11.901C308.623 11.9278 308.784 11.9626 309.052 11.9447C309.273 11.9308 309.509 11.9268 309.735 11.9189C310.095 11.9059 310.095 11.9069 310.561 11.9675C310.782 11.9964 311.003 11.9735 311.22 11.9666C311.382 11.9616 311.534 11.9516 311.663 11.9656C311.862 11.9864 312.005 12.0341 312.249 12.0311C312.48 12.0282 312.706 12.0142 312.936 12.0093C313.079 12.0063 313.213 12.0222 313.329 12.049C313.449 12.0759 313.578 12.0878 313.735 12.0818C313.961 12.0739 314.191 12.0639 314.422 12.059C314.487 12.058 314.56 12.0669 314.62 12.0749C314.75 12.0928 314.874 12.1136 314.999 12.1325C315.225 12.1265 315.455 12.1246 315.677 12.1126C315.848 12.1037 315.967 12.1077 316.106 12.1275C316.281 12.1544 316.424 12.2021 316.71 12.1792C316.853 12.1683 317.019 12.1713 317.162 12.1613C317.338 12.1484 317.458 12.1534 317.582 12.1832C317.817 12.2398 318.113 12.2408 318.417 12.219C318.749 12.1951 318.999 12.2229 319.248 12.2667C319.511 12.3124 319.511 12.3114 319.714 12.4217C319.774 12.4535 319.944 12.4684 320.087 12.4624C320.327 12.4525 320.535 12.4574 320.71 12.4952C320.895 12.5359 321.116 12.531 321.342 12.5201C321.642 12.5051 321.942 12.4922 322.186 12.5499C322.306 12.5777 322.436 12.5846 322.597 12.5777C323.054 12.5598 323.515 12.5489 323.963 12.527C324.235 12.5131 324.392 12.5449 324.576 12.5717C324.825 12.6085 325.097 12.6413 325.097 12.7198C325.097 12.7327 325.162 12.7476 325.217 12.7576C325.337 12.7784 325.467 12.7963 325.591 12.8162C325.776 12.846 325.955 12.8708 326.209 12.8549C326.431 12.842 326.666 12.838 326.892 12.8291C327.118 12.8202 327.326 12.8152 327.529 12.8529C327.764 12.8957 328.013 12.9364 328.281 12.9682C328.47 12.9911 328.719 12.9523 328.922 12.9831C329.047 13.002 329.166 13.0239 329.3 13.0398C329.356 13.0467 329.443 13.0417 329.517 13.0398C329.669 13.0358 329.826 13.0328 329.974 13.0229C330.145 13.0119 330.274 13.0139 330.403 13.0368C330.523 13.0577 330.643 13.0865 330.781 13.0924C330.989 13.1014 331.219 13.0616 331.427 13.1073C331.533 13.1302 331.667 13.1521 331.805 13.159C331.944 13.166 332.105 13.1511 332.253 13.1521C332.317 13.1521 332.396 13.168 332.433 13.1809C332.456 13.1878 332.424 13.2067 332.391 13.2166C332.35 13.2286 332.29 13.2445 332.23 13.2465C331.773 13.2643 331.316 13.2793 330.86 13.2961C330.587 13.3061 330.587 13.3061 330.038 13.2435C329.909 13.2286 329.766 13.2315 329.605 13.2385C329.388 13.2474 329.166 13.2643 328.94 13.2465C328.645 13.1789 328.281 13.1729 327.893 13.1988C327.732 13.2097 327.584 13.2097 327.464 13.1908C327.21 13.153 326.943 13.1183 326.717 13.0736C326.541 13.0388 326.458 13.0358 326.385 13.0835C326.362 13.0984 326.338 13.1143 326.343 13.1282C326.371 13.1779 326.421 13.2266 326.449 13.2763C326.458 13.2902 326.421 13.3061 326.398 13.321C326.325 13.3627 326.228 13.3597 326.066 13.325C325.905 13.2902 325.711 13.2673 325.453 13.2832C325.231 13.2971 324.991 13.2952 324.77 13.3101C324.428 13.3319 324.189 13.3001 323.944 13.2574C323.893 13.2484 323.806 13.2435 323.741 13.2455C323.054 13.2683 322.371 13.2942 321.684 13.317C321.536 13.322 321.402 13.3071 321.287 13.2802C321.167 13.2534 321.033 13.2395 320.885 13.2445C320.276 13.2653 319.667 13.2842 319.058 13.3101C318.809 13.321 318.611 13.3081 318.44 13.2733C318.311 13.2474 318.191 13.2395 318.03 13.2425C317.854 13.2455 317.73 13.2554 317.642 13.2842C317.559 13.312 317.619 13.3289 317.804 13.3508C318.002 13.3746 318.186 13.4055 318.376 13.4333C318.528 13.4293 318.68 13.4213 318.828 13.4223C318.892 13.4223 318.952 13.4402 319.017 13.4502C319.202 13.479 319.372 13.5078 319.635 13.4919C319.857 13.478 320.092 13.475 320.318 13.4661C320.632 13.4551 320.632 13.4551 321.139 13.5177C321.268 13.5336 321.407 13.5326 321.573 13.5237C321.716 13.5167 321.863 13.5307 321.965 13.5605C322.006 13.5724 321.993 13.5923 321.905 13.6579C321.905 13.7066 322.002 13.6847 322.034 13.6529C322.085 13.6072 321.988 13.5923 321.803 13.6171C321.674 13.635 321.61 13.6608 321.642 13.6817C321.66 13.6926 321.748 13.7066 321.905 13.6579C322.311 13.5982 322.62 13.5913 322.915 13.5754C323.091 13.5664 323.201 13.5704 323.34 13.5962C323.506 13.627 323.672 13.6599 323.944 13.644C324.239 13.6261 324.553 13.6241 324.853 13.6092C325.13 13.5952 325.273 13.639 325.448 13.6648C325.66 13.6956 325.895 13.6608 326.089 13.6787C326.292 13.6966 326.435 13.7403 326.671 13.7483C327.012 13.7215 327.229 13.7711 327.487 13.8039C327.69 13.8288 327.93 13.8069 328.147 13.796C328.391 13.7841 328.594 13.795 328.765 13.8308C328.959 13.8715 329.176 13.8626 329.397 13.8536C329.914 13.8337 329.932 13.8308 330.232 13.8854C330.449 13.9252 330.657 13.9073 330.873 13.9023C331.063 13.9291 331.247 13.958 331.445 13.9818C331.496 13.9878 331.593 13.9778 331.672 13.9749C331.898 13.9669 332.128 13.959 332.354 13.951C332.507 13.946 332.668 13.9311 332.806 13.9371C332.945 13.944 333.06 13.9729 333.185 13.9918C333.309 14.0106 333.438 14.0295 333.558 14.0494C333.743 14.0792 333.918 14.104 334.177 14.0891C334.398 14.0762 334.629 14.0722 334.859 14.0633C335.15 14.0524 335.141 14.0553 335.681 14.115C335.971 14.1478 336.271 14.108 336.566 14.104C336.714 14.1021 336.857 14.113 336.958 14.1418C337 14.1537 336.986 14.1736 337 14.1905C336.239 14.2173 335.473 14.2402 334.721 14.273C334.43 14.2859 334.278 14.2501 334.121 14.2203C333.863 14.1726 333.521 14.2422 333.277 14.1805C333.129 14.1438 332.917 14.1229 332.663 14.1408C332.516 14.1507 332.359 14.1497 332.207 14.1587C331.819 14.1806 331.464 14.1815 331.155 14.113C331.049 14.0891 330.896 14.0762 330.786 14.0534C330.657 14.0285 330.532 14.0146 330.38 14.0196C329.692 14.0434 329.01 14.0673 328.327 14.0931C328.267 14.0951 328.207 14.11 328.156 14.1209C328.027 14.1488 328.068 14.1706 328.276 14.1885C328.345 14.1945 328.401 14.2074 328.465 14.2173C328.59 14.2362 328.705 14.266 328.843 14.273C328.982 14.2799 329.143 14.266 329.296 14.261C329.448 14.2561 329.609 14.2412 329.748 14.2471C329.886 14.2541 330.001 14.2829 330.131 14.3008C330.191 14.3097 330.264 14.3246 330.324 14.3236C330.629 14.3177 330.929 14.3068 331.233 14.2978C331.422 14.3246 331.584 14.3634 331.81 14.3723C331.953 14.3783 332.105 14.3674 332.253 14.3694C332.317 14.3704 332.4 14.3853 332.433 14.3982C332.451 14.4061 332.391 14.426 332.345 14.4359C332.17 14.4737 331.93 14.4667 331.713 14.4787C331.478 14.4916 331.266 14.4876 331.086 14.4489C330.966 14.423 330.832 14.4091 330.684 14.4141C330.301 14.427 329.923 14.4419 329.54 14.4528C329.475 14.4548 329.397 14.4459 329.337 14.4389C328.853 14.3783 328.853 14.3763 328.511 14.3892C328.008 14.4081 328.009 14.4081 327.672 14.3554C327.607 14.3455 327.538 14.3266 327.483 14.3276C326.947 14.3435 326.417 14.3594 325.886 14.3823C325.711 14.3892 325.591 14.3892 325.462 14.3634C325.351 14.3415 325.222 14.3167 325.084 14.3107C324.941 14.3048 324.784 14.3197 324.631 14.3246C324.479 14.3296 324.318 14.3425 324.184 14.3346C324.046 14.3266 323.926 14.2988 323.806 14.2789C323.681 14.2581 323.547 14.2591 323.377 14.267C322.851 14.2899 322.846 14.2869 322.325 14.2253C322.265 14.2183 322.186 14.2104 322.122 14.2124C321.739 14.2243 321.361 14.2392 320.978 14.2511C320.83 14.2561 320.687 14.2432 320.585 14.2143C320.544 14.2024 320.558 14.1825 320.53 14.1438C320.498 14.1348 320.535 14.1507 320.544 14.1657C320.613 14.1637 320.696 14.1656 320.747 14.1577C320.876 14.1388 320.941 14.114 320.908 14.0931C320.89 14.0822 320.802 14.0683 320.747 14.0683C320.646 14.0683 320.558 14.0901 320.53 14.1438C320.24 14.1766 319.93 14.1835 319.63 14.1994C319.455 14.2094 319.344 14.2044 319.206 14.1786C319.04 14.1468 318.869 14.116 318.597 14.1319C318.302 14.1497 317.988 14.1527 317.684 14.1666C317.333 14.1825 317.181 14.0931 316.886 14.0951C316.581 14.0971 316.277 14.114 315.972 14.1259C315.704 14.1358 315.704 14.1358 315.151 14.0712C314.948 14.0474 314.708 14.0822 314.51 14.0573C314.376 14.0414 314.261 14.0176 314.131 14.0007C314.076 13.9937 313.988 13.9937 313.919 13.9957C313.536 14.0076 313.149 14.0156 312.78 14.0375C312.36 14.0633 312.042 14.0355 311.742 13.9768C311.363 13.9878 310.98 13.9937 310.607 14.0126C310.335 14.0265 310.178 13.9937 309.993 13.9669C309.929 13.958 309.873 13.9431 309.804 13.9391C309.735 13.9351 309.652 13.9431 309.578 13.946C309.273 13.957 308.96 13.9619 308.664 13.9798C308.3 14.0027 308.162 13.9212 307.88 13.9113C307.691 13.9599 307.59 14.0265 307.216 14.0315C306.911 14.0355 306.607 14.0514 306.302 14.0623C306.15 14.0673 305.998 14.0732 305.846 14.0782C305.601 14.0871 305.486 14.1259 305.537 14.1855C305.564 14.2183 305.587 14.2511 305.61 14.2839C305.657 14.3425 305.541 14.3922 305.347 14.3992C304.812 14.4181 304.282 14.4379 303.747 14.4548C303.604 14.4598 303.465 14.4429 303.35 14.4161C303.23 14.3892 303.096 14.3773 302.948 14.3823C302.413 14.4012 301.883 14.421 301.348 14.4379C301.288 14.4399 301.209 14.43 301.149 14.422C301.02 14.4041 300.896 14.3833 300.771 14.3644C300.466 14.3733 300.167 14.3793 299.867 14.3912C299.382 14.4091 299.382 14.4101 299.027 14.3554C298.962 14.3455 298.898 14.3266 298.838 14.3276C298.607 14.3316 298.381 14.3415 298.151 14.3505C297.472 14.3763 297.472 14.3763 297.274 14.3465C297.094 14.3187 296.933 14.2849 296.66 14.3008C296.365 14.3187 296.051 14.3246 295.747 14.3346C295.521 14.3415 295.295 14.3495 295.069 14.3515C295.009 14.3525 294.944 14.3336 294.88 14.3236C294.695 14.2928 294.515 14.268 294.261 14.2849C294.114 14.2948 293.957 14.2968 293.805 14.3018C293.408 14.3157 293.408 14.3157 292.757 14.2561C292.693 14.2501 292.614 14.2432 292.55 14.2461C292.015 14.264 291.484 14.2839 290.949 14.3008C290.884 14.3028 290.806 14.2968 290.741 14.2918C290.013 14.2342 290.012 14.2342 289.237 14.262C288.942 14.272 288.933 14.276 288.624 14.2233C288.485 14.2004 288.37 14.1895 288.209 14.1965C287.6 14.2203 286.986 14.2362 286.382 14.264C286.11 14.276 285.953 14.2461 285.768 14.2193C285.704 14.2104 285.634 14.1905 285.579 14.1915C284.97 14.2104 284.361 14.2332 283.752 14.2521C283.697 14.2541 283.628 14.2342 283.563 14.2253C283.438 14.2074 283.318 14.1806 283.18 14.1746C283.037 14.1686 282.88 14.1835 282.723 14.1885C282.34 14.2014 282.34 14.2004 281.897 14.1418C281.837 14.1339 281.759 14.1229 281.699 14.1249C281.09 14.1448 280.477 14.1617 279.872 14.1905C279.526 14.2064 279.291 14.1776 279.046 14.1358C278.996 14.1269 278.908 14.1229 278.843 14.1249C278.156 14.1478 277.473 14.1736 276.786 14.1965C276.643 14.2014 276.504 14.1845 276.389 14.1587C276.205 14.1179 275.988 14.1229 275.757 14.1319C275.227 14.1527 275.222 14.1517 274.908 14.104C274.844 14.0941 274.788 14.0812 274.719 14.0762C274.654 14.0712 274.571 14.0742 274.502 14.0762C274.198 14.0862 273.893 14.0971 273.589 14.108C273.284 14.1189 272.975 14.1249 272.675 14.1418C272.306 14.1627 272.131 14.0981 271.873 14.0683C271.494 14.0812 271.107 14.0891 270.733 14.11C270.447 14.1259 270.313 14.0822 270.124 14.0593C270.06 14.0514 269.99 14.0345 269.93 14.0365C269.243 14.0583 268.556 14.0822 267.873 14.109C267.707 14.115 267.596 14.107 267.458 14.0832C267.148 14.0295 267.135 14.0315 266.618 14.0514C266.392 14.0603 266.175 14.0683 265.981 14.0275C265.811 13.9908 265.603 13.9818 265.358 13.9937C265.059 14.0086 264.75 14.0166 264.445 14.0265C264.141 14.0375 263.836 14.0524 263.532 14.0573C263.287 14.0623 263.139 14.0156 262.946 13.9918C262.886 13.9848 262.803 13.9838 262.733 13.9858C262.429 13.9947 262.115 14.0017 261.82 14.0186C261.46 14.0394 261.262 13.9848 261.008 13.953C260.953 13.946 260.86 13.95 260.791 13.953C260.256 13.9709 259.725 13.9908 259.19 14.0096C259.001 13.9828 258.807 13.957 258.618 13.9301C258.314 13.9401 258.009 13.951 257.705 13.9609C257.474 13.9689 257.239 13.9719 257.022 13.9868C256.741 14.0067 256.602 13.9599 256.413 13.9371C256.348 13.9291 256.279 13.9123 256.219 13.9142C255.836 13.9252 255.453 13.9371 255.075 13.954C254.715 13.9709 254.572 13.8814 254.277 13.8824C253.973 13.8834 253.659 13.8964 253.364 13.9142C253.022 13.9351 252.782 13.9033 252.538 13.8606C252.487 13.8516 252.399 13.8467 252.335 13.8486C251.952 13.8606 251.574 13.8755 251.191 13.8874C251.126 13.8894 251.048 13.8844 250.983 13.8785C250.254 13.8198 250.254 13.8188 249.936 13.8308C249.71 13.8387 249.479 13.8487 249.249 13.8536C249.184 13.8556 249.105 13.8467 249.045 13.8387C248.566 13.7781 248.566 13.7771 248.22 13.789C247.915 13.8 247.611 13.8109 247.306 13.8218C247.117 13.795 246.923 13.7692 246.734 13.7423C246.356 13.7552 245.968 13.7652 245.595 13.7831C245.419 13.791 245.304 13.788 245.17 13.7632C245.004 13.7334 244.838 13.6986 244.561 13.7155C244.266 13.7334 243.952 13.7354 243.652 13.7503C243.293 13.7682 243.145 13.6777 242.854 13.6787C242.55 13.6797 242.236 13.6926 241.941 13.7105C241.599 13.7314 241.36 13.6996 241.115 13.6569C241.064 13.6479 240.977 13.643 240.912 13.6449C240.072 13.6738 239.237 13.7026 238.398 13.7334C237.881 13.7523 237.881 13.7533 236.898 13.6986C236.829 13.6946 236.755 13.6907 236.686 13.6926C236.382 13.7016 236.068 13.7085 235.773 13.7254C235.413 13.7463 235.214 13.6926 234.961 13.6598C234.905 13.6529 234.818 13.6569 234.744 13.6588C234.513 13.6658 234.287 13.6748 234.056 13.6827C233.752 13.6936 233.448 13.7046 233.143 13.7155C232.954 13.6897 232.76 13.6628 232.571 13.637C232.193 13.6499 231.805 13.6569 231.431 13.6777C231.145 13.6936 231.012 13.6519 230.822 13.628C230.758 13.6201 230.689 13.6032 230.629 13.6042C229.941 13.6261 229.254 13.6489 228.571 13.6767C228.29 13.6887 228.161 13.6439 227.971 13.6211C227.907 13.6141 227.833 13.6012 227.773 13.6032C227.316 13.6171 226.86 13.634 226.403 13.6509C226.145 13.6608 226.145 13.6608 225.582 13.5992C225.517 13.5923 225.443 13.5853 225.379 13.5873C223.93 13.637 222.486 13.6897 221.037 13.7393C220.89 13.7443 220.756 13.7294 220.641 13.7026C220.521 13.6757 220.387 13.6618 220.239 13.6668C219.63 13.6877 219.017 13.7066 218.412 13.7324C218.163 13.7433 217.965 13.7304 217.794 13.6956C217.665 13.6698 217.545 13.6598 217.384 13.6658C217.079 13.6777 216.775 13.6877 216.47 13.6986C216.166 13.7095 215.861 13.7205 215.557 13.7314C215.252 13.7423 214.943 13.7483 214.643 13.7652C214.274 13.786 214.094 13.7244 213.841 13.6936C213.384 13.7085 212.927 13.7234 212.475 13.7393C211.866 13.7602 211.257 13.7831 210.648 13.8029C210.593 13.8049 210.524 13.787 210.459 13.7781C210.27 13.7533 210.131 13.7185 209.85 13.7294C208.484 13.7821 207.11 13.8268 205.739 13.8785C205.453 13.8894 205.329 13.8467 205.135 13.8238C205.071 13.8169 204.997 13.8029 204.937 13.8049C204.176 13.8298 203.414 13.8576 202.653 13.8844C202.344 13.8954 202.344 13.8954 201.827 13.8337C201.767 13.8268 201.689 13.8178 201.624 13.8198C200.632 13.8536 199.645 13.8894 198.653 13.9242C198.506 13.9291 198.372 13.9152 198.252 13.8884C198.137 13.8616 197.998 13.8467 197.855 13.8516C196.942 13.8834 196.024 13.9142 195.115 13.949C194.87 13.959 194.667 13.95 194.492 13.9142C194.367 13.8884 194.243 13.8775 194.086 13.8834C192.716 13.9321 191.346 13.9788 189.975 14.0305C189.712 14.0404 189.528 14.0216 189.362 13.9888C189.228 13.9629 189.113 13.958 188.947 13.9619C188.771 13.9669 188.665 13.9778 188.568 14.0076C188.444 14.0464 188.365 14.0951 188.07 14.0981C187.766 14.1011 187.457 14.113 187.157 14.1299C186.871 14.1468 186.737 14.1021 186.557 14.0752C186.423 14.0563 186.299 14.0534 186.128 14.0623C185.971 14.0703 185.874 14.0871 185.782 14.1189C185.579 14.1865 185.56 14.1865 185.311 14.1438C185.178 14.1209 185.058 14.103 184.91 14.107C184.301 14.1269 183.692 14.1488 183.083 14.1716C182.732 14.1845 182.728 14.1865 182.465 14.1368C182.336 14.112 182.211 14.1001 182.059 14.106C180.384 14.1656 178.71 14.2233 177.035 14.2859C176.777 14.2958 176.601 14.275 176.417 14.2451C176.357 14.2352 176.297 14.2213 176.228 14.2173C176.158 14.2133 176.08 14.2173 176.006 14.2193C174.788 14.262 173.566 14.3028 172.352 14.3505C172.075 14.3614 171.928 14.3296 171.739 14.3038C171.674 14.2948 171.619 14.2809 171.55 14.2769C171.48 14.274 171.397 14.2809 171.323 14.2839C170.106 14.3266 168.883 14.3674 167.67 14.4151C167.379 14.426 167.254 14.3843 167.065 14.3624C167.001 14.3545 166.932 14.3395 166.872 14.3415C166.489 14.3525 166.11 14.3674 165.727 14.3803C164.814 14.4131 163.9 14.4439 162.987 14.4777C162.636 14.4906 162.484 14.4021 162.189 14.4061C161.806 14.4111 161.428 14.431 161.045 14.4449C160.74 14.4558 160.436 14.4658 160.131 14.4777C159.831 14.4886 159.831 14.4886 159.084 14.431C159.02 14.426 158.941 14.419 158.877 14.421C157.811 14.4578 156.741 14.4946 155.679 14.5343C155.435 14.5433 155.232 14.5383 155.057 14.5015C154.932 14.4757 154.803 14.4628 154.651 14.4687C153.05 14.5254 151.454 14.582 149.853 14.6377C149.793 14.6397 149.714 14.6297 149.654 14.6218C149.525 14.6039 149.401 14.583 149.276 14.5641C149.184 14.587 149.064 14.6079 149.004 14.6337C148.921 14.6685 148.81 14.6784 148.635 14.6844C148.459 14.6903 148.349 14.6883 148.21 14.6625C148.044 14.6307 147.874 14.6059 147.601 14.6158C145.927 14.6784 144.252 14.7351 142.577 14.7967C142.301 14.8066 142.171 14.7629 141.978 14.74C141.913 14.7331 141.839 14.7221 141.779 14.7241C141.092 14.747 140.409 14.7718 139.722 14.7957C137.816 14.8632 135.911 14.9278 134.01 14.9994C133.664 15.0123 133.429 14.9875 133.184 14.9447C133.134 14.9358 133.046 14.9308 132.982 14.9328C130.315 15.0262 127.648 15.1206 124.986 15.215C124.843 15.22 124.705 15.2041 124.59 15.1782C124.47 15.1514 124.336 15.1385 124.188 15.1435C122.97 15.1862 121.753 15.2289 120.535 15.2727C120.23 15.2836 120.225 15.2846 119.912 15.2369C119.847 15.2269 119.778 15.2081 119.727 15.2101C119.621 15.215 119.52 15.2399 119.446 15.2736C119.372 15.3094 119.257 15.3194 119.086 15.3263C118.911 15.3333 118.795 15.3303 118.662 15.3064C118.491 15.2766 118.334 15.2478 118.057 15.2577C114.556 15.3849 111.054 15.5072 107.552 15.6334C107.271 15.6433 107.142 15.6016 106.948 15.5787C106.883 15.5718 106.819 15.5618 106.75 15.5598C106.676 15.5578 106.597 15.5638 106.524 15.5668C100.812 15.7685 95.1009 15.9712 89.3895 16.173C89.0481 16.1849 89.0527 16.1849 88.679 16.2763C88.6329 16.2872 88.5729 16.3021 88.5083 16.3041C86.7598 16.3677 85.0067 16.4293 83.2537 16.4909C82.4924 16.5178 81.7313 16.5456 80.97 16.5714C80.6979 16.5804 80.6979 16.5804 80.0474 16.6877C79.992 16.6967 79.9273 16.7086 79.8628 16.7106C76.8179 16.8189 73.773 16.9272 70.7236 17.0335C70.4837 17.0415 70.29 17.0594 70.1792 17.1071C70.1008 17.1408 69.9993 17.1607 69.8471 17.1667C67.7157 17.2422 65.5844 17.3187 63.4483 17.3923C63.1946 17.4012 63.0423 17.429 62.9177 17.4708C62.8762 17.4847 62.8393 17.5006 62.7793 17.5105C62.724 17.5194 62.6409 17.5224 62.5717 17.5254C60.7448 17.59 58.918 17.6566 57.0864 17.7182C56.8143 17.7271 56.7035 17.7639 56.5697 17.8027C56.5236 17.8156 56.4912 17.8335 56.4313 17.8424C56.3713 17.8504 56.2836 17.8504 56.2098 17.8523C54.6874 17.906 53.165 17.9607 51.6426 18.0143C51.3474 18.0093 51.2827 18.067 51.1397 18.1018C51.089 18.1137 51.0521 18.1296 50.9922 18.1375C50.9276 18.1455 50.8444 18.1445 50.766 18.1465C49.5481 18.1892 48.3302 18.2349 47.1076 18.2747C46.8262 18.2836 46.7708 18.3343 46.6186 18.3691C46.5678 18.38 46.5171 18.3969 46.4572 18.3999C45.6959 18.4287 44.9348 18.4555 44.1735 18.4814C43.9198 18.4903 43.9198 18.4893 43.4723 18.5877C43.4215 18.5986 43.3615 18.6106 43.2969 18.6135C42.1574 18.6553 41.0133 18.695 39.8692 18.7358C39.7216 18.7407 39.6201 18.7646 39.5463 18.7984C39.4725 18.8321 39.3664 18.854 39.2188 18.859C38.3053 18.8918 37.3918 18.9256 36.4783 18.9554C36.2246 18.9633 36.0585 18.9882 35.9478 19.0329C35.8648 19.0667 35.7633 19.0836 35.6018 19.0895C34.6884 19.1213 33.7749 19.1561 32.8569 19.1839C32.5893 19.1919 32.4508 19.2257 32.3401 19.2674C32.2524 19.3012 32.1509 19.3131 31.9802 19.3191C30.3056 19.3767 28.6263 19.4343 26.9563 19.4979C26.6749 19.5089 26.5318 19.4741 26.3473 19.4492C26.0843 19.4145 25.8399 19.3767 25.8399 19.2992C25.8399 19.2873 25.7614 19.2734 25.7061 19.2634C25.2955 19.1889 25.2955 19.1889 25.2309 19.1094C25.194 19.0607 25.1525 19.011 25.1202 18.9613C25.0602 18.8798 24.9125 18.859 24.4881 18.8739C24.3358 18.8789 24.1836 18.8858 24.0314 18.8898C23.8053 18.8967 23.6346 18.8639 23.5931 18.8043C23.57 18.7715 23.5424 18.7387 23.5193 18.7059C23.75 18.698 23.7453 18.697 24.1513 18.5768C24.322 18.5261 24.3221 18.5261 23.9945 18.4754C23.87 18.4565 23.75 18.4356 23.6162 18.4178C23.5562 18.4098 23.4778 18.4048 23.4132 18.4068C23.0303 18.4188 22.652 18.4327 22.2737 18.4466C21.6648 18.4684 21.6647 18.4684 21.0465 18.3671C20.9958 18.3591 20.9173 18.3442 20.9265 18.3363C20.9773 18.2995 21.1018 18.2836 21.2587 18.2796C21.4894 18.2737 21.7154 18.2637 21.9415 18.2558C22.0937 18.2508 22.246 18.2449 22.3982 18.2399C22.5412 18.2021 22.6889 18.1654 22.8227 18.1266C23.0349 18.067 23.0348 18.065 22.7442 18.0233C22.5597 17.9954 22.3613 17.9706 22.1721 17.9448C21.9461 17.9527 21.7154 17.9616 21.4894 17.9686C21.2033 17.9775 21.088 17.9587 21.0142 17.8941C20.9496 17.8374 21.028 17.7887 21.2495 17.7768C21.4755 17.7649 21.6878 17.7569 21.8032 17.7063C21.9139 17.6576 22.1076 17.6387 22.3475 17.6347C22.4998 17.6317 22.652 17.6248 22.8042 17.6188C23.0026 17.6109 23.1087 17.5602 23.0672 17.5035C23.0442 17.4668 22.998 17.436 22.8181 17.428C22.02 17.3932 22.0107 17.3942 21.6139 17.3267C21.577 17.3207 21.5494 17.3028 21.5633 17.2939C21.5863 17.279 21.6371 17.2571 21.6924 17.2541C22.223 17.2323 22.7535 17.2124 23.284 17.1975C23.4594 17.1925 23.5885 17.1855 23.6485 17.1488C23.7316 17.0981 23.6947 17.0514 23.5332 17.0166C23.4824 17.0057 23.3993 16.9918 23.344 16.9928C22.735 17.0107 22.1307 17.0335 21.5217 17.0514C21.4663 17.0534 21.3649 17.0365 21.3418 17.0236C21.2957 16.9997 21.3648 16.9679 21.5263 16.957C21.7385 16.9421 21.9554 16.9411 22.0984 16.8914C22.2967 16.8209 22.5412 16.7563 22.7627 16.6887C22.7996 16.6768 22.8596 16.6539 22.8458 16.6519C22.7305 16.6301 22.5966 16.6132 22.4767 16.5923C22.2737 16.5575 22.2737 16.5088 22.3198 16.4621C22.3567 16.4244 22.4951 16.4095 22.6658 16.4095C22.7396 16.4095 22.8319 16.4095 22.8919 16.4005C23.0487 16.3787 23.0995 16.3508 23.021 16.33C22.9749 16.318 22.8919 16.3012 22.8366 16.3031C21.8493 16.3359 20.8573 16.3677 19.8747 16.4085C19.584 16.4204 19.4503 16.3826 19.275 16.3558C19.1412 16.3349 19.0166 16.327 18.8505 16.3419C18.6937 16.3558 18.5415 16.3479 18.4446 16.3151C18.3662 16.2882 18.5045 16.2654 18.8782 16.2395C18.9474 16.2346 19.0258 16.2316 19.0766 16.2216C19.6117 16.1143 19.6117 16.1133 19.9808 16.0994C20.3406 16.0865 20.3407 16.0855 20.5299 16.0279C20.6175 16.001 20.7143 15.9742 20.7974 15.9464C20.8297 15.9355 20.8851 15.9156 20.8666 15.9096C20.7651 15.8788 20.6267 15.8719 20.4652 15.8788C20.1054 15.8957 19.681 15.8818 19.4918 15.9762C19.418 16.012 19.3027 16.0219 19.1366 16.0279C17.4665 16.0855 15.7964 16.1471 14.1218 16.2028C13.8496 16.2117 13.7251 16.2485 13.619 16.2892C13.5267 16.323 13.4252 16.3329 13.2499 16.3389C13.0746 16.3449 12.9361 16.3479 12.8346 16.3151C12.7746 16.2952 12.8254 16.2674 12.9638 16.2395C13.1622 16.1998 13.1253 16.1501 13.0607 16.1034C13.0145 16.0726 12.8715 16.0507 12.7193 16.0527C12.4932 16.0567 12.2765 16.0676 12.0873 16.0279C11.9766 16.005 11.8382 15.9891 11.7136 15.9692C11.4737 15.9285 11.2338 15.8868 10.897 15.9136C10.6663 15.9037 10.5049 15.8679 10.3203 15.8401C10.0112 15.7944 9.98356 15.7874 10.205 15.7387C10.4541 15.684 10.2603 15.6125 10.3987 15.5588C10.5464 15.5012 10.7494 15.4505 10.9293 15.3969C10.9755 15.383 11.017 15.37 11.0631 15.3561C10.957 15.3362 10.8602 15.3114 10.7356 15.2975C10.5741 15.2796 10.4911 15.2577 10.5003 15.1961C10.468 15.1872 10.4818 15.21 10.5187 15.216C10.5602 15.222 10.6618 15.217 10.7125 15.2101C10.8417 15.1912 10.9062 15.1663 10.8739 15.1455C10.8555 15.1345 10.7679 15.1206 10.7125 15.1206C10.611 15.1206 10.5234 15.1425 10.4957 15.1961C9.97901 15.2369 9.44377 15.2568 8.90861 15.2727C8.85325 15.2746 8.78409 15.2548 8.7195 15.2448C8.50729 15.211 8.50726 15.212 7.88445 15.2021C7.81986 15.2011 7.73225 15.1872 7.69996 15.1733C7.56617 15.1127 7.57082 15.0461 7.50623 14.9815C7.62618 14.9398 7.74603 14.899 7.87059 14.8583C8.11972 14.7758 8.44273 14.7033 8.63649 14.6128C8.59497 14.5641 8.5396 14.5154 8.74259 14.4757C9.31927 14.426 9.31469 14.426 9.47154 14.3783C9.91904 14.2432 10.3619 14.107 10.8279 13.9739C10.9524 13.9391 10.9524 13.9202 10.731 13.9053C10.6618 13.9013 10.5879 13.9003 10.5141 13.9023C10.2834 13.9093 10.0527 13.9272 9.82667 13.9232C9.60062 13.9202 9.43453 13.8765 9.25 13.8496C9.06085 13.8218 8.87171 13.793 8.68256 13.7642C8.46573 13.7672 8.24894 13.795 8.03211 13.7503C7.86603 13.7155 7.65844 13.6906 7.46929 13.6618C7.6123 13.5863 7.87992 13.5287 8.08752 13.4621C8.27667 13.4015 8.28118 13.4025 8.78866 13.3558C9.02855 13.3339 9.1116 13.2216 8.90861 13.1888C8.6641 13.1491 8.4058 13.1123 8.15668 13.0745C7.93985 13.0775 7.71845 13.1044 7.51085 13.0596C7.34938 13.0259 7.16481 13.003 6.89723 13.0159C6.44512 13.0378 5.98379 13.0487 5.52706 13.0666C5.37021 13.0726 5.19946 13.0686 5.13026 13.0348C5.08413 13.011 5.21792 12.9782 5.37017 12.9712C5.60084 12.9613 5.80842 12.9493 5.92375 12.8997C6.03447 12.85 6.23744 12.8351 6.47734 12.8281C6.54193 12.8261 6.61579 12.8142 6.64809 12.8023C6.81417 12.7446 6.99872 12.6949 7.35395 12.6969C7.50158 12.6771 7.57996 12.6522 7.53383 12.6284C7.50615 12.6154 7.40931 12.5986 7.35395 12.6005C6.97104 12.6105 6.58814 12.6204 6.21446 12.6383C6.03915 12.6463 5.90529 12.6482 5.79456 12.6184C5.71614 12.5986 5.75765 12.5717 5.90528 12.5429C6.03446 12.5181 6.0714 12.4892 6.06218 12.4555C6.03911 12.377 5.90068 12.3541 5.45779 12.3591C5.13947 12.363 5.06104 12.3501 4.99184 12.2825C4.97338 12.2667 4.92733 12.2448 4.95962 12.2339C5.158 12.1663 5.28718 12.0828 5.66087 12.051C5.8085 12.0391 5.96529 12.0391 6.05756 12.0133C6.14983 11.9874 6.23291 11.9576 6.32979 11.9328C6.44974 11.9029 6.5327 11.8751 6.47734 11.8563C6.38507 11.8225 6.23749 11.8195 6.0668 11.8314C5.91917 11.8413 5.76232 11.8423 5.61007 11.8483C5.33788 11.8592 5.11649 11.8334 5.08419 11.7897C4.99654 11.6744 4.90424 11.5601 4.82582 11.4449C4.81659 11.4309 4.83959 11.413 4.8765 11.4011C5.00568 11.3594 5.14413 11.3196 5.27792 11.2789C5.43478 11.2322 5.68394 11.2411 5.89616 11.2322C6.19603 11.2193 6.19593 11.2203 6.59729 11.1249C6.75415 11.0871 7.02635 11.102 7.18782 11.0682C7.23857 11.0573 7.317 11.0394 7.30316 11.0295C7.2847 11.0166 7.19248 11.0066 7.12328 11.0007C7.05869 10.9947 6.98028 10.9917 6.91108 10.9947C6.07144 11.0235 5.23644 11.0543 4.3968 11.0821C4.25379 11.0871 4.09693 11.0653 4.04618 11.0344C3.99543 11.0056 4.00923 10.9708 4 10.938C4.13379 10.8973 4.28597 10.8595 4.40131 10.8158C4.48896 10.782 4.59047 10.7671 4.76578 10.7651C4.99645 10.7622 5.22253 10.7502 5.48088 10.7413C5.96068 10.5962 6.43121 10.4442 6.94791 10.2991C7.15552 10.2405 7.10485 10.1808 7.14637 10.1182C7.18789 10.0606 7.49697 10.0695 7.70458 10.0527C7.87066 10.0387 7.92595 10.0069 7.86136 9.98507C7.82445 9.97216 7.74146 9.95725 7.67687 9.95725C7.52463 9.95725 7.37239 9.96619 7.22015 9.97116C7.0679 9.97613 6.8926 9.97316 6.76804 9.99005C6.64809 10.0059 6.56962 10.0397 6.49119 10.0685C6.40354 10.1003 6.28828 10.1113 6.11297 10.1133C5.88692 10.1153 5.66087 10.1242 5.43482 10.1311C5.18569 10.0924 4.92729 10.0546 4.68739 10.0139C4.64126 10.0059 4.63198 9.9831 4.6366 9.96819C4.64582 9.92943 4.57664 9.90558 4.4244 9.8867C4.29522 9.8708 4.1891 9.84795 4.06916 9.82807C4.16142 9.80124 4.26295 9.7754 4.33677 9.74658C4.49824 9.68596 4.70125 9.64225 5.05187 9.64424C5.19027 9.60548 5.30096 9.55778 5.48088 9.53095C5.65158 9.50511 5.94224 9.53094 6.07141 9.47231C6.136 9.4435 6.23294 9.4107 6.3575 9.39878C6.55587 9.3799 6.81422 9.38985 6.92956 9.3342C6.99876 9.3024 7.10021 9.27357 7.234 9.26562C7.38624 9.25668 7.54306 9.2547 7.65378 9.23582C7.71375 9.22588 7.77835 9.20998 7.77835 9.19607C7.77835 9.18713 7.68615 9.17321 7.62157 9.16725C7.56159 9.16029 7.48307 9.15532 7.41387 9.15731C7.1832 9.16327 6.95715 9.1742 6.72648 9.18017C6.66189 9.18215 6.5881 9.1752 6.5189 9.16924C6.31591 9.15334 6.32972 9.13347 6.49119 9.09769C6.65266 9.06291 6.76806 9.01819 6.90185 8.97744C7.04948 8.97049 7.23399 8.97347 7.33548 8.95459C7.50618 8.92379 7.62609 8.87907 7.7645 8.84031C7.91674 8.83435 8.07358 8.83237 8.2166 8.82144C8.27657 8.81746 8.30428 8.7956 8.35502 8.78268C8.44729 8.75784 8.52578 8.72206 8.65035 8.71014C8.85334 8.69225 9.10245 8.69921 9.2224 8.64455C9.2916 8.61275 9.39767 8.57897 9.52685 8.57699C9.88669 8.57301 10.0389 8.51834 10.2235 8.46667C10.3619 8.42792 10.6571 8.4478 10.8094 8.40904C10.9109 8.3842 10.9847 8.35339 11.0862 8.32954C11.1278 8.3196 11.2154 8.31464 11.2846 8.31166C11.6629 8.29675 12.0458 8.28582 12.4241 8.26992C12.4841 8.26694 12.5395 8.25204 12.5856 8.24011C12.6825 8.21428 12.7424 8.1785 12.8623 8.16161C12.9823 8.14471 13.1529 8.14472 13.3006 8.13975C13.7758 8.12484 13.8127 8.12881 14.0295 8.04434C14.2048 7.97578 14.6339 8.02447 14.777 7.94895C14.86 7.90523 15.0122 7.86945 15.2844 7.86449C15.6673 7.85753 16.0456 7.83865 16.4285 7.82573C16.7699 7.8138 16.7653 7.8138 17.1343 7.72138C17.3004 7.67965 17.545 7.68562 17.7618 7.67767C17.9925 7.66972 18.2047 7.6578 18.3154 7.60811C18.4261 7.55942 18.6291 7.54351 18.8644 7.53655C19.0812 7.5296 19.3258 7.53457 19.4965 7.49483C19.9117 7.39943 19.9071 7.39843 20.1977 7.38849C20.6544 7.37259 21.1111 7.35669 21.5679 7.3398C21.8724 7.32887 22.1907 7.32688 22.4767 7.30502C22.6843 7.28912 22.7765 7.23348 22.9103 7.19472C23.2886 7.17981 23.6669 7.1649 24.0452 7.15099C24.5758 7.13112 25.1109 7.11323 25.646 7.09435C25.8767 7.05659 25.9091 6.97312 26.2966 6.96914C26.5273 6.96716 26.7533 6.95424 26.984 6.94629C27.3669 6.93238 27.7452 6.91449 28.1281 6.90753C28.4188 6.90257 28.4694 6.8489 28.6217 6.81511C28.6724 6.80319 28.7186 6.7863 28.7786 6.78332C29.3783 6.7555 29.9965 6.74953 30.5824 6.70879C30.6423 6.70482 30.6977 6.68395 30.7116 6.66904C30.7208 6.66109 30.6423 6.64619 30.5916 6.63924C30.5316 6.63129 30.4532 6.62334 30.3886 6.62532C28.4833 6.6919 26.578 6.75948 24.6727 6.82606C24.4051 6.83599 24.4051 6.83499 23.7546 6.9443C23.6993 6.95325 23.6346 6.96318 23.5654 6.96616C23.2609 6.97809 22.9518 6.98505 22.652 6.99996C22.4074 7.01188 22.2045 6.99995 22.0292 6.96417C21.9046 6.93833 21.7754 6.93039 21.6186 6.93238C21.4432 6.93536 21.328 6.94629 21.2265 6.97312C21.0927 7.00989 21.0235 7.05758 20.7421 7.06752C19.4457 7.11025 18.1492 7.15795 16.8575 7.20366C16.6776 7.18975 16.5899 7.16888 16.6361 7.14404C16.6637 7.12913 16.7191 7.10926 16.7745 7.10727C17.305 7.0864 17.8402 7.06852 18.3707 7.04865C18.4445 7.04567 18.546 7.04764 18.5875 7.03771C18.7905 6.99299 18.8644 6.92045 19.2473 6.91548C19.4688 6.9125 19.6948 6.8976 19.907 6.88369C19.967 6.87971 20.0224 6.85884 20.0362 6.84394C20.0408 6.83599 19.967 6.82108 19.9116 6.81412C19.7086 6.7853 19.4734 6.82009 19.2704 6.80022C19.2012 6.79326 19.1043 6.78332 19.0904 6.7714C19.0812 6.76047 19.1596 6.74258 19.215 6.73165C19.2657 6.72171 19.3349 6.71277 19.4041 6.70979C20.0131 6.68693 20.6221 6.66308 21.2311 6.64519C21.4802 6.63824 21.6555 6.61339 21.7662 6.56768C21.8493 6.53389 21.9507 6.51601 22.1076 6.51104C23.1733 6.47428 24.239 6.43353 25.3093 6.39975C25.5769 6.3918 25.7153 6.35901 25.826 6.31628C25.9137 6.28249 26.0152 6.27057 26.1859 6.2646C27.7129 6.21293 29.2307 6.1553 30.7577 6.10561C31.0392 6.09667 31.1222 6.05394 31.2653 6.01717C31.316 6.00425 31.3482 5.98835 31.4128 5.9804C31.4774 5.97245 31.5604 5.97344 31.6389 5.97145C32.8568 5.92872 34.0748 5.88302 35.2974 5.84327C35.5834 5.83432 35.6387 5.78463 35.7863 5.74985C35.837 5.73892 35.8832 5.72104 35.9432 5.71806C36.8566 5.68427 37.7701 5.65247 38.6835 5.61968C39.2925 5.59782 39.9014 5.57595 40.5104 5.55509C40.8103 5.54515 40.8103 5.54415 41.2163 5.44975C41.2624 5.43882 41.3271 5.4259 41.387 5.42291C43.1401 5.35932 44.8886 5.29871 46.6416 5.23611C46.7893 5.23114 46.8954 5.20827 46.9692 5.17449C47.043 5.1407 47.1492 5.11784 47.2922 5.11288C48.6624 5.06319 50.0325 5.0145 51.4073 4.9678C51.6564 4.95985 51.8317 4.936 51.9424 4.89128C52.0255 4.85749 52.127 4.83961 52.2838 4.83464C53.654 4.78694 55.0243 4.73626 56.3991 4.69055C56.662 4.6816 56.7911 4.64782 56.9203 4.60807C56.9665 4.59416 57.0034 4.5713 57.0587 4.56931C57.7415 4.54149 58.4197 4.51267 59.1071 4.49379C59.3931 4.48584 59.49 4.4441 59.6054 4.40435C59.6976 4.37256 59.8038 4.36163 59.9791 4.35765C60.362 4.34871 60.7403 4.33182 61.1139 4.31493C61.1693 4.31195 61.2385 4.29008 61.2431 4.27617C61.2524 4.25034 61.1462 4.23245 60.9709 4.2235C59.144 4.28809 57.3125 4.35268 55.4856 4.41727C55.1857 4.4282 55.1857 4.42821 54.7798 4.52261C54.7336 4.53354 54.669 4.54646 54.6044 4.54945C52.8513 4.61205 51.1029 4.67366 49.3498 4.73626C49.2021 4.74123 49.096 4.76409 49.0222 4.79787C48.9484 4.83166 48.8422 4.85452 48.6992 4.85948C47.0245 4.91911 45.3499 4.97973 43.6706 5.03637C43.4215 5.04432 43.2463 5.06716 43.1355 5.11288C43.0525 5.14666 42.951 5.16456 42.7941 5.16952C41.1933 5.22517 39.597 5.2838 37.9915 5.33746C37.83 5.34242 37.7102 5.31361 37.7194 5.28678C37.724 5.27286 37.7931 5.25002 37.8485 5.24803C38.6835 5.21524 39.514 5.18145 40.3536 5.15661C40.635 5.14866 40.718 5.10493 40.861 5.06816C40.9072 5.05524 40.9441 5.03835 41.0041 5.0314C41.0687 5.02345 41.1517 5.02444 41.2301 5.02246C43.2093 4.9519 45.1885 4.88036 47.1723 4.81378C47.4583 4.80384 47.5136 4.75514 47.6612 4.72036C47.7119 4.70844 47.7581 4.69056 47.8181 4.68857C48.4271 4.66472 49.036 4.64385 49.645 4.62298C50.7107 4.58522 51.7763 4.54746 52.8466 4.50969C53.1557 4.49876 53.1558 4.49876 53.5525 4.40535C53.5986 4.39442 53.6633 4.38052 53.7233 4.37853C56.542 4.27816 59.3609 4.1778 62.1797 4.07842C62.3273 4.07346 62.4334 4.0506 62.5072 4.01681C62.581 3.98402 62.6871 3.96017 62.8301 3.95421C66.6408 3.81906 70.4468 3.68391 74.2575 3.55075C74.5066 3.54181 74.6819 3.52094 74.7926 3.47424C74.8711 3.44045 74.9772 3.42257 75.134 3.4166C79.323 3.26854 83.512 3.12048 87.7055 2.97142C90.5243 2.87205 93.3432 2.77069 96.1619 2.67331C96.4203 2.66436 96.5586 2.63355 96.6878 2.59281C96.7293 2.5789 96.7709 2.55604 96.8262 2.55405C97.4306 2.52921 98.0349 2.50636 98.6393 2.4835C98.8284 2.51033 99.0176 2.53617 99.2067 2.563C99.3497 2.52524 99.4882 2.48649 99.6312 2.44872C100.545 2.41991 101.444 2.37519 102.367 2.36128C102.427 2.36028 102.491 2.37917 102.556 2.3891C102.985 2.45171 103.23 2.44674 103.502 2.36327C103.599 2.33345 103.682 2.30663 103.829 2.30166C104.286 2.28377 104.748 2.27184 105.2 2.25098C105.444 2.24004 105.647 2.24998 105.822 2.28575C105.947 2.31159 106.076 2.32253 106.228 2.31656C107.068 2.28675 107.903 2.25793 108.743 2.22613C108.803 2.22415 108.858 2.20725 108.904 2.19532C109.001 2.16949 109.084 2.14167 109.176 2.11484C109.301 2.13173 109.439 2.14465 109.541 2.16651C109.67 2.19235 109.79 2.19234 109.965 2.18539C113.315 2.06515 116.669 1.94789 120.018 1.82666C120.304 1.81672 120.428 1.85846 120.622 1.88032C120.687 1.88827 120.751 1.8982 120.821 1.90019C120.894 1.90218 120.973 1.89622 121.047 1.89324C123.561 1.80381 126.075 1.71536 128.59 1.62592C128.922 1.614 128.922 1.614 129.415 1.67561C129.475 1.68356 129.554 1.6925 129.618 1.68952C130.762 1.65077 131.907 1.60904 133.046 1.56929C133.194 1.56432 133.318 1.58021 133.452 1.60307C133.715 1.64779 133.733 1.64779 133.927 1.58221C134.019 1.5514 134.116 1.53251 134.269 1.52357C134.435 1.51363 134.569 1.51662 134.698 1.53451C134.882 1.55935 135.016 1.60108 135.297 1.59015C136.515 1.54345 137.738 1.50469 138.951 1.457C139.228 1.44607 139.376 1.47985 139.56 1.50469C139.625 1.51364 139.685 1.52755 139.754 1.53053C139.823 1.53351 139.906 1.52655 139.98 1.52357C141.502 1.46991 143.029 1.41725 144.547 1.35961C144.833 1.34868 144.958 1.3914 145.152 1.41327C145.216 1.42122 145.29 1.43514 145.35 1.43315C146.263 1.40234 147.182 1.36954 148.095 1.33675C148.423 1.32482 148.423 1.32582 148.921 1.38643C148.981 1.39438 149.059 1.40234 149.124 1.40035C150.19 1.36358 151.26 1.32582 152.326 1.28806C152.653 1.27613 152.653 1.27613 153.599 1.32781C153.668 1.33178 153.742 1.33775 153.811 1.33577C155.029 1.29304 156.251 1.25129 157.469 1.20558C157.714 1.19664 157.917 1.20459 158.092 1.24036C158.217 1.2662 158.346 1.27713 158.498 1.27117C159.868 1.22248 161.243 1.17578 162.609 1.1241C162.872 1.11417 163.042 1.13602 163.227 1.16484C163.287 1.17477 163.347 1.18869 163.416 1.19266C163.485 1.19664 163.564 1.19266 163.638 1.18968C165.008 1.14099 166.383 1.09528 167.748 1.04261C168.025 1.03168 168.173 1.06547 168.357 1.09031C168.422 1.09925 168.491 1.11714 168.546 1.11615C169.081 1.09925 169.616 1.08435 170.147 1.05951C170.433 1.0456 170.558 1.0913 170.751 1.11316C170.816 1.12012 170.89 1.13503 170.95 1.13304C172.094 1.09429 173.238 1.05355 174.378 1.01181C174.539 1.00585 174.659 1.01479 174.788 1.04062C174.959 1.0754 175.157 1.08932 175.406 1.07838C175.937 1.05553 176.472 1.03963 177.007 1.02075C177.321 1.00982 177.321 1.00983 178.281 1.0615C178.35 1.06547 178.424 1.07143 178.493 1.06944C179.406 1.03765 180.324 1.00684 181.233 0.972062C181.478 0.962125 181.681 0.971066 181.856 1.00684C181.98 1.03268 182.105 1.04361 182.262 1.03765C183.101 1.00784 183.937 0.978025 184.776 0.948213C185.081 0.937283 185.385 0.918397 185.69 0.918397C185.911 0.919391 186.073 0.967087 186.271 0.990937C186.326 0.997893 186.419 0.989952 186.492 0.987965C187.558 0.950203 188.628 0.91542 189.689 0.87269C189.966 0.861759 190.114 0.895544 190.298 0.920386C190.363 0.92933 190.432 0.947218 190.488 0.946224C190.87 0.935293 191.249 0.920386 191.632 0.907468C192.088 0.891568 192.55 0.879644 193.002 0.857782C193.371 0.839895 193.509 0.926345 193.805 0.929327C194.031 0.932308 194.261 0.915417 194.487 0.907468C194.944 0.891568 195.401 0.873683 195.857 0.859771C196.019 0.854803 196.144 0.838896 196.194 0.803122C196.204 0.796166 196.125 0.781267 196.074 0.772323C195.461 0.670964 195.461 0.670959 194.843 0.692821C194.46 0.706733 194.081 0.720648 193.698 0.732572C193.634 0.73456 193.56 0.726611 193.495 0.720648C193.311 0.703755 193.329 0.683883 193.486 0.648109C193.643 0.612335 193.763 0.568615 193.897 0.527873C194.086 0.55371 194.271 0.579537 194.46 0.605374C194.612 0.600405 194.764 0.594451 194.916 0.589483C195.678 0.563646 196.439 0.536814 197.2 0.512965C197.255 0.510977 197.325 0.530854 197.389 0.540792C197.574 0.569609 197.74 0.594446 198.007 0.583515C198.69 0.554697 199.378 0.533829 200.06 0.508986C200.36 0.498055 200.36 0.498056 200.886 0.559666C200.946 0.566623 201.025 0.574573 201.089 0.572585C201.777 0.54973 202.459 0.52489 203.147 0.501041C203.294 0.496072 203.437 0.50899 203.544 0.537808C203.585 0.549732 203.576 0.569603 203.751 0.732572C204.295 0.864737 204.669 0.850832 205.047 0.838907C205.209 0.833938 205.352 0.828965 205.458 0.809091C205.513 0.79816 205.583 0.782258 205.583 0.769339C205.583 0.759402 205.481 0.7435 205.417 0.741512C204.96 0.721638 204.526 0.76338 204.079 0.772323C203.871 0.776298 203.691 0.741518 203.654 0.684876C203.645 0.668976 203.631 0.652084 203.617 0.636185C203.603 0.620285 203.594 0.603393 203.58 0.587493C203.401 0.582525 203.294 0.600409 203.216 0.634195C203.151 0.662019 203.059 0.693818 202.934 0.708724C202.81 0.724624 202.639 0.721648 202.487 0.726616C202.339 0.731585 202.178 0.744502 202.04 0.737546C201.901 0.729596 201.79 0.700773 201.661 0.682886C201.601 0.673943 201.527 0.66103 201.467 0.663017C200.937 0.67991 200.411 0.696797 199.885 0.718659C199.608 0.730583 199.47 0.688854 199.295 0.663017C199.156 0.643143 199.018 0.648105 198.995 0.693816C198.935 0.803125 199.147 0.848833 199.617 0.827965C200.005 0.810078 200.356 0.807107 200.66 0.874679C200.702 0.883623 200.798 0.887596 200.858 0.885609C201.237 0.873684 201.61 0.858777 201.989 0.846852C202.058 0.844865 202.132 0.848833 202.196 0.852808C203.138 0.906469 203.138 0.907468 203.456 0.895544C203.608 0.889581 203.756 0.884612 203.742 0.733567C204.032 0.571591 204.494 0.560662 204.941 0.536813C205.232 0.521907 205.356 0.565633 205.546 0.588488C205.61 0.596438 205.68 0.612334 205.739 0.610347C206.731 0.577554 207.719 0.542769 208.706 0.506002C208.872 0.50004 208.992 0.506003 209.121 0.531839C209.287 0.564632 209.472 0.585505 209.735 0.57358C210.261 0.549731 210.796 0.534828 211.331 0.514954C211.603 0.505017 211.603 0.505007 212.152 0.566617C212.212 0.573573 212.29 0.581523 212.355 0.579536C212.89 0.562643 213.421 0.541781 213.951 0.523894C214.099 0.518926 214.233 0.532836 214.348 0.559666C214.463 0.586497 214.602 0.600407 214.745 0.595439C215.28 0.577552 215.811 0.557684 216.341 0.539797C216.406 0.53781 216.484 0.544765 216.544 0.551721C217.107 0.613332 217.107 0.613321 217.365 0.603384C217.744 0.588478 218.131 0.58153 218.505 0.561656C218.869 0.541782 219.058 0.599412 219.307 0.631211C219.99 0.608356 220.678 0.58948 221.356 0.561656C221.633 0.549731 221.78 0.582521 221.965 0.608358C222.029 0.617301 222.094 0.636184 222.154 0.63519C222.385 0.631215 222.611 0.620286 222.837 0.612336C223.063 0.604387 223.294 0.596438 223.52 0.588488C223.778 0.617306 223.949 0.684878 224.318 0.662022C224.539 0.64811 224.774 0.645129 225 0.637179C225.226 0.62923 225.457 0.621281 225.683 0.613331C225.835 0.608363 225.992 0.605377 226.14 0.596434C226.412 0.581528 226.546 0.630226 226.74 0.652088C226.804 0.659044 226.878 0.67096 226.938 0.668973C227.395 0.655061 227.856 0.643137 228.304 0.620282C228.65 0.602395 228.885 0.63221 229.129 0.673946C229.18 0.68289 229.268 0.687858 229.332 0.685871C229.868 0.668977 230.398 0.648103 230.929 0.630217C231.072 0.625248 231.21 0.641147 231.325 0.666984C231.445 0.693814 231.579 0.706742 231.727 0.701773C232.257 0.683887 232.792 0.664006 233.323 0.646119C233.388 0.644132 233.466 0.652083 233.526 0.660033C234.043 0.721643 234.043 0.722638 234.347 0.710713C234.421 0.707732 234.499 0.705737 234.573 0.702756C234.952 0.688844 235.344 0.683882 235.713 0.660033C236.137 0.633203 236.446 0.66699 236.746 0.723632C237.124 0.711708 237.512 0.70475 237.881 0.684876C238.158 0.66997 238.305 0.707729 238.49 0.732572C238.555 0.741516 238.624 0.759403 238.679 0.757415C239.214 0.740522 239.749 0.725622 240.275 0.700779C240.561 0.686867 240.686 0.731576 240.88 0.754431C240.944 0.762381 241.013 0.7763 241.073 0.774313C241.378 0.766363 241.683 0.754433 241.987 0.743502C242.342 0.730583 242.342 0.731576 242.813 0.792193C243.034 0.821011 243.256 0.798154 243.473 0.791198C243.703 0.783249 243.92 0.777288 244.104 0.818031C244.22 0.843867 244.358 0.859767 244.501 0.855792C244.806 0.846849 245.115 0.83791 245.415 0.823004C245.655 0.811079 245.862 0.819025 246.037 0.855792C246.162 0.881629 246.291 0.894555 246.444 0.888593C247.126 0.864744 247.814 0.839891 248.496 0.817036C248.556 0.815049 248.639 0.823995 248.695 0.832939C248.824 0.850826 248.949 0.870696 249.073 0.89057C249.373 0.881627 249.682 0.877662 249.977 0.86375C250.291 0.849838 250.577 0.844868 250.822 0.899522C250.872 0.911447 250.946 0.928331 251.006 0.927337C251.237 0.923362 251.463 0.913428 251.689 0.905478C251.915 0.897529 252.146 0.88958 252.372 0.88163C252.635 0.906473 252.801 0.97802 253.17 0.955164C253.391 0.941252 253.627 0.938271 253.853 0.930321C254.079 0.922371 254.309 0.913429 254.535 0.906473C254.609 0.904486 254.692 0.899514 254.757 0.903489C254.826 0.907464 254.886 0.921379 254.946 0.931316C255.131 0.960134 255.301 0.988955 255.564 0.972062C255.786 0.95815 256.021 0.955168 256.247 0.946224C256.556 0.935293 256.556 0.935295 257.068 0.997899C257.276 1.02374 257.511 0.989951 257.709 1.01181C257.843 1.02672 257.959 1.05156 258.088 1.06845C258.143 1.07541 258.231 1.07838 258.295 1.07639C258.6 1.06745 258.909 1.05851 259.209 1.04361C259.453 1.03168 259.656 1.04361 259.827 1.07938C259.952 1.10522 260.076 1.11615 260.233 1.11019C260.994 1.08237 261.755 1.05851 262.512 1.0277C262.77 1.01677 262.978 1.03367 263.121 1.06944C263.365 1.13105 263.711 1.05851 263.965 1.1082C264.122 1.13901 264.279 1.17478 264.565 1.15988C265.091 1.13404 265.626 1.12012 266.157 1.10223C266.346 1.12906 266.535 1.1559 266.729 1.18273C267.033 1.1718 267.338 1.16086 267.642 1.15092C267.868 1.14297 268.099 1.13403 268.325 1.12708C268.399 1.12509 268.477 1.12111 268.546 1.12608C268.615 1.13105 268.671 1.14397 268.736 1.15391C269.054 1.2026 269.054 1.2036 269.58 1.18372C269.806 1.17478 270.023 1.16882 270.212 1.20857C270.387 1.24533 270.595 1.25229 270.835 1.24136C271.287 1.22148 271.743 1.20658 272.205 1.19266C272.348 1.1877 272.482 1.20459 272.602 1.23043C272.781 1.27117 273.003 1.26719 273.229 1.25626C273.529 1.24235 273.824 1.22844 274.078 1.28409C274.129 1.29602 274.207 1.3129 274.262 1.31191C274.641 1.30396 275.024 1.298 275.393 1.27912C275.762 1.26024 275.942 1.32184 276.195 1.35166C276.574 1.33874 276.957 1.32582 277.335 1.3129C277.409 1.30992 277.496 1.30098 277.561 1.30595C277.833 1.32682 277.99 1.40134 278.364 1.37849C278.58 1.36557 278.816 1.3616 279.042 1.35862C279.102 1.35763 279.18 1.37451 279.222 1.38743C279.245 1.39438 279.222 1.41326 279.194 1.4232C279.111 1.45103 279.009 1.47687 278.936 1.50569C278.926 1.50966 279.014 1.52754 279.065 1.53549C279.189 1.55338 279.332 1.5504 279.499 1.54245C279.642 1.5355 279.789 1.54941 279.891 1.57922C279.932 1.59115 279.918 1.61102 279.831 1.6766C279.831 1.7253 279.928 1.70343 279.96 1.67163C280.011 1.62592 279.914 1.61102 279.729 1.63586C279.6 1.65375 279.535 1.67958 279.568 1.70045C279.586 1.71138 279.674 1.7253 279.831 1.6766C280.237 1.61698 280.541 1.60606 280.846 1.59512C280.924 1.59214 281.016 1.5822 281.072 1.58816C281.27 1.61201 281.455 1.64083 281.648 1.66766C281.87 1.6617 282.077 1.64679 282.294 1.68554C282.599 1.7402 282.613 1.73523 282.908 1.7243C283.06 1.71834 283.212 1.71338 283.365 1.70841C283.517 1.70344 283.637 1.71834 283.771 1.7412C284.043 1.7879 284.066 1.7879 284.246 1.7243C284.352 1.68555 284.426 1.67263 284.559 1.69052C285.002 1.75113 285.007 1.75511 285.385 1.73722C285.699 1.72231 285.994 1.71834 286.225 1.77498C286.382 1.81473 286.432 1.80579 286.557 1.76405C286.889 1.65375 287.041 1.65573 287.664 1.73523C287.955 1.77299 288.255 1.73225 288.55 1.72728C288.799 1.72331 288.974 1.74715 288.993 1.80976C289.007 1.84851 289.048 1.87634 289.214 1.88926C289.279 1.89423 289.357 1.90118 289.422 1.8992C289.805 1.88727 290.183 1.87336 290.566 1.85944C290.76 1.85249 290.866 1.80579 290.829 1.74418C290.788 1.6786 290.861 1.65474 291.138 1.63586C291.304 1.62493 291.438 1.62692 291.572 1.64481C291.719 1.66468 291.678 1.68257 291.549 1.71834C291.24 1.80579 291.277 1.85944 291.673 1.92006C291.812 1.94093 291.922 1.95982 291.955 1.99062C291.973 2.00652 291.955 2.02739 291.996 2.03931C292.222 2.10589 292.536 2.14863 292.887 2.18043C293.223 2.1536 293.454 2.1983 293.712 2.23408C293.915 2.2619 294.155 2.23806 294.372 2.22812C294.617 2.21719 294.82 2.22514 294.995 2.26191C295.12 2.28774 295.249 2.29966 295.401 2.29469C295.705 2.28376 296.014 2.27681 296.314 2.26091C296.573 2.247 296.766 2.26688 296.928 2.30066C297.131 2.34339 297.357 2.31457 297.569 2.32053C297.855 2.32749 297.998 2.41593 298.372 2.39208C298.593 2.37816 298.824 2.3732 299.055 2.36922C299.115 2.36823 299.189 2.38512 299.239 2.39705C299.484 2.4517 299.77 2.44872 300.084 2.43282C300.3 2.42189 300.513 2.41196 300.725 2.44972C301.075 2.51332 301.463 2.56897 301.832 2.6276C301.883 2.67331 301.846 2.72696 302.109 2.75379C302.247 2.7677 302.376 2.78858 302.483 2.81143C302.612 2.83826 302.732 2.84522 302.898 2.83827C303.198 2.82435 303.511 2.82136 303.807 2.80348C304.079 2.78758 304.249 2.82038 304.415 2.85119C304.549 2.87603 304.674 2.88795 304.835 2.87006C305.001 2.85317 305.121 2.86409 305.255 2.89092C305.444 2.92769 305.458 2.92372 306.086 2.93465C306.15 2.93565 306.229 2.95055 306.265 2.96346C306.284 2.97042 306.242 2.99031 306.21 3.00024C306.169 3.01217 306.104 3.02607 306.044 3.02905C305.361 3.05489 304.674 3.07774 303.991 3.10358C303.922 3.10656 303.848 3.11353 303.797 3.12346C303.742 3.13439 303.673 3.14929 303.673 3.1632C303.673 3.17314 303.765 3.18507 303.83 3.19202C304.033 3.21488 304.273 3.1801 304.471 3.20594C304.605 3.22283 304.715 3.24667 304.849 3.26257C304.904 3.26953 304.992 3.26854 305.061 3.26655C305.292 3.2596 305.518 3.24966 305.749 3.2437C305.813 3.24271 305.887 3.25265 305.947 3.2606C306.39 3.32022 306.39 3.32022 306.773 3.3073C306.925 3.30233 307.087 3.28742 307.23 3.29338C307.368 3.29935 307.488 3.32618 307.613 3.34307C307.871 3.37884 308.115 3.41362 308.134 3.49113C308.143 3.52095 308.295 3.54678 308.448 3.54876C308.595 3.55075 308.752 3.53983 308.904 3.53387C309.264 3.52194 309.264 3.52194 309.73 3.58256C309.859 3.59945 309.998 3.60144 310.164 3.5915C310.228 3.58753 310.307 3.5915 310.376 3.59647C310.602 3.61138 310.602 3.63025 310.454 3.66603C310.247 3.7187 310.265 3.72367 310.847 3.76838C311.068 3.78528 311.239 3.81708 311.423 3.8449C311.723 3.88962 311.719 3.88961 311.52 3.94824C311.474 3.96116 311.433 3.97508 311.386 3.98899C311.253 4.02774 311.146 4.06948 310.87 4.07345C310.565 4.07743 310.261 4.09333 309.956 4.10426C309.661 4.11519 309.583 4.13903 309.61 4.20661C309.642 4.28809 309.703 4.29704 310.233 4.29604C310.385 4.29604 310.519 4.30399 310.634 4.33082C310.579 4.36262 310.478 4.38746 310.33 4.39342C309.952 4.40833 309.569 4.42125 309.19 4.43417C308.886 4.4451 308.581 4.45603 308.277 4.46696C308.088 4.47391 307.968 4.52559 308.019 4.58323C308.046 4.61602 308.069 4.64881 308.092 4.68161C308.143 4.74719 308.24 4.76409 308.549 4.76111C308.628 4.76011 308.701 4.75216 308.775 4.75414C309.075 4.7611 309.218 4.84358 309.578 4.82668C309.878 4.81277 310.192 4.80979 310.487 4.79191C310.759 4.77601 310.911 4.81179 311.1 4.83862C311.165 4.84756 311.234 4.86643 311.29 4.86544C311.672 4.85451 312.055 4.84359 312.429 4.82471C312.604 4.81676 312.71 4.82272 312.849 4.84657C313.181 4.9042 313.19 4.90122 313.684 4.88333C314.044 4.86942 314.048 4.87141 314.51 4.93202C314.639 4.94892 314.777 4.94891 314.943 4.94096C315.16 4.93103 315.386 4.91513 315.612 4.93003C315.681 4.93401 315.769 4.94594 315.792 4.95886C315.806 4.9678 315.741 4.98966 315.686 4.99662C315.28 5.04829 314.805 5.03935 314.362 5.06022C314.224 5.06618 314.085 5.0473 313.97 5.02047C313.85 4.99364 313.721 4.98271 313.564 4.98768C313.259 4.99861 312.95 5.00556 312.65 5.02146C312.392 5.03537 312.212 5.01252 312.032 4.98171C311.972 4.97177 311.903 4.95289 311.843 4.95388C311.16 4.97376 310.473 4.99364 309.795 5.02146C309.523 5.03339 309.366 5.00159 309.181 4.97476C309.117 4.96582 309.052 4.94693 308.992 4.94793C308.761 4.9519 308.535 4.96283 308.305 4.97078C307.465 5.00059 306.63 5.0304 305.79 5.05823C305.735 5.06022 305.666 5.03934 305.601 5.0304C305.477 5.01251 305.347 4.99562 305.218 4.97873C304.988 4.98668 304.762 4.99661 304.531 5.00257C304.365 5.00655 304.217 5.02047 304.194 5.05823C304.18 5.08307 304.333 5.10592 304.494 5.10394C304.651 5.10195 304.808 5.09002 304.937 5.10294C305.578 5.16654 305.578 5.16753 305.979 5.15462C306.33 5.14269 306.293 5.13275 306.602 5.1874C306.736 5.21125 306.856 5.22517 307.008 5.21921C307.387 5.2053 307.769 5.19138 308.152 5.17946C308.212 5.17747 308.291 5.18741 308.351 5.19536C308.803 5.25498 308.803 5.25697 309.177 5.24206C309.666 5.22418 309.684 5.21921 310.012 5.27983C310.238 5.32156 310.445 5.29274 310.662 5.29075C310.911 5.32951 311.183 5.3643 311.409 5.40802C311.677 5.45969 311.958 5.45074 312.263 5.43583C312.489 5.4249 312.71 5.42093 312.895 5.46167C313.07 5.49943 313.282 5.50341 313.522 5.49348C313.739 5.48453 313.961 5.46565 314.187 5.48751C314.247 5.49347 314.339 5.50838 314.334 5.51732C314.33 5.53124 314.27 5.55111 314.21 5.55708C313.785 5.59782 313.319 5.59682 312.872 5.6157C312.812 5.61868 312.734 5.60775 312.674 5.5998C312.544 5.58191 312.42 5.56105 312.295 5.54217C312.069 5.54813 311.839 5.55011 311.617 5.56204C311.446 5.57098 311.317 5.57 311.193 5.54615C311.077 5.52428 310.953 5.49745 310.814 5.49049C310.676 5.48354 310.514 5.49844 310.362 5.50441C310.21 5.51037 310.035 5.50738 309.915 5.52328C309.795 5.53918 309.721 5.57396 309.643 5.60179C309.555 5.63259 309.435 5.64254 309.26 5.64552C309.098 5.6485 308.969 5.64452 308.849 5.6167C308.798 5.60477 308.729 5.59582 308.66 5.58788C308.595 5.58092 308.521 5.56998 308.461 5.57197C307.774 5.59483 307.091 5.61968 306.404 5.64353C306.062 5.65545 306.067 5.65544 305.357 5.59682C305.292 5.59185 305.214 5.58489 305.149 5.58688C304.766 5.5988 304.388 5.61272 304.005 5.62663C303.617 5.64054 303.622 5.63856 302.962 5.57595C302.842 5.56403 302.667 5.57993 302.524 5.57794C302.224 5.57297 302.077 5.4895 301.726 5.5054C301.426 5.51931 301.112 5.52229 300.812 5.54018C300.54 5.55608 300.383 5.5213 300.199 5.49447C300.134 5.48553 300.065 5.46565 300.01 5.46764C299.322 5.4895 298.64 5.51434 297.726 5.51732C297.5 5.51732 297.602 5.5382 297.749 5.54515C297.961 5.55608 298.031 5.53521 297.915 5.49547C297.832 5.46764 297.712 5.45372 297.615 5.46068C297.565 5.46465 297.5 5.48354 297.726 5.51732C297.966 5.55509 297.952 5.57595 297.994 5.58788C298.095 5.61669 298.238 5.62862 298.386 5.62464C298.617 5.61769 298.843 5.60775 299.073 5.60179C299.138 5.5998 299.216 5.60676 299.276 5.61471C299.784 5.67632 299.788 5.6803 300.328 5.65645C300.499 5.64949 300.623 5.64949 300.757 5.66837C300.942 5.69421 301.075 5.73793 301.357 5.72401C301.731 5.70513 302.113 5.69421 302.496 5.68328C302.556 5.68129 302.621 5.69918 302.69 5.70713C302.879 5.73098 303.018 5.7757 303.299 5.75681C303.516 5.74191 303.751 5.73792 303.982 5.73494C304.042 5.73395 304.134 5.74985 304.162 5.76277C304.217 5.78563 304.148 5.81246 303.991 5.83134C303.927 5.83929 303.839 5.8373 303.765 5.84028C303.461 5.85121 303.156 5.86313 302.852 5.87208C302.69 5.87705 302.538 5.89196 302.519 5.92873C302.506 5.95357 302.672 5.97543 302.829 5.97344C303.059 5.97046 303.29 5.96251 303.511 5.94959C303.903 5.92773 304.245 5.93369 304.563 5.99629C304.789 6.04002 304.775 6.02412 305.015 6.15331C305.075 6.1861 305.255 6.18908 305.412 6.18709C305.79 6.18212 305.966 6.19703 305.933 6.22784C305.892 6.2656 305.758 6.27751 305.587 6.28248C305.283 6.29043 304.978 6.30336 304.674 6.31429C304.6 6.31727 304.517 6.32323 304.448 6.32124C304.379 6.31925 304.314 6.30733 304.254 6.29839C304.125 6.27951 304.014 6.25068 303.876 6.24373C303.737 6.23677 303.576 6.25168 303.424 6.25764C303.271 6.26261 303.11 6.27751 302.972 6.27056C302.833 6.2636 302.718 6.2338 302.593 6.21591C302.533 6.20697 302.459 6.19305 302.4 6.19404C302.095 6.20199 301.791 6.21491 301.486 6.22485C301.112 6.23777 301.112 6.23777 300.66 6.17616C300.531 6.15827 300.397 6.15927 300.227 6.16722C299.858 6.18312 299.853 6.18013 299.179 6.1225C299.115 6.11653 299.036 6.10958 298.972 6.11256C298.284 6.13542 297.602 6.16026 296.919 6.18411C296.333 6.20497 296.333 6.20498 296.01 6.30435C295.77 6.37789 295.765 6.37788 296.001 6.41167C296.19 6.4395 296.36 6.48023 296.568 6.49514C296.762 6.50905 297.002 6.46434 297.214 6.51005C297.32 6.5329 297.458 6.55775 297.592 6.56172C297.804 6.56669 298.031 6.53787 298.234 6.58159C298.335 6.60345 298.487 6.62632 298.617 6.62731C298.843 6.6293 299.073 6.61339 299.299 6.60644C299.368 6.60445 299.447 6.60445 299.512 6.60942C299.581 6.61538 299.641 6.62731 299.701 6.63725C299.885 6.67103 300.084 6.68693 300.323 6.67003C300.716 6.64221 301.066 6.65612 301.371 6.71972C301.412 6.72866 301.514 6.72966 301.578 6.72569C301.744 6.71575 301.887 6.71475 302.012 6.73363C302.063 6.74158 302.136 6.75549 302.127 6.76443C302.113 6.77934 302.058 6.79922 301.998 6.80418C301.564 6.83797 301.099 6.84195 300.651 6.85984C300.591 6.86183 300.517 6.8489 300.457 6.83996C300.328 6.82207 300.217 6.79227 300.079 6.78531C299.941 6.77835 299.779 6.79127 299.627 6.79624C299.475 6.80121 299.313 6.81611 299.175 6.81015C299.036 6.8032 298.907 6.77835 298.796 6.75649C298.667 6.73165 298.543 6.72867 298.372 6.73861C298.151 6.75153 297.92 6.75351 297.694 6.76047C297.569 6.74159 297.445 6.72071 297.316 6.70282C297.256 6.69388 297.182 6.68295 297.117 6.68395C296.813 6.6919 296.508 6.70382 296.204 6.71475C295.899 6.72568 295.899 6.72569 295.383 6.66408C295.323 6.65712 295.244 6.64917 295.179 6.65116C294.797 6.66308 294.418 6.67798 294.035 6.6899C293.888 6.69487 293.754 6.68096 293.634 6.65413C293.519 6.6273 293.38 6.6124 293.237 6.61737C292.628 6.63823 292.019 6.65811 291.41 6.68295C291.166 6.69289 290.958 6.68395 290.792 6.64818C290.598 6.60743 290.382 6.61737 290.156 6.62532C289.643 6.6452 289.639 6.6442 289.311 6.59352C289.247 6.58358 289.182 6.5647 289.122 6.56569C288.592 6.5806 288.056 6.59451 287.531 6.61836C287.254 6.63128 287.106 6.5965 286.922 6.57066C286.857 6.56172 286.788 6.54284 286.732 6.54483C286.349 6.55576 285.966 6.5657 285.593 6.58557C285.219 6.60545 285.076 6.51303 284.795 6.51403C284.412 6.51502 284.033 6.53788 283.655 6.55179C283.351 6.56272 283.046 6.57365 282.742 6.58458C282.437 6.59551 282.133 6.60445 281.828 6.61737C281.667 6.62432 281.547 6.61538 281.413 6.59053C281.242 6.55774 281.039 6.53191 280.855 6.5021C280.574 6.45937 280.573 6.45937 280.232 6.47129C280.158 6.47427 280.08 6.47626 280.006 6.47924C279.448 6.5011 279.448 6.49912 278.737 6.43651C278.705 6.43353 278.622 6.44447 278.59 6.45242C278.493 6.47825 278.405 6.50607 278.318 6.5329C278.193 6.517 278.041 6.50806 277.958 6.48521C277.722 6.42061 277.353 6.50905 277.113 6.44545C277.026 6.4216 276.873 6.40074 276.735 6.39477C276.592 6.38881 276.431 6.40272 276.283 6.40869C275.9 6.42359 275.9 6.4226 275.572 6.51104C275.406 6.55477 275.167 6.54681 274.95 6.55675C274.724 6.56768 274.507 6.57364 274.318 6.5329C274.147 6.49613 273.939 6.48719 273.695 6.49912C273.395 6.51402 273.086 6.52296 272.781 6.53191C272.717 6.53389 272.638 6.52893 272.574 6.52297C271.868 6.46434 271.868 6.46335 271.527 6.47626C271.374 6.48223 271.217 6.48421 271.07 6.49315C270.821 6.50905 270.632 6.48818 270.452 6.45638C270.392 6.44645 270.322 6.42757 270.262 6.42857C269.958 6.43354 269.658 6.44248 269.358 6.45142C269.128 6.45838 268.897 6.46235 268.675 6.47626C268.306 6.49912 268.126 6.43452 267.873 6.40471C267.494 6.41763 267.112 6.42657 266.733 6.44446C266.558 6.45241 266.443 6.44943 266.309 6.42558C266.138 6.39577 265.981 6.36199 265.704 6.37689C265.335 6.39677 264.948 6.40373 264.57 6.41565C264.316 6.38484 264.131 6.32223 263.767 6.34509C263.545 6.359 263.31 6.36198 263.084 6.36993C262.78 6.38086 262.475 6.39081 262.171 6.40273C261.843 6.41466 261.848 6.41167 261.345 6.35304C261.054 6.31826 260.754 6.35702 260.459 6.36298C260.228 6.36795 260.113 6.41366 260.168 6.47229C260.224 6.53092 260.099 6.57663 259.887 6.58458C259.356 6.60346 258.821 6.62333 258.291 6.64022C258.226 6.64221 258.148 6.63525 258.088 6.62829C257.52 6.56569 257.52 6.56669 257.267 6.57564C256.888 6.59054 256.501 6.59848 256.127 6.61737C255.869 6.63028 255.68 6.60942 255.513 6.57564C255.384 6.5498 255.264 6.54384 255.098 6.5498C253.271 6.61638 251.444 6.67799 249.622 6.74655C249.35 6.75649 249.193 6.72768 249.009 6.70085C248.944 6.6919 248.884 6.67302 248.819 6.67302C248.667 6.67302 248.515 6.68196 248.363 6.68793C247.68 6.71178 246.997 6.74059 246.31 6.75848C246.019 6.76643 245.941 6.81214 245.816 6.8499C245.719 6.87872 245.609 6.89064 245.438 6.89462C245.272 6.89859 245.152 6.89362 245.023 6.86778C244.856 6.834 244.667 6.81313 244.409 6.82704C244.109 6.84294 243.805 6.8499 243.495 6.86083C243.339 6.8658 243.219 6.88369 243.168 6.91946C243.159 6.92542 243.256 6.94033 243.311 6.94928C243.496 6.97909 243.671 7.01387 243.878 7.03473C244.091 7.0556 244.321 7.03174 244.543 7.02578C244.621 7.02379 244.695 7.01784 244.769 7.01883C244.838 7.01982 244.921 7.0248 244.972 7.03374C245.212 7.07846 245.465 7.10926 245.798 7.08243C246.084 7.09535 246.231 7.17783 246.596 7.15596C246.817 7.14305 247.048 7.13708 247.279 7.13212C247.339 7.13112 247.403 7.14901 247.468 7.15795C247.652 7.1828 247.8 7.22254 248.077 7.20565C248.372 7.18776 248.686 7.18478 248.986 7.17087C249.152 7.16292 249.271 7.16988 249.401 7.19572C249.567 7.22851 249.756 7.25334 250.014 7.23744C250.236 7.22353 250.471 7.22055 250.697 7.21161C250.992 7.20068 250.992 7.20167 251.518 7.26328C251.578 7.27024 251.657 7.27819 251.721 7.2762C252.104 7.26428 252.482 7.24937 252.865 7.23744C253.013 7.23247 253.156 7.24539 253.258 7.27421C253.299 7.28614 253.285 7.30602 253.299 7.32291C252.538 7.34974 251.777 7.3726 251.02 7.40539C250.734 7.41831 250.605 7.37756 250.416 7.35471C250.351 7.34676 250.282 7.32987 250.222 7.33185C249.687 7.34875 249.156 7.36663 248.626 7.38849C248.46 7.39545 248.335 7.39147 248.21 7.36265C247.892 7.28614 247.505 7.32787 247.145 7.3388C246.868 7.34675 246.78 7.37756 246.813 7.44315C246.854 7.52066 247.02 7.54451 247.445 7.5306C247.597 7.52563 247.749 7.51867 247.901 7.51469C248.049 7.51072 248.183 7.52364 248.303 7.55047C248.418 7.5773 248.556 7.59121 248.699 7.58723C249.004 7.57829 249.313 7.56935 249.608 7.55445C249.853 7.54252 250.056 7.55246 250.226 7.58922C250.416 7.62997 250.637 7.62102 250.859 7.61208C251.375 7.5922 251.38 7.5932 251.703 7.64289C251.767 7.65283 251.832 7.67171 251.892 7.67072C252.423 7.65581 252.958 7.64289 253.479 7.61904C253.751 7.60712 253.908 7.63891 254.088 7.66475C254.153 7.67369 254.217 7.69357 254.277 7.69158C254.66 7.68065 255.043 7.66971 255.417 7.65083C255.592 7.64189 255.698 7.64785 255.841 7.6717C256.182 7.73033 256.192 7.72834 256.676 7.70946C256.824 7.7035 256.985 7.69257 257.124 7.70052C257.262 7.70847 257.373 7.73729 257.502 7.75518C257.562 7.76313 257.636 7.77405 257.7 7.77206C258.005 7.76411 258.309 7.7522 258.614 7.74127C258.9 7.73033 258.9 7.73133 259.435 7.79294C259.652 7.81878 259.878 7.79691 260.095 7.78896C260.33 7.78002 260.542 7.78002 260.722 7.81878C260.902 7.85753 261.119 7.85554 261.349 7.84759C261.566 7.83964 261.788 7.81779 262.009 7.84462C262.517 7.90623 262.517 7.90721 262.83 7.89528C263.287 7.87839 263.739 7.86249 264.201 7.84759C264.26 7.8456 264.339 7.85753 264.399 7.86548C264.528 7.88337 264.639 7.91317 264.777 7.92013C264.916 7.92808 265.077 7.91615 265.225 7.91019C265.7 7.89131 265.732 7.88436 266.05 7.94994C266.318 8.0036 266.65 7.92609 266.899 7.98771C267.042 8.02249 267.236 8.05031 267.504 8.03341C267.725 8.0195 267.956 8.01552 268.186 8.00757C268.551 7.99466 268.551 7.99566 269.012 8.05528C269.072 8.06323 269.151 8.07316 269.211 8.07117C269.515 8.06322 269.824 8.05627 270.12 8.03839C270.466 8.01752 270.687 8.05528 270.945 8.09205C271.148 8.12087 271.388 8.09701 271.605 8.08708C271.84 8.07714 272.052 8.08012 272.228 8.11887C272.412 8.15862 272.629 8.15365 272.86 8.1457C273.077 8.13875 273.298 8.11589 273.52 8.14371C273.995 8.20532 273.995 8.20532 274.341 8.1934C274.645 8.18247 274.95 8.17055 275.254 8.1626C275.314 8.16061 275.388 8.17353 275.448 8.18247C275.577 8.20036 275.688 8.23017 275.826 8.23713C275.965 8.24409 276.126 8.23117 276.278 8.2262C276.431 8.22123 276.592 8.20632 276.73 8.21229C276.869 8.21825 276.998 8.24309 277.109 8.26496C277.238 8.29079 277.358 8.29377 277.533 8.28383C277.755 8.27091 277.985 8.26793 278.211 8.26098C278.336 8.27986 278.465 8.29874 278.585 8.3196C278.71 8.34147 278.843 8.33948 279.014 8.33252C279.582 8.30867 279.586 8.31166 280.061 8.37327C280.278 8.40109 280.504 8.37823 280.721 8.37128C280.952 8.36333 281.169 8.35936 281.348 8.39911C281.524 8.43687 281.741 8.44183 281.971 8.4299C282.119 8.42196 282.276 8.417 282.428 8.41401C282.497 8.41302 282.58 8.41699 282.631 8.42494C282.876 8.46668 283.115 8.50444 283.452 8.47761C283.747 8.48556 283.895 8.56705 284.25 8.55115C284.55 8.53724 284.864 8.53424 285.159 8.51636C285.431 8.50046 285.625 8.52829 285.764 8.56307C286.013 8.62468 286.363 8.54121 286.612 8.60183C286.755 8.63661 286.94 8.66443 287.217 8.64952C287.521 8.63363 287.618 8.65449 287.706 8.71709C287.757 8.75286 287.747 8.78169 287.655 8.80951C287.563 8.83833 287.461 8.83336 287.314 8.80057C287.143 8.7638 286.94 8.75684 286.695 8.76479C286.456 8.77274 286.308 8.72107 286.11 8.7012C285.911 8.68033 285.676 8.71511 285.468 8.68828C284.979 8.62568 284.979 8.62568 284.647 8.6376C284.421 8.64555 284.186 8.64953 283.964 8.66344C283.701 8.68033 283.531 8.64952 283.351 8.6217C283.286 8.61176 283.221 8.59288 283.166 8.59387C282.636 8.60878 282.1 8.62269 281.575 8.64754C281.298 8.66045 281.15 8.62468 280.966 8.59984C280.901 8.5909 280.832 8.57301 280.776 8.575C280.32 8.58891 279.868 8.60679 279.411 8.62369C279.323 8.65052 279.226 8.67635 279.143 8.70517C279.056 8.73498 278.936 8.7479 278.76 8.74691C278.47 8.74691 278.184 8.78864 277.893 8.73598C277.593 8.68232 277.57 8.6853 277.28 8.69822C276.91 8.71511 276.518 8.71114 276.172 8.74989C276.112 8.75685 276.048 8.77572 276.048 8.78963C276.043 8.79857 276.14 8.8115 276.2 8.81945C276.403 8.8433 276.638 8.80852 276.841 8.83336C276.975 8.84926 277.086 8.8731 277.22 8.89C277.275 8.89695 277.358 8.89596 277.432 8.89497C277.51 8.89398 277.584 8.88703 277.658 8.88802C277.727 8.88901 277.801 8.89497 277.856 8.90391C278.11 8.94167 278.377 8.97646 278.604 9.02117C278.825 9.0649 279.033 9.03509 279.254 9.0331C280.14 9.10266 280.14 9.10365 280.735 9.08179C280.883 9.07682 281.035 9.07086 281.187 9.07185C281.252 9.07185 281.312 9.08973 281.376 9.09967C281.561 9.12948 281.736 9.15631 281.994 9.14042C282.216 9.1265 282.451 9.12352 282.677 9.11458C282.982 9.10365 282.982 9.10365 283.498 9.16625C283.628 9.18215 283.766 9.18017 283.932 9.17222C284.075 9.16527 284.223 9.18017 284.324 9.20899C284.366 9.22091 284.352 9.24079 284.366 9.25768C283.909 9.27358 283.448 9.28451 283.005 9.30836C282.719 9.32327 282.59 9.28053 282.4 9.25768C282.336 9.24973 282.267 9.23284 282.207 9.23483C281.755 9.24973 281.302 9.26661 280.85 9.28649C280.795 9.28848 280.726 9.31133 280.721 9.32524C280.712 9.35108 280.827 9.37593 280.993 9.37493C281.215 9.37394 281.432 9.35704 281.63 9.39779C281.796 9.43356 282.004 9.44947 282.248 9.43357C282.396 9.42463 282.553 9.42462 282.7 9.41667C283.092 9.39282 283.448 9.39779 283.743 9.46536C283.969 9.48325 284.19 9.46636 284.407 9.45742C284.569 9.45046 284.726 9.4435 284.841 9.46238C285.085 9.50213 285.325 9.54188 285.662 9.51505C286.027 9.54287 286.303 9.6015 286.608 9.6492C286.751 9.67205 286.862 9.68498 287.028 9.67007C287.097 9.66411 287.18 9.6641 287.254 9.66112C287.406 9.65615 287.567 9.64125 287.706 9.64721C287.844 9.65417 287.96 9.68299 288.084 9.70087C288.144 9.70982 288.213 9.72472 288.273 9.72373C288.504 9.71876 288.73 9.70882 288.956 9.70087C289.182 9.69392 289.408 9.68696 289.634 9.68001C289.823 9.70585 290.017 9.73169 290.206 9.75752C290.511 9.74659 290.815 9.73565 291.115 9.72572C291.452 9.71379 291.452 9.71479 291.936 9.7764C292.153 9.80422 292.384 9.78633 292.591 9.77341C292.937 9.75254 293.168 9.79031 293.413 9.83006C293.463 9.83801 293.556 9.84298 293.616 9.839C293.855 9.82509 294.063 9.83602 294.238 9.87278C294.363 9.89862 294.487 9.91055 294.64 9.90559C295.17 9.8867 295.701 9.86682 296.231 9.84993C296.296 9.84794 296.37 9.85689 296.43 9.86484C296.9 9.92546 296.905 9.92844 297.251 9.91254C297.56 9.89862 297.846 9.89266 298.091 9.94731C298.141 9.95924 298.22 9.97613 298.275 9.97514C298.653 9.9652 299.036 9.95427 299.41 9.93738C299.581 9.92943 299.701 9.93242 299.834 9.95527C300.005 9.98409 300.157 10.0189 300.439 10.006C301.218 9.96918 301.223 9.97513 302.146 10.0437C302.21 10.0487 302.298 10.0407 302.372 10.0368C302.529 10.0268 302.644 10.0407 302.782 10.0636C303.091 10.1153 303.101 10.1123 303.396 10.1013C303.622 10.0924 303.857 10.0904 304.079 10.0755C304.42 10.0536 304.646 10.0924 304.9 10.1292C305.103 10.158 305.338 10.1341 305.555 10.1252C305.79 10.1153 306.003 10.1182 306.178 10.156C306.298 10.1818 306.427 10.1958 306.579 10.1908C307.11 10.1729 307.64 10.153 308.171 10.1351C308.235 10.1331 308.314 10.1411 308.374 10.148C308.9 10.2097 308.9 10.2126 309.421 10.1898C309.587 10.1828 309.726 10.1808 309.85 10.2017C309.97 10.2216 310.099 10.2405 310.224 10.2593C310.45 10.2524 310.681 10.2504 310.902 10.2385C311.073 10.2295 311.193 10.2335 311.326 10.2544C311.502 10.2812 311.649 10.3279 311.926 10.305C312.069 10.2941 312.235 10.2971 312.378 10.2872C312.549 10.2743 312.664 10.2822 312.798 10.308C312.964 10.3388 313.135 10.3706 313.402 10.3547C313.698 10.3368 314.011 10.3339 314.311 10.32C314.477 10.312 314.593 10.32 314.727 10.3458C314.893 10.3786 315.082 10.3995 315.34 10.3865C315.866 10.3617 315.871 10.3667 316.383 10.4293C316.512 10.4452 316.65 10.4432 316.816 10.4352C316.959 10.4283 317.107 10.4432 317.208 10.472C317.305 10.5038 317.296 10.5237 317.305 10.5406ZM276.195 1.57823C276.043 1.5832 275.891 1.58916 275.669 1.5027C275.656 1.4878 275.665 1.46991 275.633 1.457C275.559 1.43017 275.443 1.41129 275.305 1.40831C275.056 1.40433 274.756 1.43811 274.761 1.46395C274.765 1.48581 274.844 1.50469 274.996 1.52257C275.06 1.52953 275.111 1.54146 275.171 1.54941C275.346 1.57226 275.485 1.61699 275.739 1.59413C275.716 1.56332 275.693 1.53252 275.739 1.59413C275.716 1.63189 275.785 1.65872 275.951 1.66965C275.997 1.67263 276.066 1.67064 276.103 1.66468C276.246 1.64282 276.269 1.61301 276.163 1.53451C276.145 1.54743 276.158 1.57028 276.2 1.57624C276.241 1.5822 276.343 1.57724 276.394 1.57028C276.523 1.5514 276.587 1.52656 276.555 1.50569C276.537 1.49476 276.449 1.48084 276.394 1.48084C276.297 1.48084 276.209 1.5027 276.195 1.57823ZM313.499 13.1024C313.162 13.1212 312.775 13.1143 312.438 13.153C312.378 13.16 312.318 13.1779 312.314 13.1918C312.309 13.2007 312.401 13.2137 312.457 13.2206C312.581 13.2365 312.72 13.2316 312.881 13.2266C313.126 13.2196 313.269 13.2653 313.458 13.2882C313.518 13.2951 313.596 13.3001 313.661 13.2981C314.034 13.2862 314.404 13.2733 314.777 13.2594C314.842 13.2564 314.911 13.2494 314.966 13.2405C315.151 13.2117 315.132 13.1928 314.953 13.1709C314.754 13.1471 314.597 13.1073 314.394 13.0885C314.104 13.0616 313.808 13.0974 313.499 13.1024ZM287.3 13.8278C287.074 13.8357 286.852 13.8437 286.626 13.8516C286.552 13.8546 286.474 13.8556 286.405 13.8596C286.262 13.8665 286.156 13.8874 286.086 13.9202C286.193 13.946 286.322 13.9609 286.465 13.958C286.691 13.952 286.912 13.9391 287.138 13.9361C287.383 13.9321 287.526 13.9768 287.715 13.9997C287.775 14.0067 287.849 14.0076 287.918 14.0086C288.259 14.0126 288.467 13.9609 288.402 13.8884C288.356 13.8318 288.181 13.798 287.969 13.8049C287.747 13.8119 287.521 13.8198 287.3 13.8278ZM315.077 11.6336C315.132 11.6168 315.192 11.6048 315.22 11.5899C315.303 11.5393 315.271 11.5015 315.119 11.4617C314.934 11.413 314.708 11.4458 314.5 11.4508C314.45 11.4518 314.394 11.4727 314.367 11.4856C314.348 11.4945 314.348 11.5134 314.376 11.5184C314.602 11.5581 314.842 11.5949 315.077 11.6336ZM275.056 8.69822C274.834 8.70617 274.608 8.71213 274.387 8.72306C274.332 8.72604 274.281 8.74492 274.249 8.75784C274.189 8.78169 274.253 8.81448 274.442 8.81746C274.659 8.82143 274.885 8.80454 275.111 8.79659C275.397 8.78666 275.568 8.74988 275.462 8.71809C275.36 8.68728 275.222 8.68132 275.056 8.69822ZM32.2109 6.57464C32.3585 6.56967 32.5108 6.5657 32.6584 6.55874C32.7968 6.55178 32.903 6.52992 32.9722 6.49713C32.8569 6.47129 32.7276 6.45738 32.5846 6.46036C32.3586 6.46632 32.1371 6.47427 31.9157 6.48421C31.7773 6.49017 31.6436 6.51203 31.6113 6.54582C31.579 6.57166 31.888 6.58657 32.2109 6.57464ZM255.546 6.42161C255.606 6.43055 255.666 6.44844 255.726 6.44844C255.873 6.44844 256.026 6.44247 256.164 6.43254C256.224 6.42856 256.27 6.41068 256.298 6.39676C256.316 6.38782 256.312 6.37192 256.284 6.36397C256.15 6.31628 255.615 6.33317 255.527 6.38782C255.518 6.39776 255.541 6.41068 255.546 6.42161ZM240.99 0.980007C241.004 0.995907 241.009 1.0118 241.027 1.0277C241.064 1.05752 241.166 1.07938 241.313 1.09429C241.429 1.06944 241.489 1.04162 241.484 1.01181C241.48 0.995913 241.466 0.980004 241.447 0.964104C241.41 0.934293 241.309 0.912439 241.161 0.897533C241.046 0.921382 240.99 0.949202 240.99 0.980007ZM325.739 14.0007C325.697 14.0136 325.656 14.0265 325.609 14.0385C325.734 14.0673 325.849 14.0762 325.937 14.0603C325.992 14.0504 326.025 14.0355 326.066 14.0226C325.942 13.9937 325.831 13.9858 325.739 14.0007ZM322.869 14.1358C322.929 14.1448 322.984 14.1567 323.049 14.1627C323.155 14.1726 323.252 14.1557 323.326 14.1199C323.266 14.111 323.211 14.0991 323.146 14.0931C323.04 14.0832 322.943 14.1001 322.869 14.1358ZM324.687 13.954C324.654 13.9778 324.719 13.9977 324.89 14.0146C324.931 14.0017 324.987 13.9898 325.014 13.9758C325.061 13.953 324.982 13.9321 324.816 13.9162C324.77 13.9282 324.728 13.9411 324.687 13.954ZM314.948 12.8828C314.916 12.9066 314.98 12.9265 315.151 12.9434C315.192 12.9305 315.248 12.9185 315.275 12.9046C315.322 12.8818 315.243 12.8609 315.077 12.845C315.031 12.8569 314.989 12.8698 314.948 12.8828ZM301.68 5.85121C301.638 5.86413 301.597 5.87705 301.551 5.88897C301.675 5.91779 301.79 5.92673 301.878 5.91083C301.933 5.9009 301.966 5.88599 302.007 5.87307C301.883 5.84425 301.772 5.83631 301.68 5.85121ZM288.97 2.12079C289.081 2.12775 289.173 2.11384 289.251 2.07708C289.191 2.06813 289.136 2.05621 289.071 2.05024C288.965 2.04031 288.868 2.0572 288.795 2.09298C288.855 2.10292 288.914 2.11185 288.97 2.12079ZM282.22 1.88727C282.179 1.90019 282.137 1.91311 282.091 1.92503C282.216 1.95385 282.331 1.96279 282.419 1.94689C282.474 1.93696 282.507 1.92205 282.548 1.90913C282.423 1.88031 282.313 1.87336 282.22 1.88727ZM236.451 0.979012C236.409 0.991931 236.368 1.00485 236.322 1.01677C236.446 1.04559 236.562 1.05453 236.649 1.03863C236.705 1.0287 236.737 1.01379 236.778 1.00087C236.654 0.972053 236.543 0.9651 236.451 0.979012ZM8.55337 9.0639C8.4934 9.05495 8.43348 9.04602 8.37811 9.03608C8.24433 9.06291 8.20282 9.08775 8.27663 9.10663C8.32277 9.11856 8.39191 9.12552 8.45189 9.13446C8.59029 9.10763 8.62257 9.08377 8.55337 9.0639Z" fill="#B5509C"/>
<path d="M170.464 20.5284C170.71 20.5176 170.955 20.501 171.201 20.5C171.345 20.499 171.416 20.5313 171.382 20.5547C171.363 20.5694 171.318 20.5899 171.273 20.5919C170.781 20.6153 170.29 20.6349 169.799 20.6564C169.655 20.6427 169.584 20.6222 169.618 20.5987C169.637 20.5841 169.682 20.5645 169.727 20.5616C169.973 20.5479 170.218 20.5391 170.464 20.5284Z" fill="#B5509C"/>
<path d="M170.532 21.7689C170.411 21.7738 170.283 21.7875 170.17 21.7826C170.018 21.7757 169.958 21.7494 169.996 21.7249C170.018 21.7112 170.06 21.6917 170.105 21.6888C170.347 21.6751 170.593 21.6663 170.835 21.6565C170.978 21.6712 171.042 21.6917 171.005 21.7161C170.982 21.7298 170.94 21.7484 170.895 21.7523C170.778 21.7621 170.653 21.764 170.532 21.7689Z" fill="#B5509C"/>
<path d="M170.523 22.8881C170.391 22.9047 170.277 22.8989 170.194 22.8676C170.111 22.8363 170.243 22.7992 170.474 22.7904C170.534 22.7884 170.598 22.7806 170.655 22.7845C170.712 22.7875 170.769 22.7992 170.803 22.8109C170.863 22.8305 170.825 22.8569 170.704 22.8793C170.655 22.8881 170.583 22.8862 170.523 22.8881Z" fill="#B5509C"/>
<path d="M170.46 23.9607C170.955 23.9392 171.45 23.9187 171.945 23.8972C172.093 23.9109 172.161 23.9304 172.131 23.9549C172.112 23.9695 172.066 23.9901 172.021 23.992C171.031 24.036 170.041 24.078 169.055 24.1201C168.907 24.1064 168.839 24.0868 168.869 24.0624C168.888 24.0477 168.934 24.0272 168.979 24.0252C169.47 24.0028 169.965 23.9822 170.46 23.9607Z" fill="#B5509C"/>
<path d="M170.561 25.1202C170.678 25.1192 170.783 25.1319 170.874 25.1563C170.817 25.1876 170.734 25.2081 170.621 25.2169C170.564 25.2208 170.5 25.2238 170.44 25.2247C170.322 25.2267 170.217 25.213 170.126 25.1886C170.183 25.1573 170.269 25.1368 170.379 25.128C170.436 25.1241 170.5 25.1231 170.561 25.1202Z" fill="#B5509C"/>
<path d="M172.563 26.3822C172.129 26.4008 171.698 26.4242 171.263 26.436C171.033 26.4418 170.95 26.4839 170.855 26.523C170.78 26.5542 170.693 26.564 170.553 26.5699C169.374 26.6178 168.199 26.6686 167.023 26.7184C166.876 26.7057 166.804 26.6852 166.838 26.6608C166.857 26.6461 166.903 26.6256 166.948 26.6236C167.753 26.5875 168.554 26.5503 169.363 26.522C169.593 26.5142 169.657 26.4711 169.774 26.436C169.812 26.4242 169.842 26.4066 169.892 26.3998C169.941 26.392 170.013 26.393 170.077 26.391C171.377 26.3353 172.677 26.2806 173.977 26.2249C174.124 26.2376 174.196 26.2581 174.162 26.2825C174.143 26.2972 174.097 26.3177 174.052 26.3197C173.553 26.3402 173.058 26.3607 172.563 26.3822Z" fill="#B5509C"/>
<path d="M170.615 27.7459C170.671 27.7654 170.641 27.7889 170.531 27.8153C170.482 27.8065 170.426 27.7996 170.388 27.7879C170.327 27.7693 170.358 27.7449 170.471 27.7185C170.516 27.7283 170.565 27.7371 170.615 27.7459Z" fill="#B5509C"/>
<path d="M170.415 28.8224C170.491 28.8078 170.581 28.8156 170.687 28.8439C170.653 28.8566 170.623 28.8713 170.581 28.8811C170.509 28.8967 170.415 28.8889 170.313 28.8596C170.343 28.8478 170.377 28.8351 170.415 28.8224Z" fill="#B5509C"/>
<path d="M170.543 29.8912C170.593 29.9 170.642 29.9088 170.687 29.9186C170.623 29.9547 170.547 29.9704 170.46 29.9606C170.407 29.9547 170.362 29.943 170.313 29.9342C170.377 29.898 170.453 29.8834 170.543 29.8912Z" fill="#B5509C"/>
<path d="M170.543 30.9651C170.593 30.9739 170.642 30.9827 170.687 30.9925C170.623 31.0286 170.543 31.0442 170.46 31.0345C170.407 31.0286 170.362 31.0169 170.313 31.0081C170.377 30.9719 170.453 30.9582 170.543 30.9651Z" fill="#B5509C"/>
<path d="M170.54 32.1385C170.094 32.159 170.086 32.1571 170.166 32.1082C170.237 32.0642 170.37 32.0378 170.562 32.0378C170.619 32.0378 170.679 32.0359 170.729 32.0398C170.781 32.0447 170.857 32.0544 170.868 32.0662C170.891 32.0887 170.827 32.1131 170.713 32.1297C170.664 32.1375 170.6 32.1356 170.54 32.1385Z" fill="#B5509C"/>
<path d="M169.921 33.1812C170.106 33.1734 170.299 33.1695 170.48 33.1558C170.623 33.1451 170.714 33.1519 170.828 33.1754C171.02 33.2164 171.032 33.2125 171.504 33.2184C171.557 33.2194 171.621 33.234 171.651 33.2467C171.67 33.2536 171.644 33.2721 171.621 33.2819C171.587 33.2946 171.538 33.3112 171.493 33.3112C171.194 33.3142 170.892 33.3718 170.601 33.3054C170.453 33.2721 170.291 33.2565 170.091 33.2712C169.97 33.28 169.841 33.2839 169.717 33.2878C169.596 33.2917 169.471 33.2809 169.395 33.2516C169.286 33.2086 169.35 33.192 169.547 33.1949C169.671 33.1969 169.796 33.1861 169.921 33.1812Z" fill="#B5509C"/>
<path d="M170.397 34.5483C170.174 34.5503 169.939 34.5865 169.69 34.5591C169.641 34.5542 169.573 34.5386 169.577 34.5298C169.584 34.5151 169.63 34.4965 169.679 34.4907C169.894 34.4662 170.162 34.4633 170.272 34.3949C170.325 34.3597 170.423 34.348 170.555 34.3411C170.695 34.3333 170.793 34.3362 170.903 34.3568C171.047 34.3832 171.168 34.432 171.394 34.4066C171.406 34.4223 171.432 34.4399 171.421 34.4545C171.409 34.4692 171.36 34.4829 171.315 34.4936C171.273 34.5034 171.217 34.5122 171.164 34.5151C170.914 34.5268 170.665 34.5366 170.397 34.5483Z" fill="#B5509C"/>
<path d="M170.409 35.582C170.598 35.5742 170.659 35.5693 170.719 35.5693C170.833 35.5693 170.95 35.5811 171.018 35.6094C171.12 35.6505 171.059 35.6622 170.874 35.6642C170.636 35.6661 170.402 35.6866 170.164 35.6905C170.039 35.6925 169.941 35.669 169.933 35.6446C169.929 35.6329 169.986 35.6123 170.031 35.6084C170.19 35.5938 170.364 35.585 170.409 35.582Z" fill="#B5509C"/>
<path d="M170.302 36.7122C170.479 36.7044 170.657 36.6917 170.834 36.6907C170.959 36.6897 171.057 36.7122 171.069 36.7367C171.072 36.7484 171.016 36.767 170.971 36.7738C170.755 36.8002 170.513 36.8021 170.279 36.8109C170.169 36.8148 170.048 36.7992 169.98 36.7718C169.878 36.7308 169.939 36.7122 170.124 36.7181C170.181 36.72 170.241 36.7142 170.302 36.7122Z" fill="#B5509C"/>
<path d="M170.427 37.8259C170.548 37.8211 170.672 37.8083 170.79 37.8123C170.914 37.8171 170.994 37.8455 171.032 37.8738C171.073 37.9061 171.069 37.9364 171.032 37.9638C170.971 38.0107 170.911 38.0087 170.771 37.9774C170.555 37.9286 170.54 37.9344 170.113 37.9364C170.064 37.9364 170.004 37.9217 169.966 37.909C169.909 37.8895 169.939 37.8592 170.072 37.8416C170.17 37.8289 170.306 37.8308 170.427 37.8259Z" fill="#B5509C"/>
<path d="M170.194 39.0842C170.19 39.0734 170.171 39.0607 170.182 39.051C170.254 38.9972 170.689 38.9806 170.802 39.0275C170.821 39.0363 170.828 39.0509 170.813 39.0597C170.791 39.0734 170.749 39.091 170.704 39.0949C170.587 39.1047 170.466 39.1096 170.345 39.1106C170.292 39.1106 170.243 39.094 170.194 39.0842Z" fill="#B5509C"/>
<path d="M170.302 40.1311C170.479 40.1233 170.657 40.1106 170.834 40.1106C170.959 40.1096 171.057 40.1321 171.069 40.1566C171.072 40.1683 171.016 40.1878 170.97 40.1937C170.755 40.2201 170.513 40.222 170.279 40.2308C170.169 40.2348 170.048 40.2191 169.98 40.1917C169.878 40.1507 169.939 40.1321 170.124 40.138C170.181 40.14 170.241 40.1341 170.302 40.1311Z" fill="#B5509C"/>
<path d="M170.438 41.3445C170.174 41.3562 169.924 41.3416 169.943 41.3161C169.97 41.2829 170.079 41.2614 170.193 41.2555C170.374 41.2458 170.555 41.2379 170.74 41.2321C170.858 41.2282 170.963 41.2428 171.058 41.2682C171.001 41.2995 170.914 41.322 170.801 41.3288C170.684 41.3357 170.559 41.3396 170.438 41.3445Z" fill="#B5509C"/>
<path d="M169.126 42.4137C169.603 42.3931 170.082 42.3756 170.559 42.3521C170.755 42.3423 170.91 42.3531 171.046 42.3863C171.193 42.4225 171.36 42.4195 171.541 42.4127C171.654 42.4088 171.764 42.4244 171.84 42.4518C171.87 42.4625 171.862 42.4821 171.874 42.4977C171.458 42.5153 171.039 42.5339 170.619 42.5495C170.57 42.5515 170.509 42.5417 170.464 42.5339C170.362 42.5173 170.275 42.488 170.166 42.4821C169.931 42.4684 169.697 42.4948 169.459 42.4997C169.346 42.5016 169.236 42.487 169.16 42.4606C169.13 42.4479 169.138 42.4293 169.126 42.4137Z" fill="#B5509C"/>
<path d="M170.302 43.5704C170.479 43.5625 170.657 43.5498 170.834 43.5498C170.959 43.5489 171.057 43.5713 171.069 43.5958C171.072 43.6075 171.016 43.627 170.97 43.6329C170.755 43.6593 170.513 43.6613 170.279 43.6701C170.169 43.674 170.048 43.6583 169.98 43.631C169.878 43.5899 169.939 43.5713 170.124 43.5772C170.181 43.5791 170.241 43.5733 170.302 43.5704Z" fill="#B5509C"/>
<path d="M171.351 44.8914C171.154 44.9032 170.905 44.9198 170.701 44.8631C170.603 44.8357 170.497 44.8269 170.368 44.8328C170.183 44.8426 169.994 44.8504 169.805 44.8562C169.756 44.8572 169.692 44.8465 169.643 44.8377C169.537 44.8201 169.446 44.7908 169.333 44.7829C169.219 44.7751 169.083 44.7966 168.966 44.7917C168.811 44.7849 168.747 44.7585 168.789 44.7341C168.811 44.7204 168.857 44.7008 168.906 44.6979C169.605 44.6617 169.609 44.6617 169.805 44.6969C169.956 44.7243 170.096 44.7546 170.312 44.738C170.493 44.7243 170.686 44.7213 170.871 44.7126C171.128 44.7008 171.128 44.7018 171.543 44.7634C171.649 44.779 171.763 44.778 171.899 44.7692C172.016 44.7624 172.129 44.778 172.224 44.8044C172.163 44.8377 172.076 44.8592 171.959 44.865C171.77 44.8748 171.585 44.8816 171.351 44.8914Z" fill="#B5509C"/>
<path d="M170.364 45.9402C170.398 45.9275 170.432 45.9148 170.47 45.9031C170.61 45.9197 170.67 45.9392 170.633 45.9617C170.61 45.9754 170.565 45.9871 170.531 45.9998C170.391 45.9832 170.334 45.9627 170.364 45.9402Z" fill="#B5509C"/>
<path d="M170.115 47.0594C170.112 47.0311 170.342 46.9988 170.55 46.9998C170.659 47.0008 170.773 47.0144 170.837 47.0408C170.935 47.0809 170.879 47.0965 170.693 47.0936C170.58 47.0916 170.459 47.1083 170.346 47.1053C170.217 47.1044 170.142 47.0829 170.115 47.0594Z" fill="#B5509C"/>
<path d="M170.302 48.1352C170.54 48.1254 170.782 48.1107 171.02 48.1058C171.144 48.1039 171.243 48.1264 171.258 48.1518C171.265 48.1635 171.205 48.184 171.156 48.1889C170.816 48.2221 170.449 48.2261 170.094 48.2427C169.98 48.2476 169.86 48.2319 169.792 48.2045C169.69 48.1625 169.746 48.1469 169.939 48.1498C170.06 48.1508 170.181 48.14 170.302 48.1352Z" fill="#B5509C"/>
<path d="M170.259 49.273C170.497 49.2632 170.735 49.2515 170.977 49.2436C171.026 49.2417 171.086 49.2524 171.131 49.2593C171.313 49.2886 171.286 49.3384 171.294 49.3824C171.298 49.4284 170.878 49.4655 170.701 49.4342C170.504 49.399 170.327 49.359 170.054 49.3805C169.949 49.3883 169.824 49.3707 169.756 49.3424C169.654 49.3013 169.711 49.2847 169.903 49.2876C170.017 49.2896 170.138 49.2788 170.259 49.273Z" fill="#B5509C"/>
<path d="M170.307 50.4818C170.307 50.47 170.36 50.4515 170.402 50.4475C170.481 50.4407 170.579 50.4544 170.647 50.4818C170.742 50.5208 170.685 50.5414 170.511 50.5306C170.39 50.5228 170.307 50.5033 170.307 50.4818Z" fill="#B5509C"/>
</g>
<defs>
<filter id="filter0_d_1_136" x="0" y="0.5" width="341" height="58.0334" filterUnits="userSpaceOnUse" color-interpolation-filters="sRGB">
<feFlood flood-opacity="0" result="BackgroundImageFix"/>
<feColorMatrix in="SourceAlpha" type="matrix" values="0 0 0 0 0 0 0 0 0 0 0 0 0 0 0 0 0 0 127 0" result="hardAlpha"/>
<feOffset dy="4"/>
<feGaussianBlur stdDeviation="2"/>
<feComposite in2="hardAlpha" operator="out"/>
<feColorMatrix type="matrix" values="0 0 0 0 0 0 0 0 0 0 0 0 0 0 0 0 0 0 0.25 0"/>
<feBlend mode="normal" in2="BackgroundImageFix" result="effect1_dropShadow_1_136"/>
<feBlend mode="normal" in="SourceGraphic" in2="effect1_dropShadow_1_136" result="shape"/>
</filter>
</defs>
</svg>
